<svg xmlns="http://www.w3.org/2000/svg" xmlns:xlink="http://www.w3.org/1999/xlink" width="24" height="25" viewBox="0 0 24 25">
  <defs>
    <ellipse id="poi-pin-a" cx="12" cy="11.906" rx="12" ry="11.906"/>
  </defs>
  <g fill="none" fill-rule="evenodd" transform="translate(0 .865)">
    <mask id="poi-pin-b" fill="#fff">
      <use xlink:href="#poi-pin-a"/>
    </mask>
    <use fill="#583A71" xlink:href="#poi-pin-a"/>
    <g mask="url(#poi-pin-b)">
      <path fill="#FFF" d="M13.8298698,6.43817906 L13.8298698,9.17950199 C14.3156771,9.34253295 14.6666667,9.80038451 14.6666667,10.3387266 L14.6666667,10.3387266 L14.6666667,12.0062975 C14.6666667,12.6806846 14.1160677,13.2293021 13.4392448,13.2293021 C12.762474,13.2293021 12.2118229,12.6806587 12.2118229,12.0062975 L12.2118229,12.0062975 L12.2118229,10.3387266 C12.2118229,9.80041045 12.5628385,9.34253295 13.0486198,9.17952794 L13.0486198,9.17952794 L13.0486198,6.6717106 L13.8298698,6.43817906 Z M12.1561979,6.93845551 L12.1561979,8.03774036 C12.1561979,8.4020755 11.9185156,8.91529998 10.7861719,9.29138955 C10.0361719,9.5405158 9.04666667,9.6777026 7.99997397,9.6777026 C6.95328126,9.6777026 5.96375001,9.5405158 5.21377605,9.29138955 C4.08143231,8.91527403 3.84375001,8.40204955 3.84375001,8.03774036 L3.84375001,8.03774036 L3.84375001,6.93845551 L6.66846355,7.78282771 C7.04458334,7.89528612 7.50505209,7.95473287 8.00000001,7.95473287 C8.49489584,7.95473287 8.95533855,7.89528612 9.33148438,7.78282771 L9.33148438,7.78282771 L12.1561979,6.93845551 Z M8.00000001,2.64586042 C8.41388022,2.64586042 8.8070573,2.69523937 9.10708334,2.78491548 L9.10708334,2.78491548 L13.9779427,4.24093272 C14.5471354,4.41104747 14.6666667,4.69925134 14.6666667,4.91101255 C14.6666667,5.1227997 14.5471875,5.41100357 13.9779948,5.58122211 L13.9779948,5.58122211 L9.10708334,7.03723935 C8.80703126,7.12691546 8.41388022,7.17629441 8.00000001,7.17629441 C7.58617188,7.17629441 7.19302084,7.12694141 6.89296876,7.03721341 L6.89296876,7.03721341 L2.02205731,5.58119616 C1.45281252,5.41100357 1.33333333,5.1227997 1.33333333,4.91101255 C1.33333333,4.69925134 1.45281252,4.41107342 2.02210939,4.24093272 L2.02210939,4.24093272 L6.89291668,2.78491548 C7.19302084,2.69521342 7.58617188,2.64586042 8.00000001,2.64586042 Z" transform="translate(4 4.961)"/>
    </g>
  </g>
</svg>
