<svg xmlns="http://www.w3.org/2000/svg" xmlns:xlink="http://www.w3.org/1999/xlink" width="24" height="36" viewBox="0 0 24 36">
  <defs>
    <path id="poi-pin-a" d="M12,30 C13.6568542,30 15,31.3431458 15,33 C15,34.6568542 13.6568542,36 12,36 C10.3431458,36 9,34.6568542 9,33 C9,31.3431458 10.3431458,30 12,30 Z M12,-7.10542736e-15 C18.627417,-7.10542736e-15 24,5.372583 24,12 C24,17.6146117 20.1440269,22.3286127 14.935803,23.6382805 L12.5,27.3846154 L10.2140124,23.8679988 C4.43364791,23.0054874 0,18.0205107 0,12 C0,5.372583 5.372583,-7.10542736e-15 12,-7.10542736e-15 Z"/>
  </defs>
  <g fill="none" fill-rule="evenodd">
    <mask id="poi-pin-b" fill="#fff">
      <use xlink:href="#poi-pin-a"/>
    </mask>
    <use fill="#583A71" xlink:href="#poi-pin-a"/>
    <g mask="url(#poi-pin-b)">
      <path fill="#FFF" d="M13.8298698,6.48880695 L13.8298698,9.2516868 C14.3156771,9.41599979 14.6666667,9.87745175 14.6666667,10.4200272 L14.6666667,10.4200272 L14.6666667,12.1007113 C14.6666667,12.7804017 14.1160677,13.3333333 13.4392448,13.3333333 C12.762474,13.3333333 12.2118229,12.7803755 12.2118229,12.1007113 L12.2118229,12.1007113 L12.2118229,10.4200272 C12.2118229,9.8774779 12.5628385,9.41599979 13.0486198,9.25171296 L13.0486198,9.25171296 L13.0486198,6.7241749 L13.8298698,6.48880695 Z M12.1561979,6.99301742 L12.1561979,8.1009467 C12.1561979,8.46814687 11.9185156,8.98540719 10.7861719,9.36445421 C10.0361719,9.61553952 9.04666667,9.75380512 7.99997397,9.75380512 C6.95328126,9.75380512 5.96375001,9.61553952 5.21377605,9.36445421 C4.08143231,8.98538103 3.84375001,8.46812072 3.84375001,8.1009467 L3.84375001,8.1009467 L3.84375001,6.99301742 L6.66846355,7.8440295 C7.04458334,7.95737225 7.50505209,8.01728647 8.00000001,8.01728647 C8.49489584,8.01728647 8.95533855,7.95737225 9.33148438,7.8440295 L9.33148438,7.8440295 L12.1561979,6.99301742 Z M8.00000001,2.66666667 C8.41388022,2.66666667 8.8070573,2.71643391 9.10708334,2.80681521 L9.10708334,2.80681521 L13.9779427,4.27428213 C14.5471354,4.44573461 14.6666667,4.73620482 14.6666667,4.94963126 C14.6666667,5.16308384 14.5471875,5.45355406 13.9779948,5.62511115 L13.9779948,5.62511115 L9.10708334,7.09257806 C8.80703126,7.18295936 8.41388022,7.23272661 8.00000001,7.23272661 C7.58617188,7.23272661 7.19302084,7.18298551 6.89296876,7.09255191 L6.89296876,7.09255191 L2.02205731,5.62508499 C1.45281252,5.45355406 1.33333333,5.16308384 1.33333333,4.94963126 C1.33333333,4.73620482 1.45281252,4.44576076 2.02210939,4.27428213 L2.02210939,4.27428213 L6.89291668,2.80681521 C7.19302084,2.71640776 7.58617188,2.66666667 8.00000001,2.66666667 Z" transform="translate(4 4)"/>
    </g>
  </g>
</svg>
