<svg xmlns="http://www.w3.org/2000/svg" xmlns:xlink="http://www.w3.org/1999/xlink" width="24" height="25" viewBox="0 0 24 25">
  <defs>
    <ellipse id="poi-pin-a" cx="12" cy="11.906" rx="12" ry="11.906"/>
  </defs>
  <g fill="none" fill-rule="evenodd" transform="translate(0 .813)">
    <mask id="poi-pin-b" fill="#fff">
      <use xlink:href="#poi-pin-a"/>
    </mask>
    <use fill="#323F75" xlink:href="#poi-pin-a"/>
    <g mask="url(#poi-pin-b)">
      <path fill="#FFF" d="M10.3519919,5.06945635 L5.55467066,0.309565428 C5.35999581,0.119063626 5.09332102,0 4.79999625,0 L1.06667417,0 C0.477324627,0 0,0.473600378 0,1.05835161 L0,4.76254504 C0,5.05623532 0.119999906,5.32082943 0.314674754,5.51133123 L5.114671,10.2738763 C5.30667085,10.4643781 5.57334565,10.5834417 5.86667042,10.5834417 C6.15999519,10.5834417 6.42934498,10.4643781 6.62134483,10.2738763 L10.3546669,6.56968284 C10.5466668,6.37652691 10.6666667,6.11195761 10.6666667,5.82089666 C10.6666667,5.52720638 10.5466668,5.26261227 10.3519919,5.06945635 Z M1.86667354,2.64586663 C1.42399889,2.64586663 1.06667417,2.29132987 1.06667417,1.85210912 C1.06667417,1.41288836 1.42399889,1.05835161 1.86667354,1.05835161 C2.3093482,1.05835161 2.66667292,1.41288836 2.66667292,1.85210912 C2.66667292,2.29132987 2.3093232,2.64586663 1.86667354,2.64586663 Z" transform="translate(6.667 6.615)"/>
    </g>
  </g>
</svg>
