<svg xmlns="http://www.w3.org/2000/svg" xmlns:xlink="http://www.w3.org/1999/xlink" width="24" height="36" viewBox="0 0 24 36">
  <defs>
    <path id="poi-pin-a" d="M12,30 C13.6568542,30 15,31.3431458 15,33 C15,34.6568542 13.6568542,36 12,36 C10.3431458,36 9,34.6568542 9,33 C9,31.3431458 10.3431458,30 12,30 Z M12,-7.10542736e-15 C18.627417,-7.10542736e-15 24,5.372583 24,12 C24,17.6146117 20.1440269,22.3286127 14.935803,23.6382805 L12.5,27.3846154 L10.2140124,23.8679988 C4.43364791,23.0054874 0,18.0205107 0,12 C0,5.372583 5.372583,-7.10542736e-15 12,-7.10542736e-15 Z"/>
  </defs>
  <g fill="none" fill-rule="evenodd">
    <mask id="poi-pin-b" fill="#fff">
      <use xlink:href="#poi-pin-a"/>
    </mask>
    <use fill="#323F75" xlink:href="#poi-pin-a"/>
    <g mask="url(#poi-pin-b)">
      <path fill="#FFF" d="M10.3519919,5.10932101 L5.55467066,0.311999756 C5.35999581,0.119999906 5.09332102,0 4.79999625,0 L1.06667417,0 C0.477324627,0 0,0.477324627 0,1.06667417 L0,4.79999625 C0,5.09599602 0.119999906,5.36267081 0.314674754,5.55467066 L5.114671,10.3546669 C5.30667085,10.5466668 5.57334565,10.6666667 5.86667042,10.6666667 C6.15999519,10.6666667 6.42934498,10.5466668 6.62134483,10.3546669 L10.3546669,6.62134483 C10.5466668,6.42666998 10.6666667,6.16002019 10.6666667,5.86667042 C10.6666667,5.57067065 10.5466668,5.30399586 10.3519919,5.10932101 Z M1.86667354,2.66667292 C1.42399889,2.66667292 1.06667417,2.3093482 1.06667417,1.86667354 C1.06667417,1.42399889 1.42399889,1.06667417 1.86667354,1.06667417 C2.3093482,1.06667417 2.66667292,1.42399889 2.66667292,1.86667354 C2.66667292,2.3093482 2.3093232,2.66667292 1.86667354,2.66667292 Z" transform="translate(6.667 6.667)"/>
    </g>
  </g>
</svg>
