<?xml version="1.0" encoding="UTF-8"?>
<svg width="24px" height="36px" viewBox="0 0 24 36" version="1.1" xmlns="http://www.w3.org/2000/svg" xmlns:xlink="http://www.w3.org/1999/xlink">
    <title>component/poi pin</title>
    <defs>
        <path d="M12,30 C13.6568542,30 15,31.3431458 15,33 C15,34.6568542 13.6568542,36 12,36 C10.3431458,36 9,34.6568542 9,33 C9,31.3431458 10.3431458,30 12,30 Z M12,-7.10542736e-15 C18.627417,-7.10542736e-15 24,5.372583 24,12 C24,17.6146117 20.1440269,22.3286127 14.935803,23.6382805 L12.5,27.3846154 L10.2140124,23.8679988 C4.43364791,23.0054874 0,18.0205107 0,12 C0,5.372583 5.372583,-7.10542736e-15 12,-7.10542736e-15 Z" id="path-1"></path>
    </defs>
    <g id="Small-Viewports" stroke="none" stroke-width="1" fill="none" fill-rule="evenodd">
        <g id="Artboard" transform="translate(-488.000000, -40.000000)">
            <g id="component/poi-pin" transform="translate(488.000000, 40.000000)">
                <mask id="mask-2" fill="white">
                    <use xlink:href="#path-1"></use>
                </mask>
                <use id="main-shape" fill="#BB3446" xlink:href="#path-1"></use>
                <g id="Group" mask="url(#mask-2)">
                    <g transform="translate(4.000000, 4.000000)" id="icon/education">
                        <path d="M11.0574399,2.17589344 C11.1479563,2.12809016 11.2568661,2.13121311 11.3446284,2.18413115 C11.4323661,2.237 11.4860464,2.33177049 11.4860464,2.43445902 L11.4860464,2.43445902 L11.4860464,8.37706557 C11.4860464,8.53847541 11.3552022,8.66931967 11.1937923,8.66931967 L11.1937923,8.66931967 L11.1784973,8.66931967 L11.7281366,12.7918361 C11.7680956,13.0927213 11.6764235,13.3967295 11.4766284,13.6250738 C11.2764153,13.8534918 10.9872842,13.9847049 10.683694,13.9847049 C10.3800792,13.9847049 10.0909727,13.8534918 9.89075956,13.6250738 C9.69096448,13.3967049 9.59929235,13.0926721 9.63925137,12.7918115 L9.63925137,12.7918115 L10.1888907,8.66929508 L10.1195956,8.66929508 C9.61419399,8.66929508 9.20439891,8.25952459 9.20439891,7.75417213 L9.20439891,7.75417213 L9.20439891,5.24848361 C9.20439891,3.95956557 9.91780874,2.77722131 11.0574399,2.17589344 Z M7.14846448,2 C7.37019399,2 7.54965301,2.17943443 7.54965301,2.40113934 L7.54965301,2.40113934 L7.54965301,6.02181967 C7.54965301,6.61690164 7.06739071,7.09913934 6.47233333,7.09913934 L6.47233333,7.09913934 L6.38339071,7.09913934 L7.0156776,12.7886885 C7.04939071,13.0930656 6.95186612,13.3974918 6.74774317,13.6259098 C6.54320219,13.8542787 6.25136612,13.9847295 5.94499727,13.9847295 C5.63862842,13.9847295 5.34676776,13.8542787 5.14225137,13.6259098 C4.93815301,13.3974918 4.84062842,13.0930656 4.87431694,12.7886885 L4.87431694,12.7886885 L5.50657923,7.09911475 L5.4176612,7.09911475 C4.82257923,7.09911475 4.34034153,6.61687705 4.34034153,6.02179508 L4.34034153,6.02179508 L4.34034153,2.40113934 C4.34034153,2.17943443 4.51975137,2 4.74150546,2 C4.96321038,2 5.14264481,2.17943443 5.1426694,2.40113934 L5.1426694,2.40113934 L5.1426694,4.6419918 L5.54383333,4.6419918 L5.54383333,2.40113934 C5.54383333,2.17943443 5.72324317,2 5.94497268,2 C6.16670219,2 6.34613661,2.17943443 6.34613661,2.40113934 L6.34613661,2.40113934 L6.34613661,4.6419918 L6.74730055,4.6419918 L6.74730055,2.40113934 C6.74730055,2.17943443 6.92673497,2 7.14846448,2 Z" id="dining" fill="#FFFFFF"></path>
                    </g>
                </g>
            </g>
        </g>
    </g>
</svg>