<svg xmlns="http://www.w3.org/2000/svg" xmlns:xlink="http://www.w3.org/1999/xlink" width="24" height="24" viewBox="0 0 24 24">
  <defs>
    <ellipse id="poi-pin-a" cx="12" cy="11.906" rx="12" ry="11.906"/>
  </defs>
  <g fill="none" fill-rule="evenodd">
    <mask id="poi-pin-b" fill="#fff">
      <use xlink:href="#poi-pin-a"/>
    </mask>
    <use fill="#E3854A" xlink:href="#poi-pin-a"/>
    <g mask="url(#poi-pin-b)">
      <path fill="#FFF" d="M8.06158773,11.4808454 C8.43808269,11.8578203 8.4357548,12.4642969 8.06158773,12.8384639 L7.21490605,13.6851456 C6.84385884,14.0571288 6.23397444,14.0618326 5.85728749,13.6851456 L2.31480781,10.1426659 C1.94066475,9.76828288 1.94066475,9.15919045 2.31480781,8.78504738 L3.16148949,7.9383657 C3.53565656,7.56417463 4.14213311,7.56187074 4.51910805,7.9383657 L8.06158773,11.4808454 Z M2.45752935,11.0652802 C2.37091727,10.9786681 2.22692379,10.9945794 2.16006282,11.0972227 C1.89446684,11.5048683 1.97637513,11.9962941 2.28072936,12.3006723 L3.69930515,13.7192481 C4.0010195,14.0209624 4.49208528,14.1077665 4.9026107,13.8400586 C5.00527805,13.7731016 5.02138132,13.6291562 4.93472124,13.5424721 L2.45752935,11.0652802 Z M8.64380138,6.04893121 C8.49380817,5.89917799 8.25069917,5.89917799 8.10070596,6.04893121 L6.04879882,8.10083835 C5.89880561,8.25083156 5.89880561,8.49394056 6.04879882,8.64393377 L7.35601966,9.95115461 C7.5055089,10.1006438 7.7486179,10.1011718 7.89911508,9.95115461 L9.95102222,7.89924747 C10.1010154,7.74925426 10.1010154,7.50614526 9.95102222,7.35615205 L8.64380138,6.04893121 Z M13.5427477,4.93437365 C13.6294317,5.02105773 13.7734492,5.00490646 13.8403822,4.90219111 C14.1078741,4.49156969 14.0200141,4.00038392 13.7190917,3.69943754 L12.3005159,2.28086174 C11.9969056,1.97746747 11.5057919,1.89385526 11.0976183,2.15969122 C10.994951,2.2265522 10.9789677,2.37056968 11.0656038,2.45720576 L13.5427477,4.93437365 Z M10.1425336,2.3149402 C9.7681505,1.94079713 9.15905806,1.94055714 8.784915,2.3149402 L7.93823331,3.16162188 C7.56406625,3.53576495 7.56173835,4.1422415 7.93823331,4.51924044 L11.480713,8.06172012 C11.8580479,8.43857506 12.4645725,8.4355032 12.8383316,8.06172012 L13.6850132,7.21503844 C14.0591563,6.84089537 14.0591563,6.23180293 13.6850132,5.85741988 L10.1425336,2.3149402 Z" transform="translate(4 4)"/>
    </g>
  </g>
</svg>
