<svg xmlns="http://www.w3.org/2000/svg" xmlns:xlink="http://www.w3.org/1999/xlink" width="24" height="25" viewBox="0 0 24 25">
  <defs>
    <ellipse id="poi-pin-a" cx="12" cy="11.906" rx="12" ry="11.906"/>
  </defs>
  <g fill="none" fill-rule="evenodd" transform="translate(0 .813)">
    <mask id="poi-pin-b" fill="#fff">
      <use xlink:href="#poi-pin-a"/>
    </mask>
    <use fill="#E2AD50" xlink:href="#poi-pin-a"/>
    <g mask="url(#poi-pin-b)">
      <path fill="#FFF" d="M2.787,7.62107022 L2.1535,11.4742698 C2.103,11.7803628 2.4325,12.0100566 2.705,11.8597386 L6,10.0529467 L9.295,11.8602347 C9.565,12.0090644 9.8975,11.7838355 9.8465,11.4747659 L9.213,7.62156632 L11.893,4.89599935 C12.1055,4.68019636 11.9835,4.31407542 11.6815,4.26843433 L7.9925,3.70933095 L6.339,0.214810793 C6.2155,-0.0461371912 5.784,-0.0461371912 5.6605,0.214810793 L4.0075,3.70883485 L0.3185,4.26793823 C0.0155,4.31407542 -0.1055,4.67970026 0.107,4.89550325 L2.787,7.62107022 Z" transform="translate(6 5.953)"/>
    </g>
  </g>
</svg>
