<svg xmlns="http://www.w3.org/2000/svg" xmlns:xlink="http://www.w3.org/1999/xlink" width="24" height="36" viewBox="0 0 24 36">
  <defs>
    <path id="poi-pin-a" d="M12,30 C13.6568542,30 15,31.3431458 15,33 C15,34.6568542 13.6568542,36 12,36 C10.3431458,36 9,34.6568542 9,33 C9,31.3431458 10.3431458,30 12,30 Z M12,-7.10542736e-15 C18.627417,-7.10542736e-15 24,5.372583 24,12 C24,17.6146117 20.1440269,22.3286127 14.935803,23.6382805 L12.5,27.3846154 L10.2140124,23.8679988 C4.43364791,23.0054874 0,18.0205107 0,12 C0,5.372583 5.372583,-7.10542736e-15 12,-7.10542736e-15 Z"/>
  </defs>
  <g fill="none" fill-rule="evenodd">
    <mask id="poi-pin-b" fill="#fff">
      <use xlink:href="#poi-pin-a"/>
    </mask>
    <use fill="#E2AD50" xlink:href="#poi-pin-a"/>
    <g mask="url(#poi-pin-b)">
      <path fill="#FFF" d="M2.787,7.681 L2.1535,11.5645 C2.103,11.873 2.4325,12.1045 2.705,11.953 L6,10.132 L9.295,11.9535 C9.565,12.1035 9.8975,11.8765 9.8465,11.565 L9.213,7.6815 L11.893,4.9345 C12.1055,4.717 11.9835,4.348 11.6815,4.302 L7.9925,3.7385 L6.339,0.2165 C6.2155,-0.0465 5.784,-0.0465 5.6605,0.2165 L4.0075,3.738 L0.3185,4.3015 C0.0155,4.348 -0.1055,4.7165 0.107,4.934 L2.787,7.681 Z" transform="translate(6 6)"/>
    </g>
  </g>
</svg>
