<?xml version="1.0" encoding="UTF-8"?>
<svg width="24px" height="36px" viewBox="0 0 24 36" version="1.1" xmlns="http://www.w3.org/2000/svg" xmlns:xlink="http://www.w3.org/1999/xlink">
    <title>component/poi pin</title>
    <defs>
        <path d="M12,30 C13.6568542,30 15,31.3431458 15,33 C15,34.6568542 13.6568542,36 12,36 C10.3431458,36 9,34.6568542 9,33 C9,31.3431458 10.3431458,30 12,30 Z M12,-7.10542736e-15 C18.627417,-7.10542736e-15 24,5.372583 24,12 C24,17.6146117 20.1440269,22.3286127 14.935803,23.6382805 L12.5,27.3846154 L10.2140124,23.8679988 C4.43364791,23.0054874 0,18.0205107 0,12 C0,5.372583 5.372583,-7.10542736e-15 12,-7.10542736e-15 Z" id="path-1"></path>
    </defs>
    <g id="Small-Viewports" stroke="none" stroke-width="1" fill="none" fill-rule="evenodd">
        <g id="Artboard" transform="translate(-232.000000, -40.000000)">
            <g id="component/poi-pin" transform="translate(232.000000, 40.000000)">
                <mask id="mask-2" fill="white">
                    <use xlink:href="#path-1"></use>
                </mask>
                <use id="main-shape" fill="#4E8A89" xlink:href="#path-1"></use>
                <g id="Group" mask="url(#mask-2)">
                    <g transform="translate(4.000000, 4.000000)" id="icon/education">
                        <g id="school-bus-front" transform="translate(2.000000, 1.666667)" fill="#FFFFFF">
                            <path d="M0.415590527,3.38027273 L0.831181054,3.38027273 L0.831181054,5.8654252 L0.415590527,5.8654252 C0.185848739,5.8654252 0,5.68101828 0,5.45129101 L0,3.79440693 C0,3.56658971 0.185848739,3.38027273 0.415590527,3.38027273 Z M11.4684064,3.38027273 L11.0524675,3.38027273 L11.0524675,5.8654252 L11.4684064,5.8654252 C11.6977998,5.8654252 11.8839969,5.68101828 11.8839969,5.45129101 L11.8839969,3.79440693 C11.8839969,3.56658971 11.6983224,3.38027273 11.4684064,3.38027273 Z M10.9278655,2.55217797 L10.9278655,10.007809 C10.9278655,10.4658745 10.5563422,10.8362511 10.0968587,10.8362511 L10.0968587,11.6646931 C10.0968587,12.1229322 9.72533537,12.4931352 9.2658518,12.4931352 L8.43467074,12.4931352 C7.97536134,12.4931352 7.60366387,12.122064 7.60366387,11.6646931 L7.60366387,10.8362511 L4.2801589,10.8362511 L4.2801589,11.6646931 C4.2801589,12.1229322 3.90846142,12.4931352 3.44915202,12.4931352 L2.61849351,12.4931352 C2.15900993,12.4931352 1.78748663,12.122064 1.78748663,11.6646931 L1.78748663,10.8362511 C1.32817723,10.8362511 0.956479674,10.4651799 0.956479674,10.007809 L0.956479674,2.55217797 C0.956131398,1.18006542 2.07296562,0.067025493 3.44915202,0.067025493 L8.4350191,0.067025493 C9.81137968,0.067025493 10.9278655,1.17971813 10.9278655,2.55217797 Z M4.2801589,1.72390957 L7.60401222,1.72390957 L7.60401222,0.895467532 L4.2801589,0.895467532 L4.2801589,1.72390957 Z M3.44915202,9.17971429 C3.44915202,8.72112795 3.07745455,8.35127225 2.61849351,8.35127225 C2.15918411,8.35127225 1.78748663,8.72164887 1.78748663,9.17971429 C1.78748663,9.63725878 2.15918411,10.0081563 2.61849351,10.0081563 C3.07728037,10.0079827 3.44915202,9.6369115 3.44915202,9.17971429 Z M10.0968587,9.17971429 C10.0968587,8.72112795 9.72533537,8.35127225 9.2658518,8.35127225 C8.80636822,8.35127225 8.43484492,8.72164887 8.43484492,9.17971429 C8.43484492,9.63725878 8.80689076,10.0081563 9.2658518,10.0081563 C9.72550955,10.0079827 10.0968587,9.6369115 10.0968587,9.17971429 Z M10.0968587,2.55217797 L1.78713827,2.55217797 L1.78713827,7.52265657 L10.0968587,7.52265657 L10.0968587,2.55217797 L10.0968587,2.55217797 Z" id="Shape"></path>
                        </g>
                    </g>
                </g>
            </g>
        </g>
    </g>
</svg>