<svg xmlns="http://www.w3.org/2000/svg" xmlns:xlink="http://www.w3.org/1999/xlink" width="24" height="25" viewBox="0 0 24 25">
  <defs>
    <ellipse id="poi-pin-a" cx="12" cy="11.906" rx="12" ry="11.906"/>
  </defs>
  <g fill="none" fill-rule="evenodd" transform="translate(0 .813)">
    <mask id="poi-pin-b" fill="#fff">
      <use xlink:href="#poi-pin-a"/>
    </mask>
    <use fill="#51893F" xlink:href="#poi-pin-a"/>
    <g mask="url(#poi-pin-b)">
      <path fill="#FFF" d="M6.9453125,12.4666303 L6.9453125,13.5363434 C6.9453125,13.7291475 6.78807031,13.8851629 6.59375,13.8851629 L6.59375,13.8851629 L5.1875,13.8851629 C4.99317969,13.8851629 4.8359375,13.7291475 4.8359375,13.5363434 L4.8359375,13.5363434 L4.8359375,12.4666303 L6.9453125,12.4666303 Z M11.1640625,12.4666303 L11.1640625,13.5363434 C11.1640625,13.7291475 11.0068203,13.8851629 10.8125,13.8851629 L10.8125,13.8851629 L9.40625,13.8851629 C9.21192969,13.8851629 9.0546875,13.7291475 9.0546875,13.5363434 L9.0546875,13.5363434 L9.0546875,12.4666303 L11.1640625,12.4666303 Z M5.5445,2.14534063 C5.67221094,1.93823487 6.01622656,1.93823487 6.1439375,2.14534063 L6.1439375,2.14534063 L8.29967188,5.65679016 C8.36628125,5.76443585 8.36902344,5.89933598 8.30689063,6.00935365 C8.24440625,6.11972013 8.12733594,6.18785621 7.99995313,6.18785621 L7.99995313,6.18785621 L7.438625,6.18785621 L8.94924219,8.43611409 C9.02098438,8.5430854 9.027875,8.68070632 8.96675,8.79414241 C8.905625,8.90757851 8.78649219,8.97843538 8.65671875,8.97843538 L8.65671875,8.97843538 L8.09539063,8.97843538 L9.60600781,11.2266933 C9.67775,11.3336413 9.68461719,11.4712855 9.62351563,11.5847216 C9.56241406,11.6981577 9.44328125,11.7690145 9.31350781,11.7690145 L9.31350781,11.7690145 L2.35151563,11.7690145 C2.22171875,11.7690145 2.10258594,11.6981577 2.04148438,11.5847216 C1.98038281,11.4712855 1.98722656,11.3336646 2.05899219,11.2266933 L2.05899219,11.2266933 L3.59304688,8.97843538 L3.03171875,8.97843538 C2.90192188,8.97843538 2.78278906,8.90757851 2.7216875,8.79414241 C2.66058594,8.68070632 2.66742969,8.5430854 2.73919531,8.43611409 L2.73919531,8.43611409 L4.2498125,6.18785621 L3.68848438,6.18785621 C3.56110156,6.18785621 3.44403125,6.11972013 3.38154688,6.00935365 C3.31941406,5.89933598 3.32215625,5.76443585 3.38876563,5.65679016 L3.38876563,5.65679016 Z M9.80965625,2.14536389 C9.93736719,1.93825813 10.2813828,1.93825813 10.4090938,2.14536389 L10.4090938,2.14536389 L12.5648281,5.65681341 C12.6314375,5.76445911 12.6341797,5.89935923 12.5720469,6.0093769 C12.5095625,6.11974339 12.3924922,6.18787946 12.2651094,6.18787946 L12.2651094,6.18787946 L11.7037813,6.18787946 L13.2143984,8.43613734 C13.2864922,8.54310865 13.2930313,8.68072957 13.2319063,8.79416567 C13.1707813,8.90760177 13.0516484,8.97845863 12.921875,8.97845863 L12.921875,8.97845863 L12.3605469,8.97845863 L13.9410078,11.22667 C14.01275,11.3336413 14.0196406,11.4712622 13.9585156,11.5846983 C13.8973906,11.6981344 13.7782578,11.7689913 13.6484844,11.7689913 L13.6484844,11.7689913 L10.3440313,11.7689913 C10.4551016,11.4607511 10.4240703,11.1179313 10.2374375,10.8397129 L10.2374375,10.8397129 L9.32213281,9.47747979 C9.44914063,9.38585654 9.55627344,9.2659324 9.63317188,9.1228699 C9.81685156,8.78256161 9.79660156,8.37107088 9.58064844,8.049157 L9.58064844,8.049157 L8.66501563,6.68624949 C8.78689063,6.59871905 8.89057813,6.48493414 8.96679688,6.35038283 C9.15321875,6.02028332 9.14499219,5.614583 8.94551563,5.29199474 L8.94551563,5.29199474 L8.41245313,4.42948041 Z" transform="translate(4 3.969)"/>
    </g>
  </g>
</svg>
