<svg xmlns="http://www.w3.org/2000/svg" xmlns:xlink="http://www.w3.org/1999/xlink" width="24" height="36" viewBox="0 0 24 36">
  <defs>
    <path id="poi-pin-a" d="M12,30 C13.6568542,30 15,31.3431458 15,33 C15,34.6568542 13.6568542,36 12,36 C10.3431458,36 9,34.6568542 9,33 C9,31.3431458 10.3431458,30 12,30 Z M12,-7.10542736e-15 C18.627417,-7.10542736e-15 24,5.372583 24,12 C24,17.6146117 20.1440269,22.3286127 14.935803,23.6382805 L12.5,27.3846154 L10.2140124,23.8679988 C4.43364791,23.0054874 0,18.0205107 0,12 C0,5.372583 5.372583,-7.10542736e-15 12,-7.10542736e-15 Z"/>
  </defs>
  <g fill="none" fill-rule="evenodd">
    <mask id="poi-pin-b" fill="#fff">
      <use xlink:href="#poi-pin-a"/>
    </mask>
    <use fill="#51893F" xlink:href="#poi-pin-a"/>
    <g mask="url(#poi-pin-b)">
      <path fill="#FFF" d="M6.9453125,12.5646641 L6.9453125,13.6427891 C6.9453125,13.8371094 6.78807031,13.9943516 6.59375,13.9943516 L6.59375,13.9943516 L5.1875,13.9943516 C4.99317969,13.9943516 4.8359375,13.8371094 4.8359375,13.6427891 L4.8359375,13.6427891 L4.8359375,12.5646641 L6.9453125,12.5646641 Z M11.1640625,12.5646641 L11.1640625,13.6427891 C11.1640625,13.8371094 11.0068203,13.9943516 10.8125,13.9943516 L10.8125,13.9943516 L9.40625,13.9943516 C9.21192969,13.9943516 9.0546875,13.8371094 9.0546875,13.6427891 L9.0546875,13.6427891 L9.0546875,12.5646641 L11.1640625,12.5646641 Z M5.5445,2.16221094 C5.67221094,1.95347656 6.01622656,1.95347656 6.1439375,2.16221094 L6.1439375,2.16221094 L8.29967188,5.70127344 C8.36628125,5.80976563 8.36902344,5.94572656 8.30689063,6.05660938 C8.24440625,6.16784375 8.12733594,6.23651563 7.99995313,6.23651563 L7.99995313,6.23651563 L7.438625,6.23651563 L8.94924219,8.50245313 C9.02098438,8.61026563 9.027875,8.74896875 8.96675,8.86329688 C8.905625,8.977625 8.78649219,9.04903906 8.65671875,9.04903906 L8.65671875,9.04903906 L8.09539063,9.04903906 L9.60600781,11.3149766 C9.67775,11.4227656 9.68461719,11.5614922 9.62351563,11.6758203 C9.56241406,11.7901484 9.44328125,11.8615625 9.31350781,11.8615625 L9.31350781,11.8615625 L2.35151563,11.8615625 C2.22171875,11.8615625 2.10258594,11.7901484 2.04148438,11.6758203 C1.98038281,11.5614922 1.98722656,11.4227891 2.05899219,11.3149766 L2.05899219,11.3149766 L3.59304688,9.04903906 L3.03171875,9.04903906 C2.90192188,9.04903906 2.78278906,8.977625 2.7216875,8.86329688 C2.66058594,8.74896875 2.66742969,8.61026563 2.73919531,8.50245313 L2.73919531,8.50245313 L4.2498125,6.23651563 L3.68848438,6.23651563 C3.56110156,6.23651563 3.44403125,6.16784375 3.38154688,6.05660938 C3.31941406,5.94572656 3.32215625,5.80976563 3.38876563,5.70127344 L3.38876563,5.70127344 Z M9.80965625,2.16223438 C9.93736719,1.9535 10.2813828,1.9535 10.4090938,2.16223438 L10.4090938,2.16223438 L12.5648281,5.70129688 C12.6314375,5.80978906 12.6341797,5.94575 12.5720469,6.05663281 C12.5095625,6.16786719 12.3924922,6.23653906 12.2651094,6.23653906 L12.2651094,6.23653906 L11.7037813,6.23653906 L13.2143984,8.50247656 C13.2864922,8.61028906 13.2930313,8.74899219 13.2319063,8.86332031 C13.1707813,8.97764844 13.0516484,9.0490625 12.921875,9.0490625 L12.921875,9.0490625 L12.3605469,9.0490625 L13.9410078,11.3149531 C14.01275,11.4227656 14.0196406,11.5614688 13.9585156,11.6757969 C13.8973906,11.790125 13.7782578,11.8615391 13.6484844,11.8615391 L13.6484844,11.8615391 L10.3440313,11.8615391 C10.4551016,11.550875 10.4240703,11.2053594 10.2374375,10.9249531 L10.2374375,10.9249531 L9.32213281,9.55200781 C9.44914063,9.45966406 9.55627344,9.33879688 9.63317188,9.19460938 C9.81685156,8.851625 9.79660156,8.43689844 9.58064844,8.11245313 L9.58064844,8.11245313 L8.66501563,6.73882813 C8.78689063,6.65060938 8.89057813,6.53592969 8.96679688,6.40032031 C9.15321875,6.067625 9.14499219,5.65873438 8.94551563,5.33360938 L8.94551563,5.33360938 L8.41245313,4.4643125 Z" transform="translate(4 4)"/>
    </g>
  </g>
</svg>
