<?xml version="1.0" encoding="UTF-8"?>
<svg width="24px" height="36px" viewBox="0 0 24 36" version="1.1" xmlns="http://www.w3.org/2000/svg" xmlns:xlink="http://www.w3.org/1999/xlink">
    <title>component/poi pin</title>
    <defs>
        <path d="M12,30 C13.6568542,30 15,31.3431458 15,33 C15,34.6568542 13.6568542,36 12,36 C10.3431458,36 9,34.6568542 9,33 C9,31.3431458 10.3431458,30 12,30 Z M12,-7.10542736e-15 C18.627417,-7.10542736e-15 24,5.372583 24,12 C24,17.6146117 20.1440269,22.3286127 14.935803,23.6382805 L12.5,27.3846154 L10.2140124,23.8679988 C4.43364791,23.0054874 0,18.0205107 0,12 C0,5.372583 5.372583,-7.10542736e-15 12,-7.10542736e-15 Z" id="path-1"></path>
        <filter id="filter-3">
            <feColorMatrix in="SourceGraphic" type="matrix" values="0 0 0 0 1.000000 0 0 0 0 1.000000 0 0 0 0 1.000000 0 0 0 1.000000 0"></feColorMatrix>
        </filter>
    </defs>
    <g id="Small-Viewports" stroke="none" stroke-width="1" fill="none" fill-rule="evenodd">
        <g id="Artboard" transform="translate(-168.000000, -40.000000)">
            <g id="component/poi-pin" transform="translate(168.000000, 40.000000)">
                <mask id="mask-2" fill="white">
                    <use xlink:href="#path-1"></use>
                </mask>
                <use id="main-shape" fill="#0070CD" xlink:href="#path-1"></use>
                <g id="Group" mask="url(#mask-2)">
                    <g transform="translate(4.000000, 4.000000)" id="briefcase-(1)" filter="url(#filter-3)">
                        <g transform="translate(1.666667, 2.333333)">
                            <rect id="Rectangle" fill="#000000" fill-rule="nonzero" x="5.78188802" y="6.21411328" width="1.10284115" height="1"></rect>
                            <path d="M10.5236745,6.40228255 C9.57835026,6.65445312 8.6055651,6.82107422 7.62694141,6.89922656 L7.62694141,7.68901302 L5.03972526,7.68901302 L5.03972526,6.89922656 C4.06110156,6.82107422 3.08831641,6.65445312 2.14299219,6.40228255 L0.448404948,5.95021615 L0.448404948,11.0253437 L12.2182617,11.0253437 L12.2182617,5.95021615 L10.5236745,6.40228255 Z" id="Path" fill="#000000" fill-rule="nonzero"></path>
                            <path d="M8.47758724,1.94898437 L8.47758724,0.00853515625 L4.18907943,0.00853515625 L4.18907943,1.94898437 L0,1.94898437 L0,5.06248568 L2.33427865,5.68518099 C3.21738281,5.92072656 4.1256224,6.07834245 5.03970052,6.15483724 L5.03970052,5.47195052 L7.62691667,5.47195052 L7.62691667,6.15483724 C8.54099479,6.07831771 9.44925911,5.92072656 10.3323385,5.68518099 L12.6666667,5.06248568 L12.6666667,1.94898437 L8.47758724,1.94898437 Z M7.73539974,1.94898437 L4.93126693,1.94898437 L4.93126693,0.750722656 L7.73539974,0.750722656 L7.73539974,1.94898437 Z" id="Shape" fill="#000000" fill-rule="nonzero"></path>
                        </g>
                    </g>
                </g>
            </g>
        </g>
    </g>
</svg>