<?xml version="1.0" encoding="utf-8"?>
<!-- Generator: Adobe Illustrator 25.2.1, SVG Export Plug-In . SVG Version: 6.00 Build 0)  -->
<svg version="1.1" id="Layer_1" xmlns="http://www.w3.org/2000/svg" xmlns:xlink="http://www.w3.org/1999/xlink" x="0px" y="0px"
	 viewBox="0 0 24 25" style="enable-background:new 0 0 24 25;" xml:space="preserve">
<style type="text/css">
	.st0{fill:#004876;}
	.st1{fill:#0070CD;}
	.st2{fill:#FFFFFF;}
</style>
<g>
	<path class="st0" d="M12,0.8C5.4,0.8,0,6.1,0,12.7c0,6.6,5.4,11.9,12,11.9s12-5.3,12-11.9C24,6.1,18.6,0.8,12,0.8z M12,22
		c-5.2,0-9.5-4.2-9.5-9.5S6.8,3,12,3c5.2,0,9.5,4.2,9.5,9.5S17.2,22,12,22z"/>
	<polygon class="st1" points="8.2,16.3 15.6,16.3 15.6,11.3 11.8,7.8 8.2,11.2 	"/>
	<path class="st1" d="M12,3c-5.2,0-9.5,4.2-9.5,9.5S6.8,22,12,22c5.2,0,9.5-4.2,9.5-9.5S17.2,3,12,3z M17.2,12.8l-0.9-0.9l0,5.1
		l-0.7,0v0H8.2v0l-0.7,0l0-5.1l-1,0.9l-0.5-0.5l5.2-5l0,0l0.5-0.5l5.9,5.5L17.2,12.8z"/>
	<path class="st2" d="M11.3,7.3L11.3,7.3l-5.2,5.1l0.5,0.5l1-0.9l0,5.1l0.7,0v0h7.4v0l0.7,0l0-5.1l0.9,0.9l0.5-0.5l-5.9-5.5
		L11.3,7.3z M15.6,11.3l0,5H8.2l0-5l3.6-3.5L15.6,11.3z"/>
</g>
</svg>
