<?xml version="1.0" encoding="utf-8"?>
<!-- Generator: Adobe Illustrator 25.2.1, SVG Export Plug-In . SVG Version: 6.00 Build 0)  -->
<svg version="1.1" id="Layer_1" xmlns="http://www.w3.org/2000/svg" xmlns:xlink="http://www.w3.org/1999/xlink" x="0px" y="0px"
	 viewBox="0 0 24 36" style="enable-background:new 0 0 24 36;" xml:space="preserve">
<style type="text/css">
	.st0{fill:#004876;}
	.st1{fill:none;}
	.st2{fill:#0070CD;}
	.st3{fill:#FFFFFF;}
</style>
<g>
	<circle class="st0" cx="12" cy="33" r="3"/>
	<g>
		<path class="st1" d="M20.3,9c-0.9-2.6-3-4.6-5.7-5.4C17.2,4.4,19.3,6.4,20.3,9z"/>
		<path class="st1" d="M3.2,12c0-1.2,0.2-2.4,0.7-3.4C3.5,9.6,3.2,10.8,3.2,12c0,4.9,4,8.8,8.8,8.8c0.6,0,1.2-0.1,1.8-0.2
			c-0.6,0.1-1.2,0.2-1.8,0.2C7.1,20.8,3.2,16.8,3.2,12z"/>
		<path class="st0" d="M12,0C5.4,0,0,5.4,0,12c0,6,4.4,11,10.2,11.8l2.3,3.5l2.4-3.7c5.2-1.3,9.1-6,9.1-11.6C24,5.4,18.6,0,12,0z
			 M13.8,20.6c-0.6,0.1-1.2,0.2-1.8,0.2c-4.8,0-8.8-3.9-8.8-8.8c0-1.2,0.3-2.4,0.7-3.4C3.9,8.5,4,8.4,4,8.3C4.1,8.1,4.2,8,4.3,7.8
			c0.1-0.1,0.2-0.3,0.2-0.4c0.1-0.1,0.1-0.2,0.2-0.3C4.8,7,4.9,6.8,5,6.7c0.1-0.1,0.2-0.2,0.2-0.3c0.1-0.1,0.2-0.2,0.3-0.3
			C5.6,6,5.7,5.9,5.8,5.8C5.9,5.7,6,5.6,6,5.5c0.1-0.1,0.2-0.2,0.4-0.3C6.5,5.1,6.6,5.1,6.7,5S7,4.8,7.1,4.7
			c0.1-0.1,0.2-0.1,0.3-0.2c0.2-0.1,0.3-0.2,0.5-0.3C8,4.1,8.2,4.1,8.3,4c0,0,0.2-0.1,0.3-0.1c0.2-0.1,0.5-0.2,0.7-0.3
			c0,0,0,0,0.1,0c0.8-0.3,1.7-0.4,2.6-0.4s1.8,0.1,2.6,0.4c2.6,0.8,4.7,2.8,5.7,5.4c0.3,0.9,0.5,1.9,0.5,3
			C20.8,16.3,17.8,19.8,13.8,20.6z"/>
		<ellipse transform="matrix(0.7071 -0.7071 0.7071 0.7071 -4.8906 12.0097)" class="st2" cx="12.1" cy="11.9" rx="9.5" ry="9.5"/>
		<path class="st3" d="M11.3,6.7L11.3,6.7l-5.2,5.1l0.5,0.5l1-0.9l0,5.1l0.7,0v0h7.4l0,0l0.7,0l0-5.1l0.9,0.9l0.5-0.5l-5.9-5.5
			L11.3,6.7z M15.6,10.7l0,5H8.3l0-5l3.6-3.5L15.6,10.7z"/>
	</g>
</g>
</svg>
