<?xml version="1.0" encoding="utf-8"?>
<!-- Generator: Adobe Illustrator 25.2.1, SVG Export Plug-In . SVG Version: 6.00 Build 0)  -->
<svg version="1.1" id="Layer_1" xmlns="http://www.w3.org/2000/svg" xmlns:xlink="http://www.w3.org/1999/xlink" x="0px" y="0px"
	 viewBox="0 0 62 78" style="enable-background:new 0 0 62 78;" xml:space="preserve">
<style type="text/css">
	.st0{filter:url(#community-icon-a);}
	.st1{fill-rule:evenodd;clip-rule:evenodd;}
	.st2{filter:url(#community-icon-c);}
	.st3{fill-rule:evenodd;clip-rule:evenodd;fill:#004876;}
	.st4{fill:#004876;}
	.st5{fill:#0070CD;}
	.st6{fill:#FFFFFF;}
</style>
<filter  filterUnits="objectBoundingBox" height="483.3%" id="community-icon-c" width="483.3%" x="-191.7%" y="-158.3%">
	<feOffset  dy="2" in="SourceAlpha" result="shadowOffsetOuter1"></feOffset>
	<feGaussianBlur  in="shadowOffsetOuter1" result="shadowBlurOuter1" stdDeviation="3.5"></feGaussianBlur>
	<feColorMatrix  in="shadowBlurOuter1" values="0 0 0 0 0   0 0 0 0 0   0 0 0 0 0  0 0 0 0.239100743 0"></feColorMatrix>
</filter>
<filter  filterUnits="objectBoundingBox" height="141.8%" id="community-icon-a" width="147.9%" x="-24%" y="-17.3%">
	<feOffset  dy="2" in="SourceAlpha" result="shadowOffsetOuter1"></feOffset>
	<feGaussianBlur  in="shadowOffsetOuter1" result="shadowBlurOuter1" stdDeviation="3.5"></feGaussianBlur>
	<feColorMatrix  in="shadowBlurOuter1" values="0 0 0 0 0   0 0 0 0 0   0 0 0 0 0  0 0 0 0.24 0"></feColorMatrix>
</filter>
<g transform="translate(7 5)">
	<g class="st0">
		<path id="community-icon-b_1_" class="st1" d="M24,0c13.3,0,24,10.7,24,24c0,11.4-7.9,20.9-18.5,23.4l-5,7.6l-4.8-7.4
			C8.5,45.6,0,35.8,0,24C0,10.7,10.7,0,24,0z"/>
	</g>
	<g class="st2">
		<path id="community-icon-d_2_" class="st1" d="M24,64c1.7,0,3-1.3,3-3s-1.3-3-3-3s-3,1.3-3,3S22.3,64,24,64z"/>
	</g>
	<g>
		<path id="community-icon-d_1_" class="st3" d="M24,64c1.7,0,3-1.3,3-3s-1.3-3-3-3s-3,1.3-3,3S22.3,64,24,64z"/>
	</g>
	<g>
		<path class="st4" d="M24,0C10.7,0,0,10.7,0,24c0,11.8,8.5,21.6,19.7,23.6l4.8,7.4l5-7.6C40.1,44.9,48,35.4,48,24
			C48,10.7,37.3,0,24,0z M23.9,41.7c-9.7,0-17.6-7.9-17.6-17.6S14.2,6.6,23.9,6.6c9.7,0,17.6,7.9,17.6,17.6S33.6,41.7,23.9,41.7z"/>
		<path class="st5" d="M23.9,6.6c-9.7,0-17.6,7.9-17.6,17.6s7.9,17.6,17.6,17.6c9.7,0,17.6-7.9,17.6-17.6S33.6,6.6,23.9,6.6z
			 M33.6,24.6L31.9,23l0,9.4l-1.3,0l0,0H16.9v0l-1.3,0l0-9.4l-1.8,1.8l-0.9-0.9l9.7-9.4l0,0l0.9-1l11,10.2L33.6,24.6z"/>
		<polygon class="st5" points="16.9,31.1 30.6,31.1 30.6,21.8 23.5,15.4 16.9,21.8 		"/>
		<path class="st6" d="M22.6,14.4L22.6,14.4l-9.7,9.4l0.9,0.9l1.8-1.8l0,9.4l1.3,0v0h13.7l0,0l1.3,0l0-9.4l1.7,1.6l0.9-1l-11-10.2
			L22.6,14.4z M30.6,21.8l0,9.3H16.9l0-9.4l6.7-6.4L30.6,21.8z"/>
	</g>
</g>
</svg>
