<svg xmlns="http://www.w3.org/2000/svg" xmlns:xlink="http://www.w3.org/1999/xlink" width="15" height="15" viewBox="0 0 15 15">
  <defs>
    <path id="filter-a" d="M375.235227,46.5137064 C375.051823,45.3544402 374.042876,44.5 372.857386,44.5 C371.671896,44.5 370.662949,45.3544402 370.479545,46.5137064 L369,46.5137064 L369,47.4585118 L370.523864,47.4585118 C370.793804,48.5162594 371.755168,49.2573408 372.857386,49.2573408 C373.959604,49.2573408 374.920969,48.5162594 375.190909,47.4585118 L384,47.4585118 L384,46.5137064 L375.235227,46.5137064 Z M372.848864,48.3155853 C372.051008,48.3137228 371.405566,47.6723518 371.406818,46.8826357 C371.408074,46.0929196 372.055548,45.4535596 372.853406,45.4541785 C373.651264,45.4547984 374.297727,46.0951629 374.297727,46.8848799 C374.292119,47.6697666 373.648678,48.3036308 372.855682,48.3054624 L372.848864,48.3155853 Z M375.235227,55.7390567 C375.051823,54.5797905 374.042876,53.7253503 372.857386,53.7253503 C371.671896,53.7253503 370.662949,54.5797905 370.479545,55.7390567 L369,55.7390567 L369,56.6906107 L370.523864,56.6906107 C370.788575,57.753249 371.75164,58.5 372.857386,58.5 C373.963132,58.5 374.926198,57.753249 375.190909,56.6906107 L384,56.6906107 L384,55.7323081 L375.235227,55.7390567 Z M372.848864,57.5409356 C372.048678,57.5409356 371.4,56.8988763 371.4,56.1068559 C371.4,55.3148356 372.048678,54.6727762 372.848864,54.6727762 C373.649049,54.6727762 374.297727,55.3148356 374.297727,56.1068559 C374.293995,56.893614 373.650551,57.5304932 372.855682,57.534187 L372.848864,57.5409356 Z M382.636364,50.9576663 C382.467859,49.7812573 381.450422,48.9069057 380.25,48.9069057 C379.049578,48.9069057 378.032141,49.7812573 377.863636,50.9576663 L369,50.9576663 L369,51.9125946 L377.914773,51.9125946 C378.182235,52.9736208 379.145173,53.7181439 380.25,53.7181439 C381.354827,53.7181439 382.317765,52.9736208 382.585227,51.9125946 L384,51.9125946 L384,50.9576663 L382.636364,50.9576663 Z M380.25,52.7595452 C379.451697,52.7595452 378.804545,52.1189966 378.804545,51.3288398 C378.804545,50.5386831 379.451697,49.8981344 380.25,49.8981344 C381.048303,49.8981344 381.695455,50.5386831 381.695455,51.3288398 C381.695455,52.1189966 381.048303,52.7595452 380.25,52.7595452 Z"/>
  </defs>
  <use fill="#FFF" transform="translate(-369 -44)" xlink:href="#filter-a"/>
</svg>
