<?xml version="1.0" encoding="UTF-8"?>
<svg width="36px" height="41px" viewBox="0 0 36 41" version="1.1" xmlns="http://www.w3.org/2000/svg" xmlns:xlink="http://www.w3.org/1999/xlink">
    <title>Group</title>
    <g id="Symbols" stroke="none" stroke-width="1" fill="none" fill-rule="evenodd">
        <g id="Group">
            <g id="Group-3-Copy-5" fill="#00828A">
                <circle id="Oval" cx="18" cy="18" r="18"></circle>
            </g>
            <polygon id="Triangle" fill="#00828A" transform="translate(18.000000, 30.000000) scale(1, -1) translate(-18.000000, -30.000000) " points="18 19 29 41 7 41"></polygon>
            <g id="icons/building/home-type" transform="translate(9.680000, 9.520000)" fill="#FFFFFF">
                <path d="M7.99863314,1.64127004 C8.12751266,1.51914346 8.32243794,1.51914346 8.45131746,1.64127004 L8.45131746,1.64127004 L16.6856452,9.40115447 C16.8247992,9.53335884 16.8388691,9.75908438 16.7173331,9.90952761 C16.6573512,9.98084154 16.5730589,10.0239505 16.4830434,10.0293487 C16.393028,10.0347468 16.3046824,10.0019907 16.2374877,9.93830345 L16.2374877,9.93830345 L14.6712,8.46593972 L14.6712,15.180302 C14.6687619,15.3778779 14.5181755,15.537417 14.3316867,15.54 L14.3316867,15.54 L2.47588446,15.54 C2.2893957,15.537417 2.1388093,15.3778779 2.13637122,15.180302 L2.13637122,15.180302 L2.13637122,8.69135045 L0.57913717,10.2932055 C0.516458781,10.3586431 0.431734074,10.3948931 0.343741325,10.3939209 C0.251603463,10.3933152 0.163545292,10.3535791 0.0992917935,10.2836135 C-0.0330972645,10.143179 -0.0330972645,9.91567488 0.0992917935,9.77524037 L0.0992917935,9.77524037 Z M2.80634401,14.288251 L2.80634401,14.820604 L3.51705839,14.820604 L2.80634401,14.288251 Z M8.23855583,2.39903378 L3.65739053,7.0799035 L3.90184006,7.26215048 C3.94080988,7.29311547 3.9567051,7.34702549 3.94130093,7.39598544 C3.92589676,7.44494538 3.88264969,7.47796927 3.83393742,7.47796927 C3.8133254,7.48494643 3.79117362,7.48494643 3.77056161,7.47796927 L3.77056161,7.47796927 L3.49442418,7.27174242 L3.04173986,7.75133973 L3.86562532,8.34124442 C3.89107327,8.35884683 3.90876931,8.38655333 3.91472958,8.41812641 C3.92068985,8.44969949 3.91441339,8.48248553 3.89731322,8.50910348 C3.87500161,8.54068477 3.83945483,8.55861815 3.80224951,8.55706321 C3.7816375,8.56404038 3.75948572,8.56404038 3.73887371,8.55706321 L3.73887371,8.55706321 L2.87877351,7.91919879 L2.80634401,7.99113839 L2.80634401,8.7009424 C2.83120856,8.69141847 2.8584358,8.69141847 2.88330035,8.7009424 L2.88330035,8.7009424 L3.8429911,9.41554239 C3.86771305,9.43389587 3.88448932,9.46195283 3.8895899,9.49347513 C3.89469049,9.52499743 3.88769261,9.55737225 3.87015216,9.58340145 C3.85030285,9.61603848 3.816261,9.63587461 3.7796153,9.63615715 C3.75536432,9.63474061 3.73191566,9.6264597 3.71171265,9.61217728 L3.71171265,9.61217728 L2.80634401,8.93594508 L2.80634401,9.75605648 C2.82435805,9.75330179 2.8426521,9.75330179 2.86066613,9.75605648 L2.86066613,9.75605648 L3.8429911,10.4706565 C3.86771305,10.4890099 3.88448932,10.5170669 3.8895899,10.5485892 C3.89469049,10.5801115 3.88769261,10.6124863 3.87015216,10.6385155 C3.84831534,10.6712733 3.8129401,10.6909049 3.77508845,10.6912712 C3.75210006,10.6905858 3.7299099,10.6821896 3.71171265,10.6672914 L3.71171265,10.6672914 L2.80634401,10.010243 L2.80634401,10.8111706 L2.84255876,10.8111706 L3.80677636,11.5113826 C3.8592865,11.5429092 3.87920427,11.6125455 3.85204479,11.6696497 C3.83281209,11.7029789 3.79837513,11.7230452 3.76150793,11.7224054 C3.74085213,11.7290784 3.71878792,11.7290784 3.69813212,11.7224054 L3.69813212,11.7224054 L2.82445139,11.079745 L2.82445139,11.8710806 L3.78866898,12.5664967 C3.81310035,12.5839537 3.82979031,12.6111762 3.83491151,12.6419217 C3.84003271,12.6726671 3.83314579,12.7042977 3.81583004,12.7295598 C3.79493973,12.7609898 3.76153423,12.7804552 3.72529318,12.7823155 C3.7030802,12.7888582 3.67960351,12.7888582 3.65739053,12.7823155 L3.65739053,12.7823155 L2.80634401,12.149247 L2.80634401,12.9501745 L3.76603477,13.6216108 C3.79148272,13.6392132 3.80917876,13.6669197 3.81513903,13.6984928 C3.8210993,13.7300658 3.81482284,13.7628519 3.79772267,13.7894698 C3.77541106,13.8210511 3.73986428,13.8389845 3.70265896,13.8374296 C3.68204695,13.8444067 3.65989517,13.8444067 3.63928316,13.8374296 L3.63928316,13.8374296 L2.80634401,13.218749 L2.80634401,13.9956967 L3.7479274,14.6959087 C3.78439269,14.7246454 3.79905178,14.7751199 3.78414214,14.820604 L3.78414214,14.820604 L13.9921735,14.820604 L13.9921735,7.81848336 L8.23855583,2.39903378 Z M8.09822369,0.0298230872 C8.14094648,-0.00994102908 8.20488672,-0.00994102908 8.24760952,0.0298230872 L8.24760952,0.0298230872 L16.4819373,7.78011557 C16.5221942,7.82610334 16.5221942,7.89719089 16.4819373,7.94317865 C16.437741,7.98364186 16.3722209,7.98364186 16.3280246,7.94317865 L16.3280246,7.94317865 L8.17970687,0.269621741 L0.357321855,8.32206053 C0.335967456,8.34210873 0.308853016,8.35393727 0.280365521,8.35563234 C0.251929406,8.351496 0.226039106,8.33606689 0.20793603,8.31246858 C0.187746716,8.29169678 0.176354148,8.26315084 0.176354148,8.23333503 C0.176354148,8.20351921 0.187746716,8.17497327 0.20793603,8.15420147 L0.20793603,8.15420147 Z" id="icon-home-type"></path>
            </g>
        </g>
    </g>
</svg>