<?xml version="1.0" encoding="UTF-8"?>
<svg width="20px" height="15px" viewBox="0 0 20 15" version="1.1" xmlns="http://www.w3.org/2000/svg" xmlns:xlink="http://www.w3.org/1999/xlink">
    <!-- Generator: Sketch 63.1 (92452) - https://sketch.com -->
    <title>Fill 54</title>
    <desc>Created with Sketch.</desc>
    <g id="Toll-Brothers-Dot-Com-Library" stroke="none" stroke-width="1" fill="none" fill-rule="evenodd">
        <g id="advantage" transform="translate(-1313.000000, -1069.000000)" fill="#004876">
            <path d="M1314.97866,1081.71429 L1331.24355,1081.71429 L1331.66927,1081.28571 L1314.55436,1081.28571 L1314.97866,1081.71429 Z M1323.04039,1073.28571 C1327.2834,1073.28571 1330.9621,1076.71429 1331.10212,1081.14286 L1316.393,1081.14286 C1316.53585,1077.57143 1319.50454,1074.71429 1323.04039,1074.71429 L1323.04039,1074 C1319.08024,1074 1315.82868,1077.14286 1315.68583,1081.14286 L1314.97866,1081.14286 C1315.26153,1076.71429 1318.79737,1073.28571 1323.04039,1073.28571 L1323.04039,1073.28571 Z M1323.32326,1071.28571 L1323.32326,1072.71429 L1323.04039,1072.71429 L1322.75894,1072.71429 L1322.75894,1071.28571 L1323.32326,1071.28571 Z M1332.80074,1081.42857 L1332.37644,1081.42857 L1331.80929,1081.42857 C1331.80929,1077 1328.41488,1073.28571 1324.03043,1072.71429 L1324.03043,1071.28571 L1324.87903,1071.28571 C1325.5862,1071.28571 1326.01191,1070.71429 1326.01191,1070.14286 C1326.01191,1069.57143 1325.44476,1069 1324.87903,1069 L1321.20175,1069 C1320.49458,1069 1320.07169,1069.57143 1320.07169,1070.14286 C1320.07169,1070.71429 1320.63601,1071.28571 1321.20175,1071.28571 L1322.05035,1071.28571 L1322.05035,1072.71429 C1317.6659,1073.28571 1314.41434,1077 1314.27149,1081.42857 L1313.70717,1081.42857 L1313.28287,1081.42857 C1313.14002,1081.42857 1313,1081.57143 1313,1081.71429 L1313,1083.71429 C1313,1083.85714 1313.14002,1084 1313.28287,1084 L1332.65789,1084 C1332.80074,1084 1332.94076,1083.85714 1332.94076,1083.71429 L1332.94076,1081.71429 C1333.08361,1081.57143 1332.94076,1081.42857 1332.80074,1081.42857 L1332.80074,1081.42857 Z" id="Fill-54"></path>
        </g>
    </g>
</svg>