<?xml version="1.0" encoding="UTF-8"?>
<svg width="21px" height="21px" viewBox="0 0 21 21" version="1.1" xmlns="http://www.w3.org/2000/svg" xmlns:xlink="http://www.w3.org/1999/xlink">
    <g stroke="none" stroke-width="1" fill="none" fill-rule="evenodd">
        <g id="advantage" transform="translate(-772.000000, -1064.000000)" fill="#004876">
            <g id="Group-4" transform="translate(772.000000, 1064.000000)">
                <path d="M9.322848,4.27536 C9.322848,4.79376 8.902368,5.21424 8.383968,5.21424 C7.865568,5.21424 7.446528,4.79376 7.446528,4.27536 C7.446528,3.75696 7.865568,3.33792 8.383968,3.33792 C8.902368,3.33792 9.322848,3.75696 9.322848,4.27536 L9.322848,4.27536 Z M7.711488,1.34064 C7.711488,0.97056 8.012448,0.67104 8.382528,0.67104 C8.752608,0.67104 9.053568,0.97056 9.053568,1.34064 L9.053568,2.11248 C8.615808,1.98 8.149248,1.98 7.711488,2.11248 L7.711488,1.34064 Z M8.718048,9.70416 L8.718048,9.3888 C8.718048,9.20304 8.568288,9.05328 8.382528,9.05328 C8.196768,9.05328 8.047008,9.20304 8.047008,9.3888 L8.047008,9.70416 C7.852608,9.6912 7.658208,9.6696 7.465248,9.63648 L8.252928,6.70032 C8.296128,6.70176 8.337888,6.70608 8.382528,6.70608 C8.425728,6.70608 8.468928,6.70176 8.512128,6.70032 L9.299808,9.63648 C9.106848,9.6696 8.912448,9.6912 8.718048,9.70416 L8.718048,9.70416 Z M4.245408,13.8816 L4.242528,13.88016 C4.218048,13.9752 4.209408,14.07024 4.212288,14.16528 C4.212288,14.17248 4.210848,14.17968 4.210848,14.18832 C4.210848,14.18976 4.212288,14.1912 4.212288,14.1912 C4.225248,14.48208 4.366368,14.75712 4.602528,14.94 C4.606848,14.94 4.609728,14.93856 4.612608,14.93856 C4.624128,14.9472 4.634208,14.95584 4.644288,14.96448 L4.367808,15.99552 C4.320288,16.17552 4.426848,16.3584 4.605408,16.40736 C4.634208,16.41456 4.663008,16.41888 4.691808,16.41888 C4.844448,16.41888 4.976928,16.3152 5.015808,16.16976 L5.272128,15.21648 C5.272128,15.21792 5.273568,15.21936 5.275008,15.2208 L5.295168,15.14736 C5.721408,15.12144 6.079968,14.82336 6.185088,14.41008 L7.288128,10.29312 C7.538688,10.3392 7.793568,10.36944 8.047008,10.38528 L8.047008,10.72944 C8.047008,10.91376 8.196768,11.06496 8.382528,11.06496 C8.568288,11.06496 8.718048,10.91376 8.718048,10.72944 L8.718048,10.38528 C8.971488,10.36944 9.224928,10.34064 9.475488,10.29456 L10.579968,14.40864 C10.683648,14.82192 11.043648,15.12 11.469888,15.14592 L11.746368,16.18128 C11.785248,16.32816 11.919168,16.42896 12.070368,16.42896 C12.100608,16.42896 12.129408,16.42608 12.158208,16.41888 C12.336768,16.36992 12.443328,16.1856 12.394368,16.00704 L12.117888,14.976 C12.466368,14.73408 12.627648,14.30208 12.521088,13.89168 L10.319328,5.6808 C11.047968,4.61952 10.781568,3.16944 9.723168,2.43504 L9.723168,1.34064 C9.723168,0.60048 9.122688,9.9475983e-14 8.382528,9.9475983e-14 C7.642368,9.9475983e-14 7.041888,0.60048 7.041888,1.34064 L7.041888,2.43504 C5.983488,3.16944 5.717088,4.61952 6.444288,5.6808 L4.245408,13.8816 Z" id="Fill-58"></path>
                <path d="M19.4472,16.129296 C18.54288,15.203376 17.05824,15.186096 16.13232,16.091856 L16.09488,16.129296 L16.09488,4.358736 C16.09488,3.432816 16.84512,2.682576 17.77104,2.682576 C18.69696,2.682576 19.4472,3.432816 19.4472,4.358736 L19.4472,16.129296 Z M17.77104,2.011536 C16.60464,2.012976 15.6168,2.869776 15.4512,4.023216 L11.40048,4.023216 L11.40048,4.694256 L15.42384,4.694256 L15.42384,17.770896 C15.42384,17.956656 15.5736,18.106416 15.75936,18.106416 C15.94368,18.106416 16.09488,17.956656 16.09488,17.770896 C16.09488,16.844976 16.84512,16.094736 17.77104,16.094736 C18.69696,16.094736 19.4472,16.844976 19.4472,17.770896 L19.4472,17.841456 C19.44576,18.727056 18.7272,19.445616 17.8416,19.447056 L0.6696,19.447056 L0.6696,4.694256 L5.36544,4.694256 L5.36544,4.023216 L-1.11910481e-13,4.023216 L-1.11910481e-13,20.118096 L17.8416,20.118096 C19.09872,20.116656 20.1168,19.097136 20.11824,17.840016 L20.11824,4.358736 C20.1168,3.062736 19.06704,2.012976 17.77104,2.011536 L17.77104,2.011536 Z" id="Fill-60"></path>
            </g>
        </g>
    </g>
</svg>