<?xml version="1.0" encoding="UTF-8"?>
<svg width="41px" height="41px" viewBox="0 0 41 41" version="1.1" xmlns="http://www.w3.org/2000/svg" xmlns:xlink="http://www.w3.org/1999/xlink">
    <!-- Generator: Sketch 63.1 (92452) - https://sketch.com -->
    <title>Group 4</title>
    <desc>Created with Sketch.</desc>
    <g id="Toll-Brothers-Dot-Com-Library" stroke="none" stroke-width="1" fill="none" fill-rule="evenodd">
        <g id="Home3" transform="translate(-671.000000, -1399.000000)" fill="#AAA5A0">
            <g id="Group-4" transform="translate(671.000000, 1399.000000)">
                <path d="M20,8.99846508 C20,10.1036071 19.1036071,11 17.9984651,11 C16.8933231,11 16,10.1036071 16,8.99846508 C16,7.8933231 16.8933231,7 17.9984651,7 C19.1036071,7 20,7.8933231 20,8.99846508 L20,8.99846508 Z M16.102,2.39360639 C16.102,1.62337662 16.729,1 17.5,1 C18.271,1 18.898,1.62337662 18.898,2.39360639 L18.898,4 C17.986,3.72427572 17.014,3.72427572 16.102,4 L16.102,2.39360639 Z M18.7315542,20 L18.7315542,19.3700863 C18.7315542,18.9990412 18.4050235,18.6999041 18,18.6999041 C17.5949765,18.6999041 17.2684458,18.9990412 17.2684458,19.3700863 L17.2684458,20 C16.844584,19.9741131 16.4207221,19.9309684 16,19.864813 L17.7174254,14 C17.811617,14.0028763 17.9026688,14.0115053 18,14.0115053 C18.0941915,14.0115053 18.188383,14.0028763 18.2825746,14 L20,19.864813 C19.5792779,19.9309684 19.155416,19.9741131 18.7315542,20 L18.7315542,20 Z M9.07042323,27.8832501 L9.06455463,27.8803576 C9.01467151,28.0712595 8.9970657,28.2621615 9.0029343,28.4530634 C9.0029343,28.4675256 9,28.4819879 9,28.4993426 C9,28.5022351 9.0029343,28.5051275 9.0029343,28.5051275 C9.02934301,29.0894031 9.31690455,29.6418617 9.79812998,30.0092033 C9.80693289,30.0092033 9.81280149,30.0063108 9.81867009,30.0063108 C9.8421445,30.0236655 9.86268461,30.0410202 9.88322472,30.058375 L9.31983885,32.1293715 C9.22300691,32.4909282 9.44014521,32.8582698 9.80399859,32.9566132 C9.86268461,32.9710755 9.92137064,32.9797528 9.98005667,32.9797528 C10.2910926,32.9797528 10.5610483,32.7714962 10.6402745,32.4793584 L11.1625801,30.5645543 C11.1625801,30.5674468 11.1655144,30.5703392 11.1684487,30.5732317 L11.209529,30.4257165 C12.0780822,30.3736524 12.8087232,29.7749145 13.0229272,28.9447804 L15.2706021,20.6752564 C15.7811705,20.7678149 16.3005419,20.8285564 16.8169789,20.8603734 L16.8169789,21.5516697 C16.8169789,21.9219038 17.1221463,22.2256114 17.5006712,22.2256114 C17.8791961,22.2256114 18.1843634,21.9219038 18.1843634,21.5516697 L18.1843634,20.8603734 C18.7008004,20.8285564 19.2172375,20.7707073 19.7278059,20.6781488 L21.9784151,28.941888 C22.1896848,29.7720221 22.9232602,30.3707599 23.7918134,30.4228241 L24.3551993,32.502498 C24.4344254,32.7975283 24.7073154,33 25.0154171,33 C25.0770374,33 25.1357234,32.9942151 25.1944095,32.9797528 C25.5582628,32.8814094 25.7754011,32.5111754 25.6756349,32.1525112 L25.112249,30.0815146 C25.82235,29.5955824 26.1509917,28.7278464 25.9338534,27.9034972 L21.4473066,11.4107284 C22.9320631,9.27899027 22.3892173,6.36628977 20.2325058,4.89113857 L20.2325058,2.69287405 C20.2325058,1.20615304 19.0089021,2.77555756e-17 17.5006712,2.77555756e-17 C15.9924402,2.77555756e-17 14.7688366,1.20615304 14.7688366,2.69287405 L14.7688366,4.89113857 C12.612125,6.36628977 12.0692793,9.27899027 13.5511015,11.4107284 L9.07042323,27.8832501 Z" id="Fill-58"></path>
                <path d="M40,33 C38.1116838,31.1408224 35.0115979,31.1061255 33.0781787,32.9248233 L33,33 L33,9.36560291 C33,7.50642536 34.5665808,6 36.5,6 C38.4334192,6 40,7.50642536 40,9.36560291 L40,33 Z M36.2165199,4 C33.8394532,4.00294258 31.826283,5.75377764 31.4887982,8.11078416 L23.2336268,8.11078416 L23.2336268,9.4820264 L31.4330399,9.4820264 L31.4330399,36.2035947 C31.4330399,36.5831875 31.7382435,36.8892158 32.1168134,36.8892158 C32.4924486,36.8892158 32.8005869,36.5831875 32.8005869,36.2035947 C32.8005869,34.3115158 34.3295398,32.7784317 36.2165199,32.7784317 C38.1035001,32.7784317 39.6324529,34.3115158 39.6324529,36.2035947 L39.6324529,36.3477811 C39.6295183,38.1574678 38.1651278,39.6258152 36.3603178,39.6287578 L1.36461241,39.6287578 L1.36461241,9.4820264 L10.9345072,9.4820264 L10.9345072,8.11078416 L0,8.11078416 L0,41 L36.3603178,41 C38.9222676,40.9970574 40.9970653,38.9137108 41,36.3448386 L41,8.79640528 C40.9970653,6.14808335 38.8577052,4.00294258 36.2165199,4 L36.2165199,4 Z" id="Fill-60"></path>
            </g>
        </g>
    </g>
</svg>