<svg xmlns="http://www.w3.org/2000/svg" viewBox="0 0 44 44"><title>basketball</title><g id="Layer_2" data-name="Layer 2"><g id="Icons"><g id="basketball"><path d="M22,0A22,22,0,1,0,44,22,22,22,0,0,0,22,0ZM20.78,2.5V20.78H15.24A15.9,15.9,0,0,0,7.81,8.56,19.41,19.41,0,0,1,20.78,2.5Zm2.44,0a19.41,19.41,0,0,1,13,6.06,15.9,15.9,0,0,0-7.43,12.22H23.22Zm-17,7.93a13.43,13.43,0,0,1,6.55,10.35H2.48A19.43,19.43,0,0,1,6.23,10.43Zm31.54,0a19.43,19.43,0,0,1,3.75,10.35H31.22A13.43,13.43,0,0,1,37.77,10.43ZM2.48,23.22h10.3A13.39,13.39,0,0,1,6.23,33.57,19.4,19.4,0,0,1,2.48,23.22Zm12.76,0h5.54v18.3a19.46,19.46,0,0,1-13-6.06,15.87,15.87,0,0,0,7.43-12.24Zm8,0h5.54a15.87,15.87,0,0,0,7.43,12.24,19.46,19.46,0,0,1-13,6.06V23.22Zm8,0h10.3a19.4,19.4,0,0,1-3.75,10.35A13.39,13.39,0,0,1,31.22,23.22Z"/></g></g></g></svg>