<svg xmlns="http://www.w3.org/2000/svg" viewBox="0 0 62.13 42.58"><title>bath</title><g id="Layer_2" data-name="Layer 2"><g id="Icons"><path id="bath" d="M51.88,16.39H12.08v-12c0-.24.27-2.41,2.34-2.41,1.72,0,2.45,1.75,2.7,2.57a3.27,3.27,0,0,0-.89,1,3.33,3.33,0,0,0-.39,2.52l.12.49L22.44,7l-.12-.49A3.35,3.35,0,0,0,19,3.93C18.51,2.29,17.12,0,14.42,0a4.41,4.41,0,0,0-4.34,4.33V16.39H0v2H2.5v2.44a17,17,0,0,0,11,15.88v5.87h2.2l2.07-4.84a17.19,17.19,0,0,0,1.77.09H43c.3,0,.6,0,.9,0L46,42.58h2.2V37A17,17,0,0,0,60,20.83V18.39h2.12v-2ZM21.18,6.23,16.75,7.32A2.3,2.3,0,0,1,18.52,5a2.2,2.2,0,0,1,.56-.07,2.26,2.26,0,0,1,1.21.34A2.35,2.35,0,0,1,21.18,6.23ZM58,18.39v2.44H51.88V18.39Zm-15.88,0h7.76v5.25L42.12,25.2Zm-37.62,0H40.12v2.48l-35.62,0h0ZM15,41.58h-.54V37.07a15.3,15.3,0,0,0,2.25.51Zm32.15,0h-.54L45,37.71a16.1,16.1,0,0,0,2.2-.41ZM43,35.83H19.5a15,15,0,0,1-14.85-13l35.47,0v4.77l11.76-2.36V22.83h6A15,15,0,0,1,43,35.83Z"/></g></g></svg>