<?xml version="1.0" encoding="utf-8"?>
<!-- Generator: Adobe Illustrator 26.0.1, SVG Export Plug-In . SVG Version: 6.00 Build 0)  -->
<svg version="1.1" id="Layer_1" xmlns="http://www.w3.org/2000/svg" xmlns:xlink="http://www.w3.org/1999/xlink" x="0px" y="0px"
	 viewBox="0 0 40 24" style="enable-background:new 0 0 40 24;" xml:space="preserve">
<style type="text/css">
	.st0{fill:#0C223F;}
</style>
<g>
	<path class="st0" d="M39.2,15.6L37.9,14v-3.2c0-0.2-0.1-0.3-0.2-0.4l-2.9-2.9V1.7c0-0.4-0.1-0.9-0.4-1.2C34.2,0.2,33.8,0,33.4,0
		H6.1C5.2,0,4.5,0.8,4.5,1.7v5.9l-2.9,2.9c-0.1,0.1-0.2,0.2-0.2,0.3V14l-1.3,1.6C0.1,15.7,0,15.8,0,16v5c0,0.2,0.2,0.4,0.4,0.4h0.7
		v2.2c0,0.2,0.2,0.4,0.4,0.4h3.3c0.2,0,0.3-0.1,0.4-0.3l0.5-2.3H34l0.5,2.3c0,0.2,0.2,0.3,0.4,0.3h3.3c0.2,0,0.4-0.2,0.4-0.4v-2.2
		H39c0.2,0,0.4-0.2,0.4-0.4v-5C39.4,15.8,39.3,15.7,39.2,15.6z M37.9,15.3l0.2,0.2h-0.2V15.3z M5.1,8.1C5.2,8,5.3,7.9,5.3,7.8
		c0,0,0,0,0,0v-6c0-0.5,0.3-0.9,0.8-0.9h27.4c0.4,0,0.8,0.4,0.7,0.9v6.1c0,0.1,0,0.2,0.1,0.3c0,0,0,0.1,0.1,0.1l2.3,2.3H2.9
		C2.9,10.4,5.1,8.1,5.1,8.1z M37.1,11.3v3l-0.7,1.2c0,0,0,0.1,0,0.1h-1l0.8-1.2c0-0.1,0-0.2,0-0.2c-0.1,0-0.2,0-0.2,0l-0.8,1.3
		c0,0,0,0.1,0,0.1h-1l0.8-1.2c0,0,0-0.1,0-0.1c0,0,0-0.1-0.1-0.1c-0.1,0-0.2,0-0.2,0l-0.8,1.3c0,0,0,0.1,0,0.1h-1l0.8-1.2
		c0-0.1,0-0.1-0.1-0.2c-0.1,0-0.1,0-0.2,0l-0.8,1.3c0,0,0,0.1,0,0.1h-1l0.8-1.2c0,0,0-0.1,0-0.1s-0.1-0.1-0.1-0.1s-0.1,0-0.1,0.1
		l-0.8,1.3c0,0,0,0.1,0,0.1h-1l0.8-1.2c0,0,0-0.1,0-0.1c0,0-0.1-0.1-0.1-0.1c-0.1,0-0.1,0-0.1,0.1l-0.8,1.3c0,0,0,0.1,0,0.1h-1
		l0.8-1.2c0-0.1,0-0.2,0-0.2c0,0-0.1,0-0.1,0s-0.1,0-0.1,0.1l-0.8,1.3c0,0,0,0.1,0,0.1h-1l0.8-1.2c0,0,0-0.1,0-0.1s0-0.1-0.1-0.1
		c0,0-0.1,0-0.1,0s-0.1,0-0.1,0.1l-0.8,1.3c0,0,0,0.1,0,0.1h-1l0.8-1.2c0,0,0-0.1,0-0.1s0-0.1-0.1-0.1c-0.1,0-0.2,0-0.2,0l-0.8,1.3
		c0,0,0,0.1,0,0.1h-1l0.8-1.2c0,0,0-0.1,0-0.1s0-0.1-0.1-0.1c-0.1,0-0.2,0-0.2,0l-0.8,1.3c0,0,0,0.1,0,0.1h-1l0.8-1.2
		c0-0.1,0-0.2,0-0.2c0,0-0.1,0-0.1,0s-0.1,0-0.1,0.1l-0.8,1.3c0,0,0,0.1,0,0.1h-1l0.8-1.2c0,0,0-0.1,0-0.1c0,0-0.1-0.1-0.1-0.1
		c-0.1,0-0.1,0-0.1,0.1l-0.8,1.3c0,0,0,0.1,0,0.1h-1l0.8-1.3c0,0,0-0.1,0-0.1s0-0.1-0.1-0.1c-0.1,0-0.2,0-0.2,0l-0.8,1.3
		c0,0,0,0.1,0,0.1h-1.1l0.8-1.2c0-0.1,0-0.2,0-0.2c-0.1,0-0.2,0-0.2,0L20,15.4c0,0,0,0.1,0,0.1h-1l0.8-1.2c0,0,0-0.1,0-0.1
		s0-0.1-0.1-0.1c0,0-0.1,0-0.1,0s-0.1,0-0.1,0.1l-0.8,1.3c0,0,0,0.1,0,0.1h-1l0.8-1.2c0,0,0-0.1,0-0.1c0,0-0.1-0.1-0.1-0.1
		c-0.1,0-0.1,0-0.1,0.1l-0.8,1.3c0,0,0,0.1,0,0.1h-1l0.8-1.2c0,0,0-0.1,0-0.1s0-0.1-0.1-0.1c-0.1,0-0.2,0-0.2,0l-0.8,1.3
		c0,0,0,0.1,0,0.1h-1l0.8-1.2c0,0,0.1-0.1,0-0.2s-0.1-0.1-0.1-0.1c-0.1,0-0.1,0-0.1,0.1l-0.8,1.3c0,0,0,0.1,0,0.1h-1l0.8-1.2
		c0,0,0-0.1,0-0.1s-0.1-0.1-0.1-0.1c-0.1,0-0.1,0-0.1,0.1l-0.8,1.3c0,0,0,0.1,0,0.1h-1l0.8-1.2c0-0.1,0-0.2,0-0.2
		c-0.1,0-0.2,0-0.2,0l-0.8,1.3c0,0,0,0.1,0,0.1h-1l0.8-1.2c0-0.1,0-0.2,0-0.2c0,0-0.1,0-0.1,0c0,0-0.1,0-0.1,0.1l-0.8,1.3
		c0,0,0,0.1,0,0.1h-1l0.8-1.2c0,0,0-0.1,0-0.1s0-0.1-0.1-0.1c0,0-0.1,0-0.1,0s-0.1,0-0.1,0.1l-0.8,1.3c0,0,0,0.1,0,0.1h-1l0.8-1.2
		c0,0,0-0.1,0-0.1s0-0.1-0.1-0.1c-0.1,0-0.2,0-0.2,0l-0.8,1.3c0,0,0,0.1,0,0.1h-1l0.8-1.2c0-0.1,0-0.2,0-0.2c-0.1,0-0.2,0-0.2,0
		l-0.8,1.3c0,0,0,0.1,0,0.1h-1l0.8-1.2c0-0.1,0-0.2,0-0.2c0,0-0.1,0-0.1,0S7,14.1,7,14.2l-0.8,1.3c0,0,0,0.1,0,0.1h-1l0.8-1.2
		c0-0.1,0-0.2,0-0.2s-0.2,0-0.2,0l-0.8,1.3c0,0,0,0.1,0,0.1h-1l0.8-1.2c0,0,0-0.1,0-0.1s0-0.1-0.1-0.1c-0.1,0-0.2,0-0.2,0l-0.8,1.3
		c0,0,0,0.1,0,0.1H2.6l0.8-1.3c0,0,0-0.1,0-0.1s0-0.1-0.1-0.1c-0.1,0-0.2,0-0.2,0l-0.8,1.3v-4.1L37.1,11.3z M37.1,14.8v0.8h-0.5
		L37.1,14.8z M1.5,15.2v0.3H1.3L1.5,15.2z M4.5,23.2H1.9v-1.8h3L4.5,23.2z M37.8,23.2h-2.6l-0.4-1.8h3
		C37.8,21.3,37.8,23.2,37.8,23.2z M38.6,20.5H0.9v-4.1h37.7C38.6,16.4,38.6,20.5,38.6,20.5z"/>
	<path class="st0" d="M32.5,7.6h-2c0,0,0-0.1,0-0.1V3.3c0-0.7-0.5-1.2-1.1-1.3h-7.6c-0.3,0-0.6,0.2-0.9,0.4S20.6,3,20.6,3.4v4.1
		c0,0,0,0.1,0,0.1h-1.7c0,0,0-0.1,0-0.1V3.3c0-0.7-0.5-1.2-1.1-1.3h-7.6C9.5,2.1,9,2.7,9,3.4v4.1c0,0,0,0.1,0,0.1H6.7
		c-0.1,0-0.1,0.1-0.1,0.1s0.1,0.1,0.1,0.1h25.8c0.1,0,0.1-0.1,0.1-0.1S32.6,7.6,32.5,7.6C32.5,7.6,32.5,7.6,32.5,7.6z M9.7,7.6
		c0,0,0-0.1,0-0.1V3.4c0-0.3,0.2-0.5,0.4-0.5h7.7c0.2,0,0.4,0.2,0.4,0.5v4.2c0,0,0,0.1,0,0.1L9.7,7.6z M21.3,7.6c0,0,0-0.1,0-0.1
		V3.4c0-0.3,0.2-0.5,0.4-0.5h7.7c0.2,0,0.4,0.2,0.4,0.5v4.2c0,0,0,0.1,0,0.1L21.3,7.6z"/>
</g>
</svg>
