<svg xmlns="http://www.w3.org/2000/svg" viewBox="0 0 56.18 38.13"><title>bed</title><g id="Layer_2" data-name="Layer 2"><g id="Icons"><path id="bed" d="M18,15.63a3.83,3.83,0,0,0,.51-1.9,3.94,3.94,0,0,0-3.94-3.94H8.36A3.92,3.92,0,0,0,5,11.68V0H0V15.63H0v14H6v8.45H9l3.61-8.45H44.19l3.62,8.45h3V29.67h5.38v-14ZM8.36,11.79h6.25a1.93,1.93,0,0,1,.32,3.84H8.05a1.93,1.93,0,0,1,.31-3.84ZM1.52,1.5h2V15.63h-2ZM8.31,37.12H7V29.67h4.52Zm41.49,0H48.47l-3.19-7.45H49.8Zm4.38-9.45H2v-3H54.18ZM2,22.67v-5H8.05c.1,0,.21,0,.31,0h6.25a3.11,3.11,0,0,0,.32,0H54.18v5Z"/></g></g></svg>