<?xml version="1.0" encoding="utf-8"?>
<!-- Generator: Adobe Illustrator 25.4.1, SVG Export Plug-In . SVG Version: 6.00 Build 0)  -->
<svg version="1.1" id="Layer_1" xmlns="http://www.w3.org/2000/svg" xmlns:xlink="http://www.w3.org/1999/xlink" x="0px" y="0px"
	 viewBox="0 0 20 20" style="enable-background:new 0 0 20 20;" xml:space="preserve">
<path d="M10,0C4.5,0,0,4.3,0,9.5S4.5,19,10,19c0.6,0,1.1,0,1.6-0.1c0.2,0.2,1.2,1.1,1.2,1.1c0,0,0.5-1.2,0.6-1.5
	c3.8-1.3,6.6-4.8,6.6-8.9C20,4.3,15.5,0,10,0z M12.3,9.4L12.3,9.4c0.7,0.4,1.1,0.9,1.4,1.5c0,0.2,0.1,0.3,0.1,0.5
	c0.1,0.4,0.1,0.8,0.1,1.2c-0.1,1.3-0.7,2.3-1.9,3c-0.4,0.3-0.7,0.4-1.3,0.5c-0.2,0-0.4,0.1-0.5,0.1c-0.2,0-0.4,0-0.6,0
	c-0.5,0-0.9,0-1.3-0.2l-0.1,0c-0.2,0-0.4-0.1-0.6-0.2c-0.2,0-0.3-0.3-0.2-0.5s0.3-0.3,0.5-0.3c0.1,0,0.3,0.1,0.4,0.1l0.2,0
	c0.3,0.1,0.6,0.2,0.9,0.2c0.3,0,0.6,0,1-0.2c0.4-0.2,0.7-0.4,1-0.7c0.7-0.7,1-1.5,0.9-2.3c-0.1-1.1-0.7-1.8-1.7-2.2
	c-0.2-0.1-0.4-0.1-0.7-0.1c-0.1,0-0.3,0-0.5,0c0,0,0,0-0.1,0c-0.1,0.1-0.1,0.2-0.1,0.3c-0.1,0.3-0.3,0.7-0.4,1
	c-0.1,0.3-0.3,0.7-0.5,1.1L8,13.1c-0.3,0.6-0.7,1.1-1.1,1.6c-0.3,0.3-0.6,0.5-0.9,0.7c-0.2,0.1-0.3,0.1-0.5,0.2
	c-0.2,0-0.4,0-0.5-0.1c-0.1-0.1-0.1-0.3,0-0.5c0-0.1,0.1-0.2,0.2-0.2c0.6-0.4,0.9-0.9,1.2-1.5c0.2-0.3,0.3-0.7,0.5-1.1
	c0.2-0.6,0.5-1.1,0.7-1.6C7.7,9.9,8,9.3,8.2,8.6l0.1-0.2c0.1-0.3,0.2-0.5,0.4-0.8c0.4-0.7,0.8-1.3,1.4-1.8c0.4-0.3,0.7-0.6,1.2-0.7
	c0.2,0,0.4,0,0.5,0.2c0,0.3,0,0.4-0.1,0.5c-0.5,0.4-0.9,0.9-1.4,1.7c-0.2,0.4-0.4,0.8-0.6,1.4c0.8,0,1.8-0.3,2.4-0.8
	c0.7-0.5,1-1,1.2-1.7l0-0.3c0-0.3,0-0.7-0.1-1C13,4.5,12.6,4.2,12.1,4c-0.1,0-0.3,0-0.4-0.1c-0.4,0-0.7,0-1.2,0.1
	C9.9,4.2,9.4,4.4,8.9,4.7C7.7,5.4,6.8,6.4,5.9,8C5.8,8.3,5.6,8.6,5.5,8.8C5.3,9.4,5.2,10,5.4,10.6c0,0.1,0,0.2,0,0.3l0,0.1
	c0,0.2,0,0.4-0.3,0.5c-0.1,0-0.3,0-0.4,0c0,0-0.1,0-0.2-0.1c-0.1-0.1-0.1-0.1-0.2-0.2C4.2,11,4,10.8,4,10.5c-0.1-0.4-0.1-0.9,0-1.4
	C4,8.7,4.2,8.3,4.4,7.9c0.5-1,1.4-2,2.6-3c0.7-0.6,1.2-0.9,2.2-1.3c0.6-0.3,1.3-0.4,1.8-0.5s0.9-0.1,1.5,0c0.5,0,0.8,0.2,1.3,0.4
	s0.8,0.6,1,1.1c0,0.1,0.1,0.2,0.1,0.3c0,0.3,0.1,0.6,0.1,0.9c0,0.9-0.4,1.7-1.1,2.4c-0.4,0.3-0.8,0.6-1.1,0.8
	c-0.1,0.1-0.3,0.2-0.5,0.3L12,9.5C12.2,9.4,12.3,9.4,12.3,9.4z"/>
</svg>
