<svg xmlns="http://www.w3.org/2000/svg" viewBox="0 0 49.3 31.53"><title>boat-dock</title><g id="Layer_2" data-name="Layer 2"><g id="Icons"><path id="boat_dock" data-name="boat dock" d="M21.13,9.67l-.34,0-18,2.25a2.26,2.26,0,0,0-2.1,2.49,2.39,2.39,0,0,0,2.44,1.91l.34,0,18-2.25a2.25,2.25,0,0,0,2.1-2.49A2.4,2.4,0,0,0,21.13,9.67Zm6.7,10.77,18,2.24a2.07,2.07,0,0,0,.35,0,2.38,2.38,0,0,0,2.43-1.91,2.26,2.26,0,0,0-2.09-2.49l-18-2.25-.34,0a2.4,2.4,0,0,0-2.44,1.9A2.28,2.28,0,0,0,27.83,20.44ZM21.14,16l-.35,0-18,2.25A2.26,2.26,0,0,0,.72,20.8a2.39,2.39,0,0,0,2.44,1.91l.34,0,18-2.24a2.27,2.27,0,0,0,2.1-2.5A2.39,2.39,0,0,0,21.14,16Zm6.69-2,18,2.25a2.07,2.07,0,0,0,.35,0,2.38,2.38,0,0,0,2.43-1.91,2.26,2.26,0,0,0-2.09-2.49l-18-2.25-.34,0a2.4,2.4,0,0,0-2.44,1.9A2.27,2.27,0,0,0,27.83,14.06Zm.32-6h.34l2.56.37V5.48H28.53V3.18a64.42,64.42,0,0,1,17.76,0v2.3H43.77V10l2.57.32V8h.34a2.19,2.19,0,0,0,2.18-2.18V3a2.39,2.39,0,0,0-2-2.31A66.86,66.86,0,0,0,28,.67,2.39,2.39,0,0,0,26,3V5.86A2.2,2.2,0,0,0,28.15,8ZM2.63,8H3v2.28L5.53,10V5.48H3V3.18a64.42,64.42,0,0,1,17.76,0v2.3H18.25V8.41L20.81,8h.34a2.18,2.18,0,0,0,2.18-2.18V3a2.39,2.39,0,0,0-2-2.31A66.93,66.93,0,0,0,2.43.67,2.39,2.39,0,0,0,.45,3V5.86A2.19,2.19,0,0,0,2.63,8ZM47.85,25.69H46.34V24.28L43.77,24v1.66H31.05V22.44l-2.56-.32v3.57H20.81V22.12l-2.56.32v3.25H5.53V24L3,24.28v1.41H1.45A1.45,1.45,0,0,0,0,27.14v2.94a1.45,1.45,0,0,0,1.45,1.45h46.4a1.45,1.45,0,0,0,1.45-1.45V27.14A1.45,1.45,0,0,0,47.85,25.69Z" style="fill:#212125"/></g></g></svg>