<svg xmlns="http://www.w3.org/2000/svg" viewBox="0 0 47.98 47.98"><title>bocce</title><g id="Layer_2" data-name="Layer 2"><g id="Icons"><g id="bocce"><path d="M32.06,28.34A22.36,22.36,0,0,1,20,44.54a20.57,20.57,0,0,0,2.84.33A22.53,22.53,0,0,0,36.32,27.11,36.15,36.15,0,0,1,32.06,28.34Z" style="fill:none"/><path d="M14.22,5.48a22.71,22.71,0,0,0-2,1.17C19.86,10.1,25,16.87,25,24.68c0,.48,0,.95-.06,1.42a33.41,33.41,0,0,0,4.53-.47c0-.37,0-.73,0-1.1A19.49,19.49,0,0,0,14.22,5.48Z" style="fill:none"/><path d="M39.76,21.89a26,26,0,0,0,4.44-3.31,20.94,20.94,0,0,0-15.68-15A25.44,25.44,0,0,1,39.76,21.89Z" style="fill:none"/><path d="M13.52,42.11a22.86,22.86,0,0,0,2.15,1.1A19.51,19.51,0,0,0,29.05,28.88a36.6,36.6,0,0,1-4.61.37A21.07,21.07,0,0,1,13.52,42.11Z" style="fill:none"/><path d="M10.86,40.29c5.72-1.95,9.32-5.88,10.59-11.11A35.06,35.06,0,0,1,3.1,23c0,.35-.06.68-.06,1A20.9,20.9,0,0,0,10.86,40.29Z" style="fill:none"/><path d="M20.68,3.32a18.82,18.82,0,0,0-2.28.49,22.35,22.35,0,0,1,14,20.72c0,.15,0,.3,0,.46a31.52,31.52,0,0,0,4.07-1.42A22.57,22.57,0,0,0,20.68,3.32Z" style="fill:none"/><path d="M44.86,22.57a31.91,31.91,0,0,1-5,3,25.12,25.12,0,0,1-9.12,18.18A20.93,20.93,0,0,0,44.93,24C44.93,23.51,44.89,23,44.86,22.57Z" style="fill:none"/><path d="M22,24.68c0-7.84-4.37-13.76-12.28-16A21,21,0,0,0,3.67,19a30,30,0,0,0,18.25,7.07C22,25.62,22,25.16,22,24.68Z" style="fill:none"/><path d="M24,0a24,24,0,0,0-.06,48H24A24,24,0,0,0,24,0ZM44.2,18.58a26,26,0,0,1-4.44,3.31A25.44,25.44,0,0,0,28.52,3.56,20.94,20.94,0,0,1,44.2,18.58ZM22.8,44.87A20.57,20.57,0,0,1,20,44.54a22.36,22.36,0,0,0,12.1-16.2,36.15,36.15,0,0,0,4.26-1.23A22.53,22.53,0,0,1,22.8,44.87Zm6.71-19.24A33.41,33.41,0,0,1,25,26.1c0-.47.06-.94.06-1.42,0-7.81-5.18-14.58-12.79-18a22.71,22.71,0,0,1,2-1.17A19.49,19.49,0,0,1,29.56,24.53C29.56,24.9,29.53,25.26,29.51,25.63Zm-5.07,3.62a36.6,36.6,0,0,0,4.61-.37A19.51,19.51,0,0,1,15.67,43.21a22.86,22.86,0,0,1-2.15-1.1A21.07,21.07,0,0,0,24.44,29.25ZM32.38,25c0-.16,0-.31,0-.46a22.35,22.35,0,0,0-14-20.72,18.82,18.82,0,0,1,2.28-.49A22.57,22.57,0,0,1,36.45,23.57,31.52,31.52,0,0,1,32.38,25ZM9.69,8.7C17.6,10.92,22,16.84,22,24.68c0,.48,0,.94,0,1.4A30,30,0,0,1,3.67,19,21,21,0,0,1,9.69,8.7ZM3,24c0-.35,0-.68.06-1a35.06,35.06,0,0,0,18.35,6.22c-1.27,5.23-4.87,9.16-10.59,11.11A20.9,20.9,0,0,1,3,24Zm27.71,19.8a25.12,25.12,0,0,0,9.12-18.18,31.91,31.91,0,0,0,5-3c0,.47.07.94.07,1.42A20.93,20.93,0,0,1,30.75,43.79Z"/></g></g></g></svg>