<?xml version="1.0" encoding="UTF-8"?>
<svg width="39px" height="31px" viewBox="0 0 39 31" version="1.1" xmlns="http://www.w3.org/2000/svg" xmlns:xlink="http://www.w3.org/1999/xlink">
    <title>Group</title>
    <g id="Concept-8-8" stroke="none" stroke-width="1" fill="none" fill-rule="evenodd">
        <g id="Home" transform="translate(-216.000000, -1000.000000)">
            <g id="Group" transform="translate(216.000000, 1000.000000)">
                <g id="Group-15" transform="translate(0.000000, 2.000000)" fill="#7EC093">
                    <path d="M22.0886967,0.671668539 L35.3399276,0.671668539 L35.3399276,24.6941386 L22.0886967,24.6938317 C21.1732244,24.6938317 20.3662178,25.1329406 19.8303002,25.8054531 L19.8303002,2.96918313 C19.8303002,1.70226619 20.8433013,0.671284904 22.0886967,0.671284904 L22.0886967,0.671668539 Z M8.72017499,0.683305017 L11.6901614,0.683305017 L8.72017499,0.683305017 Z M8.11674918,0.671668539 L16.9122084,0.671745266 C18.1576793,0.671745266 19.1706049,1.70303346 19.1706049,2.9699504 L19.1706049,25.8069876 C18.634612,25.1343984 17.8276054,24.6953662 16.9122084,24.6953662 L3.66022327,24.6950593 L3.66022327,0.671821993 L9.0525049,0.671668539 C9.23458864,0.671668539 9.38250339,0.521206807 9.38250339,0.335987724 C9.38250339,0.150768641 9.23458864,0.000306908174 9.0525049,0.000306908174 L3.32999849,0.000306908174 C3.14791475,0.000306908174 3,0.150768641 3,0.335987724 L3,25.0298194 C3,25.2150385 3.14791475,25.3655002 3.32999849,25.3655002 L16.911605,25.3655002 C18.1570759,25.3655002 19.1700015,26.3967884 19.1700015,27.6643192 C19.1700015,27.8495383 19.3179163,28 19.5,28 C19.6820837,28 19.8299985,27.8495383 19.8299985,27.6643192 C19.8299985,26.3967884 20.8429996,25.3655002 22.088395,25.3655002 L35.6700015,25.3651933 C35.8520852,25.3651933 36,25.2147316 36,25.0295125 L36,0.335680815 C36,0.150461732 35.8520852,0 35.6700015,0 L22.088395,0 C20.9563682,0 19.9837966,0.665990738 19.5,1.6268435 C19.0162034,0.666220919 18.0433301,0 16.911605,0 L8.38972393,0 C8.20764019,0 8.05972544,0.150461732 8.05972544,0.335680815 L8.11674918,0.671668539 Z" id="Fill-1"></path>
                    <path d="M38.6694941,4 L37.1273346,4 C36.9449709,4 36.7968287,4.14893113 36.7968287,4.33226603 C36.7968287,4.51560093 36.9449709,4.66453206 37.1273346,4.66453206 L38.3389882,4.66453206 L38.3389882,26.8135756 L21.6746911,26.8138794 C21.4923274,26.8138794 21.3441852,26.9628105 21.3441852,27.1461454 L21.3441852,28.3357717 L17.6558148,28.3357717 L17.6558148,27.1461454 C17.6558148,26.9628105 17.5076726,26.8138794 17.3253089,26.8138794 L0.661011828,26.8138794 L0.661011828,4.66483585 L1.87266539,4.66483585 C2.05502911,4.66483585 2.20317131,4.51590472 2.20317131,4.33256982 C2.20317131,4.14923491 2.05502911,4.00030379 1.87266539,4.00030379 L0.330505914,4 C0.148142194,4 0,4.14893113 0,4.33226603 L0,27.1458416 C0,27.3291765 0.148142194,27.4781077 0.330505914,27.4781077 L16.9948029,27.4781077 L16.9948029,28.667734 C16.9948029,28.8510689 17.1429451,29 17.3253089,29 L21.6746911,29 C21.8570549,29 22.0051971,28.8510689 22.0051971,28.667734 L22.0051971,27.4781077 L38.6694941,27.4784114 C38.8518578,27.4784114 39,27.3294803 39,27.1461454 L39,4.33256982 C39,4.14893113 38.8518578,4 38.6694941,4" id="Fill-3"></path>
                    <path d="M22.3106843,5 L32.6893157,5 C32.8607424,5 33,4.77588571 33,4.5 C33,4.22411429 32.8607424,4 32.6893157,4 L22.3106843,4 C22.1392576,4 22,4.22411429 22,4.5 C22,4.77634286 22.1384054,5 22.3106843,5" id="Fill-5"></path>
                    <path d="M22.3106843,9 L32.6893157,9 C32.8607424,9 33,8.77588571 33,8.5 C33,8.22411429 32.8607424,8 32.6893157,8 L22.3106843,8 C22.1392576,8 22,8.22411429 22,8.5 C22,8.77588571 22.1384054,9 22.3106843,9" id="Fill-7"></path>
                    <path d="M22.3106843,13 L32.6893157,13 C32.8607424,13 33,12.7758857 33,12.5 C33,12.2241143 32.8607424,12 32.6893157,12 L22.3106843,12 C22.1392576,12 22,12.2241143 22,12.5 C22,12.7758857 22.1384054,13 22.3106843,13" id="Fill-9"></path>
                    <path d="M22.3106843,16 L32.6893157,16 C32.8607424,16 33,15.7758857 33,15.5 C33,15.2241143 32.8607424,15 32.6893157,15 L22.3106843,15 C22.1392576,15 22,15.2241143 22,15.5 C22,15.7758857 22.1384054,16 22.3106843,16" id="Fill-11"></path>
                    <path d="M21.3472852,20 L27.6527148,20 C27.8443368,20 28,19.7758857 28,19.5 C28,19.2241143 27.8443368,19 27.6527148,19 L21.3472852,19 C21.1556632,19 21,19.2241143 21,19.5 C21,19.7758857 21.1547106,20 21.3472852,20" id="Fill-13"></path>
                </g>
                <g id="logo-mark" transform="translate(6.000000, 0.000000)">
                    <polygon id="Fill-1" fill="#0C223F" points="0.29536862 0.666050742 0 2.25000017 1.25 2.25000017 1.25 1.73120156e-07 0.479974008 0.236877299"></polygon>
                    <path d="M8.5,12.2500002 L4.78093965,10.3879638 L1.05242552,12.2500002 C1.05242552,12.2500002 1.07820856,1.07514456 1.07820856,0.836359306 C1.07820856,0.306268258 0.326489687,0.224128574 0.25,0.808572275 C0.369747899,0.0384745666 0.748472116,0 1.05443086,0 L8.04106188,0 C8.04106188,0 8.5,-0.00152654352 8.5,0.568870966 L8.5,12.2500002 Z" id="Fill-2" fill="#7CBF92"></path>
                </g>
            </g>
        </g>
    </g>
</svg>