<?xml version="1.0" encoding="UTF-8"?>
<svg width="21px" height="28px" viewBox="0 0 21 28" version="1.1" xmlns="http://www.w3.org/2000/svg" xmlns:xlink="http://www.w3.org/1999/xlink">
    <title>icon</title>
    <g id="Desktop" stroke="none" stroke-width="1" fill="none" fill-rule="evenodd">
        <g id="Amenities---No-Imagery" transform="translate(-767.000000, -1233.000000)" fill="#8195A2">
            <g id="amenities---no-imagery" transform="translate(0.000000, 74.000000)">
                <g id="listings" transform="translate(60.000000, 901.000000)">
                    <g id="icon" transform="translate(702.000000, 256.000000)">
                        <path d="M13.3231772,2.66666667 C13.5823599,2.66666667 13.7924691,2.87952739 13.7924691,3.1421044 L13.7924691,14.5766828 C13.7894143,16.7801527 12.1450774,18.5932454 10.0321926,18.8295429 L10.0323486,26.9024726 C10.3261269,26.9629345 10.6109646,27.0811197 10.8697902,27.2570284 L12.6519115,28.4606682 C12.825676,28.5764595 12.9034839,28.794308 12.8430908,28.9959371 C12.7826977,29.1975662 12.598512,29.334872 12.3905337,29.3333333 L6.74120916,29.3333333 C6.53323084,29.334872 6.34904516,29.1975662 6.28865206,28.9959371 C6.22825896,28.794308 6.3060668,28.5764595 6.47983137,28.4606682 L8.26195267,27.2570284 C8.51906184,27.0822862 8.80183927,26.9645045 9.09355087,26.9036831 L9.09382654,18.8295686 C6.9786435,18.5931363 5.33333333,16.7765581 5.33333333,14.5706646 L5.33333333,3.1421044 C5.33333333,2.87952739 5.54344249,2.66666667 5.80262528,2.66666667 L13.3231772,2.66666667 Z M25.5307081,2.66666667 C25.7898908,2.66666667 26,2.87952739 26,3.1421044 L26,14.5766828 C25.9969605,16.7753162 24.3595919,18.5861311 22.2519604,18.8281557 L22.2518641,26.8954482 C22.5581949,26.9535081 22.8555944,27.0740349 23.1248443,27.2570284 L24.9069656,28.4606682 C25.0807302,28.5764595 25.158538,28.794308 25.0981449,28.9959371 C25.0377518,29.1975662 24.8535661,29.334872 24.6455878,29.3333333 L18.9962633,29.3333333 C18.788285,29.334872 18.6040993,29.1975662 18.5437062,28.9959371 C18.4833131,28.794308 18.5611209,28.5764595 18.7348855,28.4606682 L20.5170068,27.2570284 C20.7637152,27.089355 21.0340572,26.9741268 21.3132485,26.9113439 L21.3128512,18.8288887 C19.199301,18.5896992 17.5557946,16.7750443 17.552745,14.5706646 L17.552745,3.1421044 C17.552745,2.87952739 17.7628542,2.66666667 18.022037,2.66666667 L25.5307081,2.66666667 Z M8.77876785,28.0514307 L8.3035355,28.3824316 L10.8341477,28.3824316 L10.3470346,28.0514307 C9.87170543,27.7323944 9.254097,27.7323944 8.77876785,28.0514307 Z M20.9981796,28.0514307 L20.5170068,28.3824316 L23.0535595,28.3824316 L22.5605059,28.0514307 C22.087503,27.7318392 21.4711824,27.7318392 20.9981796,28.0514307 Z M12.8533333,9.33466667 L6.27133333,9.33466667 L6.27191722,14.5706646 C6.27191722,16.4120274 7.74534094,17.9047469 9.56290122,17.9047469 C11.3804615,17.9047469 12.8538852,16.4120274 12.8538852,14.5706646 L12.8533333,9.33466667 Z M25.0726667,9.33466667 L18.4906667,9.33466667 L18.4913289,14.5706646 C18.4913289,16.4120274 19.9647527,17.9047469 21.7823129,17.9047469 C23.5998732,17.9047469 25.0732969,16.4120274 25.0732969,14.5706646 L25.0726667,9.33466667 Z M23.6654211,14.5706646 C23.9246039,14.5706646 24.134713,14.7835253 24.134713,15.0461023 C24.134713,15.3086793 23.9246039,15.52154 23.6654211,15.52154 C23.4062383,15.52154 23.1961292,15.3086793 23.1961292,15.0461023 C23.1961292,14.7835253 23.4062383,14.5706646 23.6654211,14.5706646 Z M19.9051452,13.1443514 C20.1643279,13.1443514 20.3744371,13.3572121 20.3744371,13.6197891 C20.3744371,13.8823661 20.1643279,14.0952268 19.9051452,14.0952268 C19.6459624,14.0952268 19.4358532,13.8823661 19.4358532,13.6197891 C19.4358532,13.3572121 19.6459624,13.1443514 19.9051452,13.1443514 Z M8.62431733,11.2365822 C8.88350012,11.2365822 9.09360927,11.449443 9.09360927,11.71202 C9.09360927,11.974597 8.88350012,12.1874577 8.62431733,12.1874577 C8.36513455,12.1874577 8.15502539,11.974597 8.15502539,11.71202 C8.15502539,11.449443 8.36513455,11.2365822 8.62431733,11.2365822 Z M7.68573345,10.2857068 C7.94491623,10.2857068 8.15502539,10.4985675 8.15502539,10.7611445 C8.15502539,11.0237215 7.94491623,11.2365822 7.68573345,11.2365822 C7.42655067,11.2365822 7.21644151,11.0237215 7.21644151,10.7611445 C7.21644151,10.4985675 7.42655067,10.2857068 7.68573345,10.2857068 Z M19.9051452,10.2857068 C20.1643279,10.2857068 20.3744371,10.4985675 20.3744371,10.7611445 C20.3744371,11.0237215 20.1643279,11.2365822 19.9051452,11.2365822 C19.6459624,11.2365822 19.4358532,11.0237215 19.4358532,10.7611445 C19.4358532,10.4985675 19.6459624,10.2857068 19.9051452,10.2857068 Z M25.0732969,3.61754213 L18.4913289,3.61754213 L18.4906667,8.37733333 L25.0726667,8.37733333 L25.0732969,3.61754213 Z M12.8538852,3.61754213 L6.27191722,3.61754213 L6.27133333,8.37733333 L12.8533333,8.37733333 L12.8538852,3.61754213 Z" id="icon-party-generic"></path>
                    </g>
                </g>
            </g>
        </g>
    </g>
</svg>