<svg xmlns="http://www.w3.org/2000/svg" viewBox="0 0 61.97 47.63"><title>community-type</title><g id="Layer_2" data-name="Layer 2"><g id="Icons"><g id="community-type"><path d="M11.83,31.32,14,33.44l2.64-2.64V47.63H44.65V30.8l2.65,2.64,2.12-2.13L30.62,12.55ZM41.65,44.63H19.59V27.81l11-11,11,11Z"/><polygon points="61.97 18.76 43.18 0 31.76 11.39 33.88 13.51 43.18 4.24 54.21 15.25 54.21 29.13 57.21 29.13 57.21 18.24 59.85 20.88 61.97 18.76"/><polygon points="18.8 4.24 28.1 13.51 30.21 11.39 18.8 0 0 18.76 2.12 20.88 4.76 18.24 4.76 29.13 7.76 29.13 7.76 15.25 18.8 4.24"/></g></g></g></svg>