<svg xmlns="http://www.w3.org/2000/svg" viewBox="0 0 43.22 53.5"><g id="Layer_2condo" data-name="Layer 2"><g id="Icons"><g id="condo"><path d="M36.32,51.7V35.34h5.1v-.9h-5.1v-9.9h5.1v-.9h-5.1V14.33h5.1v-.9h-5.1V5.18h1.89V0H5V5.18H6.9v8.25H1.8v.9H6.9v9.31H1.8v.9H6.9v9.9H1.8v.9H6.9V51.7H0v1.8H43.22V51.7ZM31,51.4h-5.5V41.06H31ZM6.81,3.38V1.8h29.6V3.38H6.81ZM8.7,5.18H34.51v8.25H33.16V8.49H22.36v4.94H20.88V8.49H10.08v4.94H8.7Zm23.56,8.24h-4v-4h4Zm-4.95,0h-4v-4h4Zm-7.33,0H15.93v-4H20Zm-5,0H11v-4h4Zm-6.33.91H34.51v9.31H33.16V18.69H22.36v4.95H20.88V18.69H10.08v4.95H8.7Zm23.56,9.29h-4v-4h4Zm-4.95,0h-4v-4h4Zm-7.33,0H15.93v-4H20Zm-5,0H11v-4h4Zm-6.33.92H34.51v9.9H33.16V29.49H22.36v4.95H20.88V29.49H10.08v4.95H8.7Zm23.56,9.88h-4v-4h4Zm-4.95,0h-4v-4h4Zm-7.33,0H15.93v-4H20Zm-5,0H11v-4h4Zm19.48.92V51.4H31.86V40.16h-7.3V51.4H8.7V35.34Z"/><path d="M21,44V40.12H10.06V44ZM11,41h9.1V43.1H11Z"/></g></g></g></svg>