<svg xmlns="http://www.w3.org/2000/svg" viewBox="0 0 42.17 52.64"><title>distance_1</title><g id="Layer_2" data-name="Layer 2"><g id="Icons"><g id="location"><path d="M35.54,13.7C35.54,6.27,28.92,0,21.08,0S6.62,6.27,6.62,13.7c0,7,5.34,15.41,12.72,27l1.74,2.75,1.74-2.75C30.21,29.11,35.54,20.7,35.54,13.7ZM21.82,38.43l-.74,1.17-.74-1.17C13.1,27,8.71,19.65,8.71,13.7c0-6.19,5.78-11.62,12.37-11.62S33.46,7.51,33.46,13.7c0,6-4.4,13.32-11.64,24.73Z"/><circle cx="21.08" cy="14.46" r="4.58"/></g><path d="M21.08,52.64C9.26,52.64,0,48.47,0,43.13c0-3.56,4.05-6.68,10.83-8.34l.47,2C5.65,38.12,2,40.63,2,43.13c0,3.63,7.67,7.51,19.08,7.51s19.09-3.88,19.09-7.51c0-2.64-4.12-5.29-10.25-6.61l.42-2c7.41,1.58,11.83,4.79,11.83,8.56C42.17,48.47,32.91,52.64,21.08,52.64Z"/></g></g></svg>