<svg xmlns="http://www.w3.org/2000/svg" viewBox="0 0 37.51 39.39"><title>dog</title><g id="Layer_2" data-name="Layer 2"><g id="Icons"><g id="dog"><path d="M37.45,8c-.26-1.05-1.58-1.31-2.86-1.57A12.84,12.84,0,0,1,33.05,6c-.15-.16-.37-.45-.51-.62a4.53,4.53,0,0,0-.74-.81,10.74,10.74,0,0,0-2.46-1.22,1.29,1.29,0,0,0-1,.07,1.32,1.32,0,0,0-.67.76l0,.1.08-.7c.21-1.72.33-2.67-.17-3.23a1.21,1.21,0,0,0-1-.38,1.32,1.32,0,0,0-1.31,1.32,19.26,19.26,0,0,1-.17,1.92l-.06.46A20.05,20.05,0,0,0,23,8.11a16,16,0,0,1-2.58,5C10.61,25,10.5,25.56,9.46,31.05l-.25,1.28c-.47,2.56-.81,3.91-2.82,4.22a3.08,3.08,0,0,1-3.75-2.93,5.2,5.2,0,0,1,1.65-3.19,1.32,1.32,0,0,0,.13-1.86,1.32,1.32,0,0,0-1.86-.13A7.68,7.68,0,0,0,0,33.59a5.86,5.86,0,0,0,2.16,4.47,5.47,5.47,0,0,0,3.61,1.18,5.53,5.53,0,0,0,5-2.7,16.28,16.28,0,0,0,1.21-4.4,27.65,27.65,0,0,1,1.37-5.29c.73-1.7,4.39-6.22,7.06-9.51,1.33-1.64,2.42-3,3-3.74l4.56,2.23a28.93,28.93,0,0,0-.42,5.33v.4c0,1.48,0,1.68-1.18,3.29a8.76,8.76,0,0,0-.52.78c-.15.25-.46.79-1.61,11.69a1.31,1.31,0,0,0,.72,1.32l1.21.61a1.32,1.32,0,0,0,1.18-2.36l-.39-.2c.54-5,1.05-9,1.24-9.85.08-.12.19-.28.32-.45,1.64-2.28,1.65-2.94,1.67-4.9V21.2c0-2,.06-5.05,1-6.82.54-1,3.08-1.55,4.15-1.64A1.32,1.32,0,0,0,36.33,12C37,10.77,37.72,9.05,37.45,8ZM27.6,4.68v0a1.26,1.26,0,0,0,.14.57,1.34,1.34,0,0,0,.76.66,9.32,9.32,0,0,1,1.69.82l.23.28.06.08c1,1.29,1.18,1.39,2.45,1.65.43.09,1,.2,1.79.42-.11.32-.26.69-.43,1.07-2.82.41-4.65,1.42-5.57,3.1l-4.16-2c.28-.66.53-1.32.77-2a18.23,18.23,0,0,1,2.19-4.5Z"/><path d="M17.63,27a.91.91,0,0,0-.31,1.8c.05,0,4.57.89,4.46,8.3h-7a.91.91,0,0,0,0,1.82h7.86a.89.89,0,0,0,.9-.85C24.14,28.26,17.7,27,17.63,27Z"/></g></g></g></svg>