<svg xmlns="http://www.w3.org/2000/svg" viewBox="0 0 45 44.78"><title>Download</title><g id="Layer_2" data-name="Layer 2"><g id="Icons"><g id="Download"><polygon points="24.42 38.39 23.89 38.39 23.89 37.85 23.89 28.79 21.11 28.79 21.11 37.85 21.11 38.39 20.58 38.39 16.11 38.39 22.5 44.78 28.89 38.39 24.42 38.39"/><path d="M36.76,13.6l-.41-.07,0-.42a13.84,13.84,0,0,0-27.64,0l0,.42-.41.07A10,10,0,0,0,10,33.48h6.19V30.71H10a7.25,7.25,0,0,1-7.24-7.25c0-5.28,4.39-7.69,8.48-7.69h0c0-4.07,1.11-7.45,3.37-9.81A10.61,10.61,0,0,1,22.5,2.78a10.89,10.89,0,0,1,8.12,3.43,13,13,0,0,1,3.13,9.58c4.27.1,8.47,2.49,8.47,7.67A7.25,7.25,0,0,1,35,30.71H28.79v2.77H35A10,10,0,0,0,36.76,13.6Z"/></g></g></g></svg>