<svg xmlns="http://www.w3.org/2000/svg" viewBox="0 0 60.37 51.41"><title>equestrian</title><g id="Layer_2" data-name="Layer 2"><g id="Icons"><path id="equestrian" d="M59.9,13.45c-.21.34-.78,1.08-.89,1.22-.53.69-.89.45-5-.27A8.51,8.51,0,0,1,50.56,14c-.57.68-1.57,2.63-3.3,7.61-.15,1.78-.57,5.69-1.42,6.86a22.44,22.44,0,0,1-3.2,3.08c-1.51,17.38-1.43,13.78-.79,18.35a1.28,1.28,0,0,1-1.09,1.37l-3.93.16a1.22,1.22,0,0,1-1.11-1.19c-.18-6.38-.11-2.6-.3-17.36a43.39,43.39,0,0,1-8.26-1.23c-2.67-.74-3.45-1.39-4.47-1.48a1.11,1.11,0,0,1,.18-2.21c1.52.12,2.23.81,4.89,1.55A41.38,41.38,0,0,0,35,30.61l-.6-1.23a1.11,1.11,0,0,1,.49-1.5,1.13,1.13,0,0,1,1.5.5l1.07,2.14a1,1,0,0,1,.12.48c.21,16.52.15,13,.29,18l1.56,0c-.51-3.65-.63.55,1-18.07a1.11,1.11,0,0,1,.41-.77,24.92,24.92,0,0,0,3.17-3c.36-.54.82-3.47,1-5.88,0-.49,2.25-6.74,3.75-8.62l-.8-.75a1.11,1.11,0,0,1,1.53-1.62l1.63,1.53a5.51,5.51,0,0,0,2.78.37c.23,0,3.48.57,3.7.61.16-.21.29-.4.35-.49a.74.74,0,0,0,.06-.78L54.43,7.88c-.29-.29-.32-.58-.77-1.92L52.24,5A1.11,1.11,0,0,1,52,3.43a1.1,1.1,0,0,1,1.54-.29l1.73,1.2a1.09,1.09,0,0,1,.43.56l.53,1.59L59.68,10a.46.46,0,0,1,.07.07A2.91,2.91,0,0,1,59.9,13.45Zm-40.42,13c-.4,3.95-2.88,7.9-3.62,8.32s-3,2.53-4.5,3.71c-.77.6-.5,1,.36,7.54a12.68,12.68,0,0,0,.45,1.26H11.09L10,37.57c1.45-2,4.11-6.22,3.42-8.28-.56-1.7-1.51-3.91-1.26-5.41a1.24,1.24,0,0,0-2.44-.41c-.36,2.15.65,4.53,1.35,6.58.14.77-1.42,3.79-3.35,6.47-.39.53-.33,0,1,12.13A1.23,1.23,0,0,0,10,49.76h4a1.24,1.24,0,0,0,1.16-1.68c-1-2.59-1-2-1.7-8.09.53-.44,1.13-1,1.71-1.46S16.75,37.11,17,37c1.81-.91,4.55-6.06,5-10.29A1.24,1.24,0,0,0,19.48,26.45Zm-5-10.7A79,79,0,0,0,26.21,17c3,.05,8.76-.68,11.35-2,4.28-2.12,5.22-7.75,12.95-10.37.56-.19.56-.4,1.87-3a1.11,1.11,0,0,0-2-1l-1,2.05a20.93,20.93,0,0,0-6.08,3.54c-1.67,1.47-4.86,5.87-6.7,6.79-2.23,1.1-7.7,1.77-10.33,1.72a77.12,77.12,0,0,1-11.72-1.21c-1.24-.18-7,2.75-9.14,7.16a1,1,0,0,0-.1.42C5,26.67,3.38,34.93.76,35.8a1.11,1.11,0,0,0,.7,2.11c4.84-1.61,5.86-13.48,6-16.45A13,13,0,0,1,14.47,15.75Zm32.16,18a1.12,1.12,0,0,0-1.21-1,1.11,1.11,0,0,0-1,1.2,34.45,34.45,0,0,0,1.71,5L43,44.91a1.11,1.11,0,0,0,2,1c3.63-6.86,3.67-6.64,3.41-7.29A46.54,46.54,0,0,1,46.63,33.76Z"/></g></g></svg>