<svg xmlns="http://www.w3.org/2000/svg" xmlns:xlink="http://www.w3.org/1999/xlink" width="12" height="12" viewBox="0 0 12 12">
  <defs>
    <path id="external-link-a" d="M147,633.996436 L146.966658,634.131571 L145.793635,638.780836 L145.760293,638.912753 L145.66633,638.816229 L144.453903,637.513147 L141.140945,641.013771 L141.086385,641.071685 L141.031826,641.013771 L140.38924,640.331664 L140.337712,640.273749 L140.38924,640.219052 L143.690073,636.715211 L142.462491,635.428217 L142.368527,635.328475 L142.495832,635.28343 L146.875726,634.031829 L147,633.996436 Z M145.054054,640.431406 L144.978277,640.431406 L144.978277,644.894057 L135.945693,644.894057 L135.945693,636.419202 L141.198535,636.419202 L141.198535,635.415347 L135,635.415347 L135,645.90113 L145.911846,645.90113 L145.911846,640.431406 L145.054054,640.431406 Z"/>
  </defs>
  <use transform="translate(-135 -634)" xlink:href="#external-link-a"/>
</svg>
