<svg xmlns="http://www.w3.org/2000/svg" viewBox="0 0 46.67 44"><title>filter</title><g id="Layer_2" data-name="Layer 2"><g id="Icons"><g id="filter"><path d="M19.4,6.33a7.49,7.49,0,0,0-14.8,0H0v3H4.74a7.48,7.48,0,0,0,14.52,0H46.67v-3ZM12,12a4.5,4.5,0,1,1,4.5-4.5A4.51,4.51,0,0,1,12,12Z"/><path d="M12,29a7.5,7.5,0,0,0-7.4,6.33H0v3H4.74a7.48,7.48,0,0,0,14.52,0H46.67v-3H19.4A7.5,7.5,0,0,0,12,29Zm0,12a4.5,4.5,0,1,1,4.5-4.5A4.51,4.51,0,0,1,12,41Z"/><path d="M35,14a7.5,7.5,0,0,0-7.4,6.33H0v3H27.74a7.48,7.48,0,0,0,14.52,0h4.41v-3H42.4A7.5,7.5,0,0,0,35,14Zm0,12a4.5,4.5,0,1,1,4.5-4.5A4.51,4.51,0,0,1,35,26Z"/></g></g></g></svg>