<svg xmlns="http://www.w3.org/2000/svg" viewBox="0 0 28.74 40.83"><title>flower-generic</title><g id="Layer_2" data-name="Layer 2"><g id="Icons"><g id="flower-generic"><path d="M1.45,29.45A.49.49,0,0,1,1,29L0,23.34a.46.46,0,0,1,.11-.4.49.49,0,0,1,.38-.18H1.92a.5.5,0,0,1,.5.5.5.5,0,0,1-.5.5H1.09l.85,5.11a.51.51,0,0,1-.41.58Z"/><path d="M18.35,23.76H16.16a.5.5,0,0,1-.5-.5.51.51,0,0,1,.5-.5h2.19a.5.5,0,0,1,.5.5A.5.5,0,0,1,18.35,23.76Z"/><path d="M26.58,29.45H26.5a.51.51,0,0,1-.41-.58l.85-5.11h-3.1a.5.5,0,0,1-.5-.5.51.51,0,0,1,.5-.5h3.69a.49.49,0,0,1,.38.18.46.46,0,0,1,.11.4L27.08,29A.51.51,0,0,1,26.58,29.45Z"/><path d="M2.4,34.64l.75,4.5a1.42,1.42,0,0,0,1.4,1.19H23.48a1.41,1.41,0,0,0,1.4-1.19l.75-4.5"/><path d="M23.48,40.83H4.55a1.92,1.92,0,0,1-1.9-1.6L1.9,34.72a.5.5,0,0,1,1-.16l.75,4.5a.91.91,0,0,0,.91.77H23.48a.91.91,0,0,0,.91-.77l.75-4.5a.5.5,0,0,1,1,.16l-.75,4.51A1.92,1.92,0,0,1,23.48,40.83Z"/><circle cx="11.13" cy="8.32" r="1.42"/><path d="M11.13,10.25a1.93,1.93,0,1,1,1.92-1.93A1.94,1.94,0,0,1,11.13,10.25Zm0-2.85a.93.93,0,1,0,.92.92A.93.93,0,0,0,11.13,7.4Z"/><path d="M7.1,14.21a3.72,3.72,0,0,1-3.18-1.72,3.34,3.34,0,0,1,.66-4.17,3.26,3.26,0,0,1-1-1.62A3.35,3.35,0,0,1,7.85,2.65a3.35,3.35,0,0,1,6.62.7.5.5,0,0,1-1,0,2.35,2.35,0,1,0-4.69,0,.52.52,0,0,1-.25.43A.57.57,0,0,1,8,3.8,2.35,2.35,0,0,0,5.64,7.87a.5.5,0,0,1,.25.43.59.59,0,0,1-.25.48A2.36,2.36,0,0,0,4.78,12,2.83,2.83,0,0,0,7.5,13.18a.49.49,0,0,1,.57.42.51.51,0,0,1-.43.57A4.56,4.56,0,0,1,7.1,14.21Z"/><path d="M17.77,12.92a.47.47,0,0,1-.25-.07.49.49,0,0,1-.18-.68,2.72,2.72,0,0,0,.29-1.9,2.2,2.2,0,0,0-1-1.49.5.5,0,0,1-.25-.43.59.59,0,0,1,.25-.48A2.34,2.34,0,0,0,17.7,6.44a2.32,2.32,0,0,0-.23-1.78,2.36,2.36,0,0,0-3.21-.86.49.49,0,0,1-.68-.18.5.5,0,0,1,.18-.68,3.35,3.35,0,0,1,3.91,5.39,3.58,3.58,0,0,1,.53,4.34A.5.5,0,0,1,17.77,12.92Z"/><circle cx="8.99" cy="21.13" r="1.42"/><path d="M9,23.05a1.92,1.92,0,1,1,1.92-1.92A1.92,1.92,0,0,1,9,23.05Zm0-2.84a.92.92,0,1,0,.92.92A.92.92,0,0,0,9,20.21Z"/><path d="M9,29.45A3.35,3.35,0,0,1,5.72,26.8a3.35,3.35,0,0,1-3.28-5.67A3.36,3.36,0,0,1,1.78,17a3.31,3.31,0,0,1,2-1.56,3.35,3.35,0,0,1,1.91.05,3.35,3.35,0,0,1,6.55,0A3.34,3.34,0,0,1,16.2,17a3.36,3.36,0,0,1-.66,4.16,3.35,3.35,0,0,1-3.27,5.67A3.36,3.36,0,0,1,9,29.45ZM6.1,25.58a.45.45,0,0,1,.25.07.61.61,0,0,1,.3.46,2.35,2.35,0,0,0,4.69,0,.5.5,0,0,1,.25-.44.6.6,0,0,1,.54,0,2.35,2.35,0,1,0,2.35-4.06.5.5,0,0,1-.25-.44.57.57,0,0,1,.25-.48,2.34,2.34,0,0,0,.85-3.2,2.33,2.33,0,0,0-3.2-.86.51.51,0,0,1-.53,0,.49.49,0,0,1-.26-.44,2.35,2.35,0,1,0-4.69,0,.5.5,0,0,1-.25.43.59.59,0,0,1-.55,0,2.31,2.31,0,0,0-1.78-.24,2.35,2.35,0,0,0-.56,4.3.5.5,0,0,1,.25.43.61.61,0,0,1-.25.49,2.34,2.34,0,0,0,2.34,4.06A.47.47,0,0,1,6.1,25.58Z"/><circle cx="21.08" cy="17.57" r="1.42"/><path d="M21.08,19.49A1.92,1.92,0,1,1,23,17.57,1.92,1.92,0,0,1,21.08,19.49Zm0-2.84a.92.92,0,1,0,.93.92A.92.92,0,0,0,21.08,16.65Z"/><path d="M14.05,16.41a.5.5,0,0,1-.49-.37,3.59,3.59,0,0,1,.32-2.63,3.34,3.34,0,0,1,3.93-1.51,3.35,3.35,0,0,1,6.62.69.5.5,0,0,1-1,0,2.35,2.35,0,0,0-4.69,0,.52.52,0,0,1-.25.44.63.63,0,0,1-.55,0,2.35,2.35,0,0,0-1.78-.23,2.32,2.32,0,0,0-1.42,1.09,2.66,2.66,0,0,0-.21,1.88.5.5,0,0,1-.36.61Z"/><path d="M21.08,25.9a3.36,3.36,0,0,1-3.34-3.24.53.53,0,0,1,0-.37.48.48,0,0,1,.66-.2.58.58,0,0,1,.3.46,2.35,2.35,0,1,0,4.69,0,.49.49,0,0,1,.25-.43.58.58,0,0,1,.54,0,2.32,2.32,0,0,0,1.78.24,2.35,2.35,0,0,0,1.66-2.88A2.32,2.32,0,0,0,26.57,18a.48.48,0,0,1-.25-.43.58.58,0,0,1,.25-.49,2.32,2.32,0,0,0,1.09-1.42,2.35,2.35,0,0,0-3.44-2.64.5.5,0,0,1-.5-.86,3.34,3.34,0,0,1,3.91,5.38,3.33,3.33,0,0,1,1,1.63,3.3,3.3,0,0,1-.34,2.53,3.26,3.26,0,0,1-2,1.56,3.32,3.32,0,0,1-1.9-.05A3.36,3.36,0,0,1,21.08,25.9Z"/><path d="M26.11,32.3H1.92a1.93,1.93,0,0,1,0-3.85H26.11a1.93,1.93,0,0,1,0,3.85ZM1.92,29.45a.93.93,0,0,0,0,1.85H26.11a.93.93,0,0,0,0-1.85Z"/><path d="M26.11,35.14H1.92a1.92,1.92,0,0,1,0-3.84H26.11a1.92,1.92,0,1,1,0,3.84ZM1.92,32.3a.92.92,0,0,0,0,1.84H26.11a.92.92,0,0,0,0-1.84Z"/></g></g></g></svg>