<?xml version="1.0" encoding="utf-8"?>
<!-- Generator: Adobe Illustrator 26.0.1, SVG Export Plug-In . SVG Version: 6.00 Build 0)  -->
<svg version="1.1" id="Layer_1" xmlns="http://www.w3.org/2000/svg" xmlns:xlink="http://www.w3.org/1999/xlink" x="0px" y="0px"
	 viewBox="0 0 40 30" style="enable-background:new 0 0 40 30;" xml:space="preserve">
<style type="text/css">
	.st0{fill:#0C223F;}
</style>
<g id="icons_x2F_home-specs_x2F_bathrooms">
	<path id="bathroom" class="st0" d="M38.8,13.5c-0.1-0.1-0.3-0.2-0.4-0.1c-6,0.7-12,1.1-18.1,1.2c-5.4,0-11.3-0.5-14.8-0.8V3.2
		c0-1,0.8-1.8,1.8-1.8c1.9,0,2.3,2.1,2.4,2.3C9.1,4,8.7,4.6,8.6,5.2C8.4,5.9,8.5,6.7,8.7,7.4c0.1,0.2,0.2,0.3,0.4,0.3
		c0,0,0.1,0,0.1,0l4.3-1.4c0.2-0.1,0.4-0.3,0.3-0.5c-0.4-1.4-1.5-2.7-3.2-2.4c-0.3-1.1-1.2-2.9-3.3-2.9c-1.5,0-2.8,1.2-2.8,2.7v10.4
		c-1.5-0.2-2.5-0.3-2.5-0.3c-0.1,0-0.3,0-0.4,0.1c-0.1,0.1-0.1,0.3-0.1,0.4l0.7,2.8c0.8,5.5,3.8,9.1,8.1,10c0,0,0,0,0,0.1v2.8
		c0,0.2,0.2,0.4,0.4,0.4h1.8c0.2,0,0.4-0.1,0.4-0.3l0.7-2.8h14.5l0.7,2.8c0,0.2,0.2,0.3,0.4,0.3h1.7c0.2,0,0.4-0.2,0.4-0.4v-2.9
		c0-0.1,0-0.2-0.1-0.3c3.6-1.1,5.9-4.3,7.1-9.8l0.7-2.8C38.9,13.8,38.9,13.6,38.8,13.5z M10.5,4.3c0.2-0.1,0.4-0.1,0.6-0.1
		c0.8,0.1,1.5,0.7,1.7,1.5l-3.4,1c-0.1-0.4-0.1-0.9,0-1.3C9.5,4.9,10,4.4,10.5,4.3z M12.2,29.2h-1v-2.3c0.5,0.1,1,0.1,1.5,0.1
		L12.2,29.2z M30.4,26.8v2.4h-1l-0.5-2.3c0.5,0,1-0.1,1.5-0.2C30.5,26.7,30.4,26.8,30.4,26.8z M37.9,14.4l-0.5,2.2
		c-1.5,6.6-4.4,9.5-9.5,9.5H12.7c-5.1,0-8.7-3.6-9.6-9.5l-0.5-2.2c5.9,0.7,11.8,1.1,17.7,1.2C26.2,15.5,32.1,15.1,37.9,14.4z
		 M13.5,7.6L13.5,7.6c0.1,0,0.1,0,0.1,0.1l0,0l3.8,5.5c0,0,0,0.1,0,0.1c0,0,0,0.1-0.1,0.1c0,0-0.1,0-0.1,0c-0.1,0-0.1,0-0.1-0.1l0,0
		l-3.8-5.5c0,0,0-0.1,0-0.1C13.4,7.7,13.4,7.6,13.5,7.6C13.5,7.6,13.5,7.6,13.5,7.6L13.5,7.6z M11.9,8.2c0.1,0,0.2,0,0.2,0.1l0,0
		l2.1,4.3c0,0,0,0.1,0,0.1s0,0.1-0.1,0.1c0,0,0,0-0.1,0c-0.1,0-0.1,0-0.1-0.1l0,0l-2.1-4.3C11.7,8.3,11.8,8.2,11.9,8.2z M10.4,8.5
		c0.1,0,0.2,0.1,0.2,0.1l0,0l0.5,4c0,0.1-0.1,0.2-0.1,0.2l0,0l0,0c-0.1,0-0.1-0.1-0.1-0.1l0,0l-0.5-4C10.2,8.6,10.3,8.5,10.4,8.5z"
		/>
</g>
</svg>
