<svg xmlns="http://www.w3.org/2000/svg" xmlns:xlink="http://www.w3.org/1999/xlink" width="14" height="14" viewBox="0 0 14 14">
  <defs>
    <path id="fullscreen-a" d="M3.33333333,8.63213429 L3.33333333,3.33333333 L8.63213429,3.33333333 L8.63213429,4.86810552 L4.86810552,4.86810552 L4.86810552,8.61678657 L3.33333333,8.63213429 Z M8.63213429,16.6666667 L8.63213429,15.1318945 L4.86810552,15.1318945 L4.86810552,11.3678657 L3.33333333,11.3678657 L3.33333333,16.6666667 L8.63213429,16.6666667 Z M16.6666667,8.63213429 L16.6666667,3.33333333 L11.3678657,3.33333333 L11.3678657,4.86810552 L15.1165468,4.86810552 L15.1165468,8.61678657 L16.6666667,8.63213429 Z M16.6666667,16.6666667 L16.6666667,11.3678657 L15.1318945,11.3678657 L15.1318945,15.1165468 L11.3678657,15.1165468 L11.3678657,16.6513189 L16.6666667,16.6666667 Z"/>
  </defs>
  <use fill-rule="evenodd" transform="translate(-3 -3)" xlink:href="#fullscreen-a"/>
</svg>
