<svg xmlns="http://www.w3.org/2000/svg" viewBox="0 0 48.73 48.89"><title>garage</title><g id="Layer_2" data-name="Layer 2"><g id="Icons"><g id="garage"><polygon points="24.36 0 0 16.41 0 48.89 2 48.89 2 17.47 24.36 2.41 46.73 17.47 46.73 48.89 48.73 48.89 48.73 16.41 24.36 0"/><path d="M7.81,48.54H41.28V24.6H7.81Zm2-7.15H18.3v5.15H9.81Zm19.46-7.16v5.16h-9V34.23Zm-9-2V26.6h9v5.63Zm11,2h8v5.16h-8Zm-2,7.16v5.15h-9V41.39Zm-11-2H9.81V34.23H18.3Zm13,7.15V41.39h8v5.15Zm8-14.31h-8V26.6h8Zm-21-5.63v5.63H9.81V26.6Z"/><path d="M11.68,16v6.29H37.05V16Zm17.59,2v2.29h-9V18ZM13.68,18H18.3v2.29H13.68Zm21.37,2.29H31.27V18h3.78Z"/></g></g></g></svg>