<?xml version="1.0" encoding="UTF-8"?>
<svg width="25px" height="28px" viewBox="0 0 25 28" version="1.1" xmlns="http://www.w3.org/2000/svg" xmlns:xlink="http://www.w3.org/1999/xlink">
    <title>icon</title>
    <g id="Desktop" stroke="none" stroke-width="1" fill="none" fill-rule="evenodd">
        <g id="Amenities---No-Imagery" transform="translate(-764.000000, -1106.000000)" fill="#000000">
            <g id="amenities---no-imagery" transform="translate(0.000000, 74.000000)">
                <g id="listings" transform="translate(60.000000, 901.000000)">
                    <g id="icon" transform="translate(700.000000, 129.000000)">
                        <path d="M27.590366,24.6205892 C27.4192471,24.4465485 27.1830934,24.3495245 26.9372729,24.3522653 C26.8714033,24.3472152 26.8052355,24.3472152 26.7393659,24.3522653 C24.733849,24.7524491 22.8212458,25.5167381 21.0990165,26.6061864 L17.0369754,18.1661788 L20.0055803,11.9313062 L20.8813188,11.1897564 L20.8813188,11.1897564 L20.8813188,11.1604847 L24.3446912,3.9547673 C24.4075248,3.79804791 24.4075248,3.62362498 24.3446912,3.46690559 C24.2850209,3.30252758 24.1624888,3.16769744 24.0033017,3.09125208 L23.2957842,2.73023441 C23.2094415,2.68881232 23.1147334,2.66713337 23.0187144,2.66673594 C22.7608361,2.66673594 22.5258901,2.81285067 22.415098,3.04246591 L18.9517256,10.2579406 L18.9517256,10.2872123 L18.9517256,10.316484 L18.8973011,11.4483231 L16.3393532,16.7562585 L13.7814052,11.4483231 L13.7517192,10.3311198 L13.7517192,10.3018481 L13.7517192,10.2725764 L10.268556,3.04246591 C10.1559239,2.81446864 9.92212843,2.66896881 9.66493969,2.66673594 C9.5655435,2.6652727 9.46719507,2.68700863 9.37797454,2.73023441 L8.59129423,3.09613069 C8.43087451,3.17240648 8.30671894,3.30707139 8.24495698,3.47178421 C8.18945351,3.63193327 8.20011774,3.80718969 8.27464303,3.95964592 L11.7380155,11.1653633 L11.7380155,11.194635 L11.7627539,11.194635 L12.6335447,11.9361848 L15.626888,18.1710575 L11.5697945,26.611065 C9.8471416,25.5224237 7.93469629,24.7581978 5.92944511,24.3571439 C5.86356618,24.3523367 5.79741704,24.3523367 5.73153811,24.3571439 C5.49009156,24.3568837 5.25854035,24.451724 5.08834037,24.6205892 C4.34224851,25.4126933 3.95161261,26.4679906 4.00479955,27.5477595 C4.05296922,28.3221207 4.63461187,28.9622869 5.40993924,29.0942811 C6.26011456,29.2347376 7.12070479,29.3049085 7.98273021,29.3040616 C9.10402283,29.3032298 10.2219921,29.1838342 11.3174631,28.9479226 C11.703755,28.8603689 12.0281943,28.6033618 12.1981493,28.2502803 L16.3393532,19.6248853 L20.4855048,28.279552 C20.6532399,28.6323963 20.9761477,28.8896354 21.3612433,28.9771943 C22.4583426,29.2133786 23.5779813,29.3327753 24.7009238,29.3333333 C25.5563525,29.3333333 26.4103001,29.2631981 27.2539241,29.1235528 C28.0301852,28.9932239 28.6126751,28.3521252 28.6590638,27.5770312 C28.7267146,26.4890675 28.3406568,25.4210786 27.590366,24.6205892 Z M21.6531561,27.7380255 C23.2323963,26.7294477 24.9842576,26.0120355 26.8234764,25.6207057 C27.2621482,26.1402815 27.4848997,26.8044386 27.4468834,27.4794588 C27.4383041,27.6761296 27.2922101,27.8404739 27.0955985,27.8746268 C26.2877374,28.0066019 25.4703196,28.0734973 24.6514471,28.0746501 C23.6532322,28.0744121 22.6579502,27.9680948 21.6828421,27.75754 L21.6828421,27.75754 C21.6828421,27.75754 21.6383131,27.7672972 21.6284177,27.75754 L21.6531561,27.7380255 Z M11.075027,27.7380255 L11.075027,27.7672972 C10.0990201,27.9712374 9.10410279,28.0742456 8.10642208,28.0746501 C7.28918226,28.0736877 6.47339249,28.00679 5.66721833,27.8746268 C5.47131827,27.8412546 5.32407924,27.6799392 5.31098574,27.4843374 C5.26434168,26.8215695 5.46689475,26.1650791 5.87996836,25.6402202 C7.71948379,26.0306143 9.47151138,26.7480945 11.0502887,27.75754 L11.075027,27.7380255 Z" id="icon-golf"></path>
                    </g>
                </g>
            </g>
        </g>
    </g>
</svg>