<svg xmlns="http://www.w3.org/2000/svg" viewBox="0 0 41.52 37.1"><title>group-generic</title><g id="Layer_2" data-name="Layer 2"><g id="Icons"><g id="group-generic"><path d="M20.76,8.69h0a3.88,3.88,0,0,1-3.87-3.88V4.13A3.88,3.88,0,0,1,20.76.25,3.81,3.81,0,0,1,23.5,1.39a3.81,3.81,0,0,1,1.14,2.74v.68a3.89,3.89,0,0,1-3.88,3.88Zm0-7.39a2.83,2.83,0,0,0-2.82,2.83v.68a2.82,2.82,0,0,0,2.82,2.82h0a2.8,2.8,0,0,0,2-.82,2.85,2.85,0,0,0,.83-2V4.13A2.83,2.83,0,0,0,20.76,1.3Z" style="stroke:#1d1d1b;stroke-miterlimit:10;stroke-width:0.5px"/><rect x="16.56" y="15.29" width="1.05" height="21.56" style="stroke:#1d1d1b;stroke-miterlimit:10;stroke-width:0.5px"/><rect x="23.91" y="15.29" width="1.05" height="21.57" style="stroke:#1d1d1b;stroke-miterlimit:10;stroke-width:0.5px"/><rect x="20.23" y="23.26" width="1.05" height="13.59" style="stroke:#1d1d1b;stroke-miterlimit:10;stroke-width:0.5px"/><path d="M26.28,23.79H24.43V22.74h1.85a.69.69,0,0,0,.69-.69V13.61a2.55,2.55,0,0,0-1.75-2.43,14.14,14.14,0,0,0-8.91,0,2.55,2.55,0,0,0-1.76,2.43V22a.69.69,0,0,0,.69.7h1.85v1.05H15.24A1.74,1.74,0,0,1,13.5,22V13.61A3.6,3.6,0,0,1,16,10.18a15.31,15.31,0,0,1,9.58,0A3.61,3.61,0,0,1,28,13.61v8.44A1.74,1.74,0,0,1,26.28,23.79Z" style="stroke:#1d1d1b;stroke-miterlimit:10;stroke-width:0.5px"/><path d="M34,11a3.86,3.86,0,0,1-3.87-3.87V6.46a3.88,3.88,0,0,1,7.75,0v.69A3.88,3.88,0,0,1,34,11Zm0-7.38a2.82,2.82,0,0,0-2.82,2.82v.69a2.82,2.82,0,0,0,5.64,0V6.46A2.82,2.82,0,0,0,34,3.64Z" style="stroke:#1d1d1b;stroke-miterlimit:10;stroke-width:0.5px"/><path d="M7.51,11h0A3.88,3.88,0,0,1,3.64,7.14V6.46A3.84,3.84,0,0,1,4.77,3.72,3.89,3.89,0,0,1,7.51,2.58h0a3.88,3.88,0,0,1,3.87,3.88v.68A3.88,3.88,0,0,1,7.51,11Zm0-7.38a2.8,2.8,0,0,0-2,.82,2.85,2.85,0,0,0-.83,2v.68a2.83,2.83,0,1,0,5.65,0V6.46A2.82,2.82,0,0,0,7.52,3.64Z" style="stroke:#1d1d1b;stroke-miterlimit:10;stroke-width:0.5px"/><rect x="37.15" y="17.62" width="1.05" height="19.23" style="stroke:#1d1d1b;stroke-miterlimit:10;stroke-width:0.5px"/><path d="M39.53,26.13H37.68V25.07h1.85a.69.69,0,0,0,.69-.69V15.94a2.56,2.56,0,0,0-1.75-2.43,14.32,14.32,0,0,0-8.92,0l-.33-1a15.31,15.31,0,0,1,9.58,0,3.59,3.59,0,0,1,2.47,3.42v8.44A1.75,1.75,0,0,1,39.53,26.13Z" style="stroke:#1d1d1b;stroke-miterlimit:10;stroke-width:0.5px"/><rect x="29.81" y="17.62" width="1.05" height="19.23" style="stroke:#1d1d1b;stroke-miterlimit:10;stroke-width:0.5px"/><rect x="33.48" y="25.6" width="1.05" height="11.25" style="stroke:#1d1d1b;stroke-miterlimit:10;stroke-width:0.5px"/><rect x="3.32" y="17.62" width="1.05" height="19.23" style="stroke:#1d1d1b;stroke-miterlimit:10;stroke-width:0.5px"/><rect x="6.99" y="25.6" width="1.05" height="11.25" style="stroke:#1d1d1b;stroke-miterlimit:10;stroke-width:0.5px"/><rect x="10.66" y="17.62" width="1.05" height="19.23" style="stroke:#1d1d1b;stroke-miterlimit:10;stroke-width:0.5px"/><path d="M3.84,26.12H2A1.74,1.74,0,0,1,.25,24.38V15.94a3.61,3.61,0,0,1,2.48-3.43,15.35,15.35,0,0,1,9.57,0l-.33,1a14.28,14.28,0,0,0-8.91,0A2.56,2.56,0,0,0,1.3,15.94v8.44a.69.69,0,0,0,.69.69H3.84Z" style="stroke:#1d1d1b;stroke-miterlimit:10;stroke-width:0.5px"/></g></g></g></svg>