<svg xmlns="http://www.w3.org/2000/svg" viewBox="0 0 59.1 29.55"><title>gym-general</title><g id="Layer_2" data-name="Layer 2"><g id="Icons"><g id="gym_general" data-name="gym general"><path d="M4.93,18.47H2.46C1,18.47,0,16.92,0,14.78s1-3.7,2.46-3.7H4.93a1.23,1.23,0,1,1,0,2.46H2.71a2.72,2.72,0,0,0-.25,1.24A2.7,2.7,0,0,0,2.71,16H4.93a1.23,1.23,0,1,1,0,2.46Z" style="fill:#231f20"/><path d="M49.25,29.55H41.86c-5,0-8.62-6.21-8.62-14.77S36.87,0,41.86,0h7.39a1.23,1.23,0,0,1,0,2.46H41.86c-3.51,0-6.15,5.3-6.15,12.32s2.64,12.31,6.15,12.31h7.39a1.23,1.23,0,0,1,0,2.46Z" style="fill:#231f20"/><path d="M19.7,27.09c-2.42,0-4.92-4.61-4.92-12.31S17.28,2.46,19.7,2.46c2.15,0,4.36,3.64,4.83,9.85H27C26.47,5,23.62,0,19.7,0H12.31c-5,0-8.62,6.21-8.62,14.78s3.63,14.77,8.62,14.77H19.7c3.92,0,6.77-4.95,7.29-12.31H24.53C24.06,23.45,21.85,27.09,19.7,27.09ZM6.16,14.78c0-7,2.64-12.32,6.15-12.32H15.4C13.48,5,12.31,9.39,12.31,14.78s1.17,9.75,3.09,12.31H12.31C8.8,27.09,6.16,21.79,6.16,14.78Z" style="fill:#231f20"/><path d="M54.08,17.24c-.47,6.21-2.68,9.85-4.83,9.85-2.42,0-4.92-4.61-4.92-12.31s2.5-12.32,4.92-12.32c2.15,0,4.36,3.64,4.83,9.85h2.46C56,5,53.17,0,49.25,0c-4.35,0-7.39,6.08-7.39,14.78s3,14.77,7.39,14.77c3.92,0,6.77-4.95,7.29-12.31Z" style="fill:#231f20"/><path d="M34.48,18.47H20.93c-1.43,0-2.46-1.55-2.46-3.69s1-3.7,2.46-3.7H33.24a1.24,1.24,0,1,1,0,2.47H21.18a2.63,2.63,0,0,0-.25,1.23A2.7,2.7,0,0,0,21.18,16h13.3a1.23,1.23,0,0,1,0,2.46Z" style="fill:#231f20"/><path d="M56.64,18.47H50.48c-1.43,0-2.46-1.55-2.46-3.69s1-3.7,2.46-3.7h6.16c1.42,0,2.46,1.56,2.46,3.7S58.06,18.47,56.64,18.47ZM50.73,16h5.66a2.67,2.67,0,0,0,.25-1.23,2.63,2.63,0,0,0-.25-1.23H50.73a2.72,2.72,0,0,0-.25,1.24A2.7,2.7,0,0,0,50.73,16Z" style="fill:#231f20"/></g></g></g></svg>