<?xml version="1.0" encoding="utf-8"?>
<!-- Generator: Adobe Illustrator 26.0.1, SVG Export Plug-In . SVG Version: 6.00 Build 0)  -->
<svg version="1.1" id="Layer_1" xmlns="http://www.w3.org/2000/svg" xmlns:xlink="http://www.w3.org/1999/xlink" x="0px" y="0px"
	 viewBox="0 0 40 30" style="enable-background:new 0 0 40 30;" xml:space="preserve">
<style type="text/css">
	.st0{fill:#0C223F;}
</style>
<g>
	<path id="half-baths" class="st0" d="M28.8,20c1.2-2,1.7-4.5,1.3-6.9v-0.3c0-0.4-0.3-0.7-0.7-0.6h-1.4l0.8-12.1H11.3l0.9,12.1h-1.7
		c-0.3,0-0.6,0.2-0.7,0.6C9.3,15.2,9.7,17.8,11,20c1.1,1.8,2.7,3.1,4.6,3.7L12.7,30h15.3L25,23.7C26.5,22.8,27.9,21.5,28.8,20z
		 M27.5,1.7l-0.8,10.5H13.5L12.7,1.7H27.5z M11,14.9c0-0.4,0-0.9,0.1-1.3h17.8c0,0.4,0.1,0.9,0.1,1.3H11z M23.8,22.7
		c-0.2,0.1-0.3,0.2-0.4,0.4c-0.1,0.2-0.1,0.4,0,0.6l2.3,4.9H15l2.1-4.9c0.1-0.2,0.1-0.4,0-0.6c-0.1-0.2-0.2-0.3-0.4-0.4
		c-1.9-0.5-3.5-1.7-4.6-3.4c-0.6-1-1-2.1-1.1-3.3h17.8c-0.1,1.2-0.5,2.3-1.1,3.3C26.7,20.8,25.4,22,23.8,22.7z M22.9,4.2
		c0,0,0.3-0.6,0.6-0.6h2.4c0.3,0,0.6,0.6,0.6,0.6s-0.2,0.6-0.6,0.6h-2.4C23.1,4.8,22.9,4.2,22.9,4.2z"/>
</g>
</svg>
