<svg xmlns="http://www.w3.org/2000/svg" viewBox="0 0 32.61 45"><title>Half-Bath</title><g id="Layer_2" data-name="Layer 2"><g id="Icons"><g id="Half-Bath"><path d="M30.36,30a14.87,14.87,0,0,0,2.07-10.38c0-.16,0-.3,0-.41a1.07,1.07,0,0,0-1.07-1H29.08L30.41,0H2.68L4,18.24H1.4a1.08,1.08,0,0,0-1,.83A14.66,14.66,0,0,0,2.19,30a14.32,14.32,0,0,0,7.3,5.64L5,45l24.11,0-4.82-9.4A16.71,16.71,0,0,0,30.36,30ZM28.18,2.48,26.94,18.24H6.18L4.91,2.48Zm-26,19.89a13.69,13.69,0,0,1,.13-2H30.35a15.93,15.93,0,0,1,.11,2ZM22.37,34.1a1.07,1.07,0,0,0-.57.61,1.09,1.09,0,0,0,0,.83l3.55,7.34H8.58l3.35-7.45a1.12,1.12,0,0,0,0-.88,1.1,1.1,0,0,0-.65-.58l-.06,0A12.73,12.73,0,0,1,4,28.84,12,12,0,0,1,2.26,23.9H30.35a11.48,11.48,0,0,1-1.79,4.92A14.54,14.54,0,0,1,22.37,34.1Z"/><path d="M21.83,7.07h3.83c.51,0,.92-.92.92-.92s-.41-.92-.92-.92H21.83c-.51,0-.92.92-.92.92S21.32,7.07,21.83,7.07Z"/></g></g></g></svg>