<?xml version="1.0" encoding="UTF-8"?>
<svg width="40px" height="33px" viewBox="0 0 40 33" version="1.1" xmlns="http://www.w3.org/2000/svg" xmlns:xlink="http://www.w3.org/1999/xlink">
    <title>icons/building/single family</title>
    <g id="Concept-8-8" stroke="none" stroke-width="1" fill="none" fill-rule="evenodd">
        <g id="Home" transform="translate(-674.000000, -995.000000)" fill="#7EC093">
            <g id="icons/building/single-family" transform="translate(674.000000, 995.000000)">
                <path d="M11.5973403,23.6957194 C11.7864314,23.6952842 11.9466795,23.8545184 11.9891497,24.0716853 L11.9993815,24.1556397 L11.9993815,32.4492533 C12.0186427,32.6374522 11.9470926,32.8223032 11.815682,32.9238442 C11.6842715,33.0253853 11.5165944,33.0253853 11.3851839,32.9238442 C11.2725463,32.8368091 11.2038878,32.6885665 11.1986993,32.5294718 L11.2014845,32.4492533 L11.2014845,24.6758755 L8.78923767,24.6758755 L8.78923767,32.4794119 C8.78923767,32.750074 8.60923772,32.969489 8.38719654,32.969489 C8.18735947,32.969489 8.02157581,32.7917628 7.99041744,32.5589049 L7.9851554,32.4794119 L7.9851554,24.1857983 C7.9851554,24.0558218 8.02751319,23.9311687 8.10291053,23.8392614 C8.1632284,23.7657356 8.24073884,23.7179848 8.32392381,23.7018255 L8.38719654,23.6957194 L11.5973403,23.6957194 Z M18.8278955,0.0815415837 C18.9455759,-0.0116487977 19.0923808,-0.0249617093 19.2183825,0.0416028488 L19.2794186,0.0815415837 L23.9802072,4.26604659 C24.0315449,4.31236568 24.0724864,4.37310372 24.099807,4.44262066 L24.1224679,4.51485499 L25.2543683,3.65533505 C25.3687581,3.56442427 25.5116455,3.55143702 25.6341774,3.61637329 L25.693521,3.65533505 L36.5671873,12.3485499 C36.704206,12.434221 36.7890421,12.6077684 36.7856405,12.7954348 C36.7822389,12.9831013 36.6911973,13.1519118 36.5512081,13.2301222 C36.4312174,13.2971597 36.293337,13.2875374 36.18155,13.2082492 L36.1280346,13.162832 L35.812587,12.9140236 L35.812587,18.1917777 C36.5733725,18.463205 37.1733416,19.6770884 37.482604,21.1397803 C37.6471178,21.0192316 37.8349706,20.9541784 38.0269058,20.9512891 C39.1897325,20.9512891 40,23.4242938 40,25.6258712 C40,28.2407156 39.2628018,29.1432204 38.4969428,29.3752947 L38.4227617,29.3956956 L38.4227617,32.411555 C38.4420229,32.5997539 38.3704728,32.784605 38.2390623,32.886146 C38.1076517,32.987687 37.9399747,32.987687 37.8085641,32.886146 C37.6959265,32.7991108 37.627268,32.6508683 37.6220795,32.4917736 L37.6248647,32.411555 L37.6248647,29.3956956 C36.9020017,29.1769879 36.356464,28.4526179 36.2393691,27.5560213 C36.1472943,27.5978756 36.0530478,27.632037 35.9572854,27.658297 L35.812587,27.691735 L35.812587,32.4492533 C35.812587,32.7199154 35.632587,32.9393304 35.4105458,32.9393304 C35.2107088,32.9393304 35.0449251,32.7616043 35.0137668,32.5287463 L35.0085047,32.4492533 L35.0085047,27.6464971 C34.1301995,27.412768 33.27045,26.4401533 33.27045,23.4242938 C33.27045,21.3568702 33.9162458,19.0153296 34.9016411,18.3337595 L35.0085047,18.2671741 L35.0085047,12.5521205 C35.0107043,12.5011916 35.0189414,12.4510571 35.0328696,12.4032483 L35.0579867,12.3334706 L25.470852,4.65056867 L15.7600124,12.2882328 C15.7878787,12.3408104 15.8076166,12.3988635 15.8184871,12.4595265 L15.8280501,12.5521205 L15.8280501,32.4567929 C15.8029448,32.7020936 15.6318972,32.8862005 15.4291016,32.8862005 C15.2488389,32.8862005 15.0936609,32.7407333 15.0437701,32.5361248 L15.0301531,32.4567929 L15.0301531,32.3286189 L14.4425545,32.8940925 C14.4168383,32.9209126 14.38355,32.9344385 14.3497758,32.9317908 C14.3025222,32.9315244 14.2575731,32.9068681 14.2260708,32.8639339 C14.1789216,32.8052991 14.1694917,32.7184998 14.1977813,32.6485991 L14.2260708,32.6000462 L15.0054121,31.8460814 L15.0054121,30.6472772 L14.3868873,31.2353698 C14.3548704,31.2491682 14.3199402,31.2491682 14.2879233,31.2353698 C14.2424725,31.2349042 14.1994915,31.2100866 14.1704036,31.167513 C14.140505,31.1333081 14.1235446,31.0855517 14.1235446,31.0355691 C14.1235446,31.0022474 14.1310825,30.9699151 14.1449667,30.9419279 L14.1704036,30.9036253 L14.9744859,30.1496604 L14.9744859,29.0337924 L14.355961,29.6520436 C14.3265818,29.6758171 14.2922535,29.6888937 14.2569971,29.6897418 C14.1904391,29.6897418 14.1313485,29.6378257 14.110301,29.5608568 C14.093463,29.4992817 14.1039952,29.4327261 14.1361438,29.383643 L14.1642183,29.3504577 L14.9930416,28.5512549 L14.9930416,27.3449111 L14.3250348,27.9933209 C14.2947293,28.0040028 14.2625615,28.0040028 14.2322561,27.9933209 C14.1830992,27.9959577 14.1363147,27.9674431 14.1085511,27.9179244 C14.0614018,27.8592895 14.051972,27.7724902 14.0802615,27.7025896 L14.1085511,27.6540367 L14.9683006,26.8246754 L14.9683006,25.6258712 L14.3683315,26.274281 C14.3407265,26.3030615 14.3056905,26.3190769 14.2693676,26.3195189 C14.2341298,26.3195681 14.2005816,26.3037088 14.1748065,26.2758442 L14.1518478,26.2441224 C14.1219492,26.2099175 14.1049888,26.1621611 14.1049888,26.1121786 C14.1049888,26.0788569 14.1125268,26.0465245 14.1264109,26.0185373 L14.1518478,25.9802347 L15.0363383,25.1282544 L15.0363383,23.9219106 L14.3126643,24.6155583 C14.2875636,24.6444345 14.2543991,24.6606051 14.2198856,24.6607962 C14.1718502,24.657696 14.1270365,24.6303827 14.0961806,24.5853997 C14.0515075,24.5255646 14.0425729,24.4404456 14.0693768,24.370497 L14.0961806,24.321512 L15.0115973,23.4393731 L15.0115973,22.2330293 L14.2631823,22.9869942 C14.2349837,23.0136513 14.1998512,23.0270343 14.1642183,23.0246924 C14.1187675,23.0242268 14.0757866,22.9994093 14.0466986,22.9568356 C14.0168,22.9226307 13.9998396,22.8748743 13.9998396,22.8248917 C13.9998396,22.79157 14.0073776,22.7592377 14.0212617,22.7312505 L14.0466986,22.6929479 L14.9868563,21.7881901 L14.9868563,20.5743066 L14.1580331,21.2830336 C14.1277784,21.2941442 14.095509,21.2941442 14.0652544,21.2830336 C14.0165831,21.2830336 13.9707522,21.2551003 13.9415494,21.2076371 C13.917583,21.1667172 13.9080215,21.1158214 13.9149907,21.0662658 C13.9196368,21.0332288 13.9313731,21.002613 13.9486897,20.9773242 L13.9786609,20.9437494 L14.8445956,20.1897845 L4.7626411,20.1897845 L4.7626411,23.3639766 C5.12720538,24.137802 5.32311047,25.0125476 5.33168393,25.9048382 C5.36276279,26.6919487 5.20036973,27.4705819 4.86757012,28.1420259 L4.7626411,28.3401447 L4.7626411,32.4190947 C4.7626411,32.6897568 4.58264116,32.9091718 4.36059997,32.9091718 C4.1607629,32.9091718 3.99497924,32.7314457 3.96382088,32.4985877 L3.95855884,32.4190947 L3.95855884,29.1016493 C3.74197546,29.2273014 3.51256123,29.3160798 3.27675853,29.365781 L3.09880934,29.3956956 L3.09880934,32.411555 C3.11807054,32.5997539 3.04652044,32.784605 2.91510991,32.886146 C2.78369938,32.987687 2.61602229,32.987687 2.48461176,32.886146 C2.37197416,32.7991108 2.30331565,32.6508683 2.29812716,32.4917736 L2.30091232,32.411555 L2.30091232,29.3956956 C0.81645276,29.2524422 0,28.0234795 0,25.9048382 C0,23.6580229 1.29271687,21.531842 2.66584197,21.531842 C3.09679653,21.547889 3.51095444,21.7312853 3.84883767,22.0528915 L3.95855884,22.1651725 L3.95855884,20.1897845 L2.2081336,20.1897845 C2.04980123,20.1905453 1.90584638,20.0779555 1.84042807,19.9021952 C1.78591282,19.7557282 1.79439755,19.5881243 1.85935643,19.4525663 L1.90505644,19.3755025 L3.95855884,16.5330549 L3.95855884,12.5671998 L3.29055203,13.0798959 C3.22666055,13.1249393 3.15405954,13.1483654 3.0802536,13.1477527 C2.94196064,13.151301 2.81248953,13.0652164 2.74006495,12.9215632 C2.63689828,12.7195065 2.66895628,12.4609794 2.807065,12.304234 L2.86376991,12.2505345 L18.8278955,0.0815415837 Z M2.68439771,22.5119963 C1.84938921,22.5119963 0.828823257,24.0802433 0.828823257,25.9123779 C0.81895522,26.1157707 0.81895522,26.3196966 0.828823257,26.5230894 L0.84485542,26.6831712 C0.850991186,26.7358885 0.85831452,26.7852279 0.868012989,26.8229865 L0.887673389,26.8763747 L0.887673389,26.8763747 L0.88449049,26.8623736 C0.905107984,26.9025851 0.911980482,26.9461475 0.914271315,26.9863589 L0.915416731,27.0433252 C0.935354041,27.1387437 0.960426764,27.228951 0.990434317,27.3155452 L1.03912169,27.4429266 L1.03912169,27.4957041 C1.07487928,27.5792886 1.11635869,27.6589477 1.16308481,27.7338488 L1.23704964,27.8425279 L1.33180729,27.9487431 C1.65372197,28.2839069 2.06429475,28.4660176 2.48735309,28.4616484 L2.62873048,28.4532395 L2.7338797,28.4532395 C2.80191215,28.4602502 2.86981266,28.4624402 2.93727773,28.4599488 C3.07207093,28.447864 3.20430172,28.4171681 3.33163879,28.3685042 L3.44333333,28.319775 L3.41011897,28.3371512 C3.29911286,28.3881134 3.18391893,28.4255214 3.06625057,28.4485885 C3.48023034,28.3970547 3.86956474,28.168664 4.16267203,27.79729 C4.23032999,27.6933362 4.29035223,27.5823266 4.34204422,27.4655455 C4.339581,27.440503 4.339581,27.4151915 4.34204422,27.390149 L4.42487707,27.1572643 C4.44150302,27.1069598 4.45337869,27.0629283 4.45337869,27.0357855 C4.45337869,26.9966495 4.43691931,26.9700532 4.4324791,26.9342999 C4.43305486,26.9677481 4.42849043,27.0026649 4.42245245,27.0357855 L4.42245245,26.832215 L4.43344845,26.8967209 L4.43437761,26.8874052 L4.45337869,26.832215 C4.47193444,26.7266599 4.49049018,26.6286445 4.50286068,26.5155498 L4.52166399,26.315119 C4.5320584,26.1812387 4.5381674,26.0468896 4.53997217,25.9123779 C4.53997217,24.0802433 3.51940622,22.5119963 2.68439771,22.5119963 Z M38.0330911,21.9239037 C37.9279419,21.9239037 37.7980516,22.0369985 37.6619762,22.2330293 C37.7059562,22.6278823 37.7286841,23.0258213 37.7300139,23.4242938 C37.7300139,24.7120658 37.5663522,25.6451727 37.3896583,26.2649922 L37.3135735,26.5115688 L37.3135735,26.5115688 L37.2385279,26.7205076 L37.2385279,26.7205076 L37.1671563,26.8925322 L37.1671563,26.8925322 C37.1877738,27.0131666 37.2083913,27.1237481 37.2308415,27.2265107 L37.2661203,27.3750697 L37.3206,27.5459483 L37.3206,27.5459483 L37.353555,27.6640494 C37.3594433,27.6819636 37.3657275,27.6983095 37.3727045,27.7120618 L37.3960105,27.7445125 C37.4176589,27.7633616 37.4284831,27.7878655 37.4338952,27.8076571 L37.4393073,27.8425279 L37.4393073,27.8425279 L37.4850766,27.9287554 L37.4850766,27.9287554 L37.5382712,28.0084002 L37.5939385,28.0837967 C37.6171331,28.1120704 37.6403278,28.1615493 37.6635225,28.1845217 L37.6867172,28.1968914 L37.7485697,28.2421293 L37.7929194,28.2802014 L37.7929194,28.2802014 L37.8413484,28.3099861 L38.7134684,28.3099861 L38.7753209,28.2572086 L38.8124323,28.2195104 L38.8680996,28.1516535 L38.9052111,28.098876 L38.9608783,28.0084002 L39.0254688,27.889673 L39.0254688,27.889673 L39.0474718,27.8349883 L39.1194039,27.6688368 C39.1244438,27.6540367 39.12788,27.6389574 39.12788,27.6238781 L39.12788,27.5258627 L39.12788,27.5258627 L39.1516201,27.4475463 L39.1516201,27.4475463 L39.1711767,27.3675301 L39.1711767,27.2468957 L39.2082882,27.0659441 L39.2082882,26.704041 L39.2057691,26.6324143 L39.2057691,26.6324143 L39.2082882,26.5607877 L39.2082882,26.274281 L39.2107194,26.2026543 L39.2107194,26.2026543 L39.2082882,26.1310277 L39.1835472,26.1310277 L39.1938772,25.8708771 L39.1938772,25.8708771 L39.1959177,25.6258712 L39.1959177,25.6258712 L39.1959177,25.8171549 L39.202103,25.6484902 C39.202103,23.4996903 38.428947,21.9239037 38.0330911,21.9239037 Z M26.5520471,22.3579788 L26.5965672,22.3612034 L29.0397402,22.3612034 C29.0785666,22.3611586 29.1157211,22.38046 29.1425853,22.4146306 C29.1604948,22.4374109 29.1727933,22.46548 29.1785022,22.4956716 L29.1820009,22.5421549 L29.1820009,27.0659441 C29.1836891,27.1132277 29.1694495,27.159298 29.1425853,27.1934685 C29.1246758,27.2162488 29.1021929,27.2324008 29.0776901,27.2406377 L29.0397402,27.2468958 L26.5656409,27.2468958 C26.4973206,27.2468958 26.43978,27.1906354 26.4224976,27.1140482 L26.417195,27.0659441 L26.417195,22.5421549 C26.416197,22.4868555 26.4360028,22.4340368 26.4709607,22.3987711 C26.4942659,22.3752606 26.5225988,22.3612732 26.5520471,22.3579788 Z M24.0049482,22.3612033 C24.0732686,22.3612033 24.1308091,22.4174636 24.1480915,22.4940508 L24.1533942,22.5421549 L24.1533942,27.0659441 C24.1533942,27.1492248 24.1072403,27.2193652 24.044411,27.240432 L24.0049482,27.2468958 L21.4999227,27.2468958 C21.4610963,27.2468958 21.4239418,27.227639 21.3970776,27.1934685 C21.3791681,27.1706881 21.3668696,27.142619 21.3611607,27.1124275 L21.357662,27.0659441 L21.357662,22.5421549 C21.3559739,22.4948713 21.3702134,22.4488011 21.3970776,22.4146306 C21.4149871,22.3918502 21.43747,22.3756982 21.4619728,22.3674613 L21.4999227,22.3612033 L24.0049482,22.3612033 Z M28.9222205,22.7231065 L26.7140869,22.7231065 L26.7140869,26.8849925 L28.9222205,26.8849925 L28.9222205,22.7231065 Z M23.8565022,22.7231065 L21.6483686,22.7231065 L21.6483686,26.8849925 L23.8565022,26.8849925 L23.8565022,22.7231065 Z M35.4971393,19.2624078 C35.0641719,19.2624078 34.1982372,21.0568441 34.1982372,23.4242938 C34.1982372,24.0260296 34.2336937,24.513149 34.2933221,24.9074838 L34.3423994,25.1861789 C34.4844176,25.8847927 34.7118392,26.2340997 34.9343879,26.4087531 L35.017439,26.4664024 L35.017439,26.4664024 L35.0989752,26.5097247 C35.1123796,26.5158648 35.1256768,26.5214933 35.1388447,26.5266528 L35.2161253,26.552322 L35.2161253,26.552322 L35.2892463,26.5687811 C35.3010277,26.5708704 35.3125917,26.5726613 35.3239163,26.5741964 L35.3888143,26.5806776 L35.3888143,26.5806776 L35.5769566,26.5821968 L35.5769566,26.5821968 L35.6403838,26.5777504 L35.6403838,26.5777504 L35.7103486,26.5678206 L35.7103486,26.5678206 L35.7857117,26.5502033 C35.7986588,26.5465041 35.8117833,26.5423926 35.8250615,26.5378232 L35.9063859,26.5045421 C36.3065339,26.3135646 36.7960414,25.6601183 36.7960414,23.4242938 C36.7960414,22.355123 36.6194304,21.4028207 36.3858481,20.6798901 L36.2826021,20.3844338 C36.0175111,19.6825411 35.7066397,19.2624078 35.4971393,19.2624078 Z M14.9621154,17.1211475 L4.56471316,17.1890044 L3.09262409,19.2397888 L14.8631514,19.2397888 L14.915726,19.2344106 L14.915726,19.2344106 L14.9683006,19.2397888 L14.9621154,17.1211475 Z M24.0049482,12.6275169 C24.0732686,12.6275169 24.1308091,12.6837772 24.1480915,12.7603644 L24.1533942,12.8084685 L24.1533942,17.3322577 C24.1533942,17.4155384 24.1072403,17.4856788 24.044411,17.5067456 L24.0049482,17.5132094 L21.4999227,17.5132094 C21.4610963,17.5132094 21.4239418,17.4939526 21.3970776,17.4597821 C21.3791681,17.4370017 21.3668696,17.4089326 21.3611607,17.3787411 L21.357662,17.3322577 L21.357662,12.8084685 C21.3559739,12.7611849 21.3702134,12.7151147 21.3970776,12.6809441 C21.4149871,12.6581638 21.43747,12.6420118 21.4619728,12.6337749 L21.4999227,12.6275169 L24.0049482,12.6275169 Z M26.5520471,12.6242924 L26.5965672,12.6275169 L29.0397402,12.6275169 C29.0785666,12.6274722 29.1157211,12.6467736 29.1425853,12.6809441 C29.1604948,12.7037245 29.1727933,12.7317936 29.1785022,12.7619852 L29.1820009,12.8084685 L29.1820009,17.3322577 C29.1836891,17.3795413 29.1694495,17.4256116 29.1425853,17.4597821 C29.1246758,17.4825624 29.1021929,17.4987144 29.0776901,17.5069513 L29.0397402,17.5132094 L26.5656409,17.5132094 C26.4973206,17.5132094 26.43978,17.456949 26.4224976,17.3803618 L26.417195,17.3322577 L26.417195,12.8084685 C26.416197,12.7531691 26.4360028,12.7003503 26.4709607,12.6650847 C26.4942659,12.6415742 26.5225988,12.6275868 26.5520471,12.6242924 L26.5520471,12.6242924 Z M23.8565022,12.9818804 L21.6483686,12.9818804 L21.6483686,17.1437665 L23.8565022,17.1437665 L23.8565022,12.9818804 Z M28.9222205,12.9818804 L26.7140869,12.9818804 L26.7140869,17.1437665 L28.9222205,17.1437665 L28.9222205,12.9818804 Z M19.0258234,1.06923556 L4.76882635,11.9564882 L4.76882635,16.1259139 L14.9744859,16.0580571 L14.9744859,14.9346494 L14.1951446,15.6886143 C14.1679973,15.7121843 14.1356853,15.7253135 14.1023659,15.7263125 C14.0379043,15.7255373 13.9806005,15.6760957 13.9585701,15.6022461 C13.9420473,15.5468588 13.9479661,15.4864587 13.9726286,15.4381765 L14.0034019,15.394568 L14.9683006,14.4596516 L14.9683006,13.8866383 C14.9631868,13.8286437 14.9601863,13.770442 14.9592991,13.7122045 L14.1394773,14.4144137 C14.1137612,14.4412338 14.0804729,14.4547596 14.0466986,14.4521119 C13.9971807,14.4491874 13.9515371,14.4185863 13.9229937,14.3691758 C13.8993343,14.3294618 13.8899244,14.279736 13.8969217,14.2314018 C13.9015866,14.1991789 13.9132768,14.1694175 13.9304429,14.1450254 L13.9601051,14.1128277 L14.8693366,13.3588629 C14.890467,13.3482503 14.9133206,13.3447128 14.9355998,13.3482503 L14.9683006,13.3588629 L14.9683006,12.8612461 L14.5415185,13.1929906 C14.4768651,13.243135 14.4016617,13.2693267 14.3250348,13.2683871 C14.1882024,13.2649494 14.0612985,13.1805717 13.9848461,13.0421976 C13.8811296,12.8380839 13.9129857,12.5774482 14.051616,12.4182606 L14.1085511,12.3636292 L23.5039431,5.03509075 L19.0258234,1.06923556 Z" id="icon-single-family"></path>
            </g>
        </g>
    </g>
</svg>