<svg xmlns="http://www.w3.org/2000/svg" viewBox="0 0 36.99 36.99"><title>Instagram</title><g id="Layer_2" data-name="Layer 2"><g id="Icons"><path id="Instagram" d="M18.5,3.33c4.93,0,5.52,0,7.47.11,5,.23,7.36,2.61,7.58,7.58.09,2,.11,2.54.11,7.48s0,5.52-.11,7.47c-.23,5-2.56,7.36-7.58,7.58-1.95.09-2.53.11-7.47.11s-5.53,0-7.48-.11C6,33.32,3.67,30.93,3.44,26c-.09-1.95-.11-2.53-.11-7.47s0-5.53.11-7.48C3.67,6.05,6,3.67,11,3.44,13,3.35,13.56,3.33,18.5,3.33ZM18.5,0c-5,0-5.66,0-7.63.11C4.15.42.42,4.15.11,10.87,0,12.84,0,13.47,0,18.5s0,5.65.11,7.62c.31,6.72,4,10.45,10.76,10.76,2,.09,2.6.11,7.63.11s5.65,0,7.62-.11c6.71-.31,10.46-4,10.76-10.76.09-2,.11-2.6.11-7.62s0-5.66-.11-7.63C36.58,4.16,32.85.42,26.12.11,24.15,0,23.52,0,18.5,0Zm0,9A9.5,9.5,0,1,0,28,18.5,9.5,9.5,0,0,0,18.5,9Zm0,15.66a6.17,6.17,0,1,1,6.16-6.16A6.16,6.16,0,0,1,18.5,24.66ZM28.37,6.4a2.22,2.22,0,1,0,2.22,2.22A2.22,2.22,0,0,0,28.37,6.4Z"/></g></g></svg>