<?xml version="1.0" encoding="UTF-8"?>
<svg width="16px" height="28px" viewBox="0 0 16 28" version="1.1" xmlns="http://www.w3.org/2000/svg" xmlns:xlink="http://www.w3.org/1999/xlink">
    <title>icon</title>
    <g id="Desktop" stroke="none" stroke-width="1" fill="none" fill-rule="evenodd">
        <g id="Amenities---No-Imagery" transform="translate(-108.000000, -1001.000000)" fill="#8195A2">
            <g id="amenities---no-imagery" transform="translate(0.000000, 74.000000)">
                <g id="listings" transform="translate(60.000000, 901.000000)">
                    <g id="icon" transform="translate(40.000000, 24.000000)">
                        <path d="M18.1957142,2.75564543 C18.3181314,2.67301706 18.4730375,2.65592175 18.6103645,2.70988493 C18.7822927,2.78615244 23.3333333,4.6725023 23.3333333,11.1094805 L23.3333333,11.1094805 L23.3333333,18.2277819 C23.3333333,18.3459871 23.2862976,18.4592785 23.202697,18.5423832 C23.1190965,18.6254879 23.0058941,18.6714922 22.8883427,18.6701335 L22.8883427,18.6701335 L21.5526667,18.6696667 L21.5533708,28.0001928 C21.5606162,28.3059629 21.4605802,28.6028041 21.2735235,28.8399675 L21.1728373,28.9533411 C20.9214197,29.2051791 20.5782029,29.3421905 20.2234556,29.3323321 L20.2234556,29.3323321 L19.3334743,29.3323321 C18.9807581,29.3336831 18.6419547,29.1940916 18.3915984,28.9442664 C18.141242,28.6944413 17.999841,28.3548474 17.9985024,28.0001928 L17.9985024,28.0001928 L17.9985024,3.1217295 C17.9994489,2.97427855 18.0734037,2.83699631 18.1957142,2.75564543 Z M9.11385986,2.67429343 C9.35962139,2.67429343 9.55885048,2.87461738 9.55885049,3.1217295 L9.55885049,3.1217295 L9.55885049,11.1196496 C9.52040557,11.9232257 9.93758458,12.6794562 10.6359301,13.0720979 C10.7915509,13.1442115 10.8905496,13.3014892 10.8887657,13.4737735 L10.8887657,13.4737735 L10.8887657,28.0001928 C10.8915361,28.245317 11.0899561,28.4425602 11.3337563,28.4425444 L11.3337563,28.4425444 L12.2950574,28.4417706 C12.3891884,28.4325669 12.4781738,28.3911554 12.5464447,28.3232893 C12.6317834,28.2384567 12.6763854,28.1206098 12.6687282,28.0001928 L12.6687282,28.0001928 L12.6699022,14.1186543 C12.5415165,14.1528805 12.4094681,14.178801 12.2743047,14.1957726 L12.2743047,14.1957726 L12.2085675,14.1957726 L12.1478869,13.316154 C13.2400952,13.1839821 14.0442417,12.2243657 13.98853,11.1196496 L13.98853,11.1196496 L13.98853,3.1217295 C14.0127392,2.89435304 14.2035663,2.72192247 14.4309923,2.72192247 C14.6584182,2.72192247 14.8492453,2.89435304 14.8734546,3.1217295 L14.8734546,3.1217295 L14.8735741,11.3215981 C14.8455031,12.3085443 14.3365901,13.1890891 13.5595126,13.7136067 L13.5587095,28.0001928 C13.5659495,28.3601385 13.4251745,28.7071407 13.1696122,28.9592953 C12.91405,29.2114499 12.566345,29.3464142 12.2085675,29.3323321 L12.2085675,29.3323321 L11.3337563,29.3323321 C10.9815067,29.3336839 10.6432232,29.193931 10.3936693,28.9439597 C10.1441154,28.6939885 10.0038386,28.3543808 10.0038411,28.0001928 L10.0038411,28.0001928 L10.0038411,13.7279986 C9.13529112,13.1535944 8.6288953,12.1641676 8.66886922,11.1196496 L8.66886922,11.1196496 L8.66886922,3.1217295 C8.66886923,2.87461738 8.86809832,2.67429343 9.11385986,2.67429343 Z M18.8884837,3.85898215 L18.8884837,28.0001928 C18.8912542,28.245317 19.0896741,28.4425602 19.3334743,28.4425444 L19.3334743,28.4425444 L20.2947754,28.4417706 C20.3889064,28.4325669 20.4778918,28.3911554 20.5461627,28.3232893 C20.6315014,28.2384567 20.6761034,28.1206098 20.6684462,28.0001928 L20.6684462,28.0001928 L20.6676667,18.6696667 L20.2234556,18.6701335 L20.2234556,17.7854303 L22.4281819,17.7854303 L22.4281819,11.1196496 C22.4281819,6.60969718 20.0515274,4.58098129 18.8884837,3.85898215 L18.8884837,3.85898215 Z M21.5533708,18.5175985 L20.6684462,18.5175985 L20.6676667,18.6696667 L21.5526667,18.6696667 L21.5533708,18.5175985 Z M10.891294,2.72192247 C11.11872,2.72192247 11.3095471,2.89435304 11.3337563,3.1217295 L11.3337563,3.1217295 L11.3337563,10.2298619 C11.3337563,10.476974 11.1345272,10.677298 10.8887657,10.677298 C10.6488679,10.6746187 10.4542695,10.4811999 10.4488318,10.2400309 L10.4488318,10.2400309 L10.4488318,3.1217295 C10.473041,2.89435304 10.6638681,2.72192247 10.891294,2.72192247 Z M12.6611432,2.66666667 C12.9110938,2.66666667 13.1137189,2.87040524 13.1137189,3.1217295 L13.1137189,3.1217295 L13.1137189,10.2298619 C13.1109854,10.4758266 12.9133486,10.6745495 12.6687282,10.677298 C12.5498384,10.681405 12.4342628,10.6374762 12.3478037,10.5553185 C12.2613445,10.4731608 12.2112009,10.3596153 12.2085675,10.2400309 L12.2085675,10.2400309 L12.2085675,3.1217295 C12.2085675,2.87040524 12.4111925,2.66666667 12.6611432,2.66666667 Z" id="icon-dining"></path>
                    </g>
                </g>
            </g>
        </g>
    </g>
</svg>