<?xml version="1.0" encoding="UTF-8"?>
<svg width="10px" height="14px" viewBox="0 0 10 14" version="1.1" xmlns="http://www.w3.org/2000/svg" xmlns:xlink="http://www.w3.org/1999/xlink">
    <title>icons/content/location copy</title>
    <g id="Fixes" stroke="none" stroke-width="1" fill="none" fill-rule="evenodd">
        <g id="Search-list-map-coordination-1" transform="translate(-441.000000, -300.000000)" fill="#000000" fill-rule="nonzero">
            <g id="Group-2" transform="translate(432.000000, 295.000000)">
                <g id="icons/content/location-copy" transform="translate(6.000000, 4.000000)">
                    <path d="M7.99374865,1.33333333 C9.66676948,1.32739007 11.2142815,2.26444456 12.0476997,3.78812331 C12.8607906,5.27463916 12.8722853,7.09663033 12.0852772,8.59147123 L12.0247544,8.70296054 L8.20347198,14.559767 C8.16017157,14.6260531 8.08878688,14.6659603 8.01225365,14.6666667 C7.94665374,14.6660612 7.88483643,14.6366551 7.84124522,14.5865229 L7.82103532,14.559767 L7.79944615,14.5273732 L7.68533199,14.3297707 L3.98433202,8.71915746 C3.13070697,7.206697 3.11559714,5.32939926 3.94475521,3.80199697 C4.77391328,2.27459468 6.31975792,1.33210696 7.99374865,1.33333333 Z M10.9263792,3.04662647 C9.52522709,1.63203561 7.38239653,1.41367216 5.74847534,2.51897629 C5.85116912,2.52609729 5.95419823,2.52609729 6.056892,2.51897629 C6.38161034,2.52753077 6.70376989,2.46177158 7.00115865,2.32680643 L7.09934033,2.27926186 C7.17976803,2.23916789 7.26212331,2.20348664 7.34607366,2.17236219 C7.22579116,2.26954371 7.10859283,2.37968277 6.99756283,2.4963006 C6.70017061,2.62774355 6.37940864,2.69070612 6.056892,2.68094549 C5.88819796,2.68233552 5.71979217,2.66605811 5.55417284,2.63235473 C5.42124244,2.73303488 5.29357817,2.84117137 5.17173618,2.95629314 C5.42108534,3.06367691 5.68709054,3.12095764 5.95595904,3.12551053 L6.056892,3.12474111 C6.2139708,3.12723682 6.37092531,3.11422207 6.52568533,3.0858685 C6.48559117,3.1474168 6.44241283,3.2089651 6.40231867,3.27375278 C6.28772302,3.28868692 6.17236626,3.29625957 6.056892,3.29642847 C5.70767479,3.30600853 5.36088039,3.23293758 5.04220118,3.08262912 C4.97640562,3.15605516 4.91472229,3.22660175 4.8544097,3.29810815 L4.76462618,3.40656753 L5.01444368,3.51346721 C5.30562776,3.66530788 5.62456251,3.74803677 5.94868864,3.75639618 L6.16175367,3.75642101 L6.11103626,3.86751989 L6.11103626,3.86751989 L6.08773367,3.92486899 L5.95249611,3.92479088 C5.60496659,3.9166191 5.26279467,3.82951575 4.94967618,3.66895764 C4.85636903,3.62317699 4.76059695,3.58315651 4.66284868,3.54910043 C4.57649202,3.66895764 4.49630368,3.79529362 4.41919952,3.92486899 C4.60533131,3.97562999 4.78536807,4.0484434 4.95584451,4.14190772 C5.24387233,4.29146861 5.55984404,4.37222454 5.88109451,4.37838276 L5.83174784,4.54683073 L5.83174784,4.54683073 C5.54602777,4.53292203 5.26544087,4.46429328 5.00372843,4.34464892 L4.90649785,4.29739816 C4.71110021,4.19840989 4.50347605,4.12862643 4.28966452,4.09007758 C4.21547629,4.22755897 4.14855139,4.3692265 4.08919369,4.51443689 C4.35825798,4.53257572 4.6221022,4.59887295 4.86940724,4.71018036 L4.97434951,4.76063009 C5.21593543,4.88527745 5.47730561,4.96214423 5.74539117,4.98738697 C5.72071784,5.0424565 5.72071784,5.10076542 5.72071784,5.15583495 C5.47402663,5.13146172 5.2327915,5.06623607 5.00591148,4.96278793 L4.90958201,4.91612052 C4.63624197,4.77475978 4.33803893,4.69425138 4.03367869,4.67964548 C3.98059393,4.8248013 3.93528858,4.97296505 3.89797536,5.1234411 C4.23351746,5.12032942 4.56554609,5.19098149 4.87285707,5.33035594 L4.97434951,5.37935245 C5.1613071,5.47641775 5.36029978,5.54497285 5.56530892,5.58310726 L5.66828701,5.59963057 L5.66828701,5.76807854 C5.40912302,5.73325329 5.15705726,5.65448424 4.92191868,5.53484289 C4.63107665,5.3819878 4.31195696,5.2991064 3.9877106,5.29159427 L3.87947036,5.29188908 L3.85049482,5.44211392 L3.82684142,5.59333709 L3.82684142,5.59333709 L3.80853452,5.74540285 L3.88872286,5.74540285 C4.23715091,5.73704562 4.5826718,5.80882517 4.90121058,5.95517703 L4.99593868,6.0013142 C5.1711327,6.09096321 5.35634195,6.15673222 5.54706164,6.19715358 L5.66211867,6.21835293 L5.66211867,6.39004029 C5.40726464,6.35342668 5.15952721,6.27470909 4.92808701,6.15680463 C4.63724498,6.00394955 4.31812529,5.92106815 3.99387893,5.91355601 L3.79311369,5.91385083 L3.79311369,6.37384337 L3.99930832,6.37373474 C4.30829131,6.38050316 4.61307508,6.45014988 4.896751,6.57876678 L5.00210701,6.62975471 C5.22112132,6.74412578 5.45664185,6.81965136 5.69912867,6.85327221 L5.71649139,6.96581082 C5.71900441,6.98464724 5.72071784,7.00336368 5.72071784,7.02172019 C5.44868614,6.99027142 5.18375808,6.91029872 4.93733951,6.78524515 C4.64649748,6.63239006 4.32737779,6.54950866 4.00313143,6.54199653 L3.79928202,6.54229134 C3.80573498,6.64222915 3.81566519,6.74186886 3.82904926,6.84101107 L3.85171286,6.98932635 L3.99930832,6.98921772 C4.30829131,6.99598614 4.61307508,7.06563286 4.896751,7.19424976 L5.00210701,7.24523769 C5.24865224,7.37180638 5.51522407,7.44976373 5.78856951,7.47523396 L5.8134713,7.58945225 C5.81701238,7.60840864 5.81941117,7.62748501 5.81941117,7.64692132 C5.51288213,7.62627077 5.21319303,7.54262516 4.93733951,7.40072813 C4.64649748,7.24787304 4.32737779,7.16499164 4.00313143,7.15747951 L3.89489119,7.15777432 L3.92890458,7.31036111 C3.95327242,7.41164477 3.98101675,7.51201572 4.01208952,7.61128809 C4.35974027,7.61783262 4.70183313,7.70406689 5.01444368,7.86396005 C5.26632443,7.99516746 5.53949877,8.0743461 5.81913523,8.0975883 L5.92427284,8.10367448 L5.96128284,8.27212245 C5.64938635,8.26832796 5.34168695,8.19970729 5.05581891,8.07066501 L4.94967618,8.01945049 C4.67536145,7.87774603 4.37608401,7.79723107 4.07068869,7.78297545 C4.12827039,7.94321327 4.19416463,8.10001834 4.26807535,8.25268615 C4.52694226,8.28709657 4.77890947,8.36474123 5.01444368,8.48268242 C5.30516932,8.63588155 5.62435236,8.71881483 5.94863934,8.72603949 L6.07231284,8.72563622 L6.11857534,8.89084481 L6.056892,8.89084481 C5.67353848,8.90093641 5.29358382,8.81311731 4.94967618,8.63493347 C4.80042062,8.56100388 4.64457498,8.50303481 4.4844984,8.46183481 L4.36368452,8.43409166 L4.37910535,8.46000673 L4.70602702,8.98154757 C4.76462618,9.00098387 4.81782806,9.02203987 4.86833129,9.04350079 L5.01444368,9.10788355 L5.01444368,9.10788355 C5.29909588,9.25086121 5.60945027,9.32725391 5.9241157,9.33234959 L6.0291345,9.33140105 L6.2141845,9.33140105 L6.2400144,9.41400535 L6.2400144,9.41400535 L6.26353117,9.49660964 L6.0291345,9.49660964 C5.6806313,9.50578382 5.33493708,9.43404006 5.01658087,9.28704777 L4.92191868,9.2406983 L4.84789868,9.20830446 L5.24884034,9.81730867 C5.49922339,9.91018217 5.76368548,9.95409864 6.0291345,9.94688403 C6.15293223,9.94754461 6.27661582,9.93888406 6.3992345,9.92096896 C6.41465533,9.97603849 6.44858117,10.031108 6.44858117,10.0829382 C6.30975878,10.1049746 6.16953264,10.1158042 6.0291345,10.115332 C5.86291902,10.1172304 5.69704793,10.1015902 5.53400976,10.0687121 L5.41230118,10.0408262 L5.74539117,10.5494095 C5.84784059,10.5606846 5.95079858,10.5660916 6.05380784,10.5656064 C6.20396887,10.5670896 6.35386647,10.5541705 6.50163958,10.5270541 L6.612042,10.5040581 L6.667557,10.6627879 C6.46545822,10.7127284 6.25832554,10.7366597 6.05072367,10.7340544 L5.95974075,10.7366617 L5.95974075,10.7366617 L5.86875784,10.7340544 L6.1771745,11.1908075 C6.3581591,11.1867113 6.53778944,11.1587263 6.71185739,11.1076211 L6.815597,11.0741897 L6.871112,11.2329195 C6.71364036,11.2902529 6.55038924,11.3278313 6.38475771,11.3449595 L6.28512033,11.3527767 L6.556527,11.7641785 C6.68119413,11.7384144 6.80342266,11.7012833 6.92183106,11.6532391 L7.0098995,11.6151668 L7.06849866,11.7706573 C6.96753669,11.8209003 6.86328204,11.8633621 6.7565625,11.8977295 L6.649052,11.9293871 L6.889617,12.2954375 L7.09934033,12.2014954 L7.20420199,12.156144 L7.26280116,12.3116344 L7.16410783,12.3569858 L6.982142,12.4379704 L7.20420199,12.7619088 C7.26896949,12.7327544 7.33682116,12.7035999 7.41084116,12.6776848 C7.43243032,12.729515 7.45401949,12.7813451 7.47252449,12.8331753 C7.43254108,12.8463931 7.39311678,12.8613783 7.35435644,12.8780883 L7.29672699,12.9044417 L7.53112366,13.260774 C7.56557057,13.2491454 7.60057211,13.239414 7.63598532,13.2316195 L7.70075282,13.3871099 L7.62673282,13.4097856 L8.01225365,13.9928748 L11.6330653,8.46000673 C12.6199872,6.70149778 12.3275313,4.46121734 10.9263792,3.04662647 Z M7.99374865,4.52091566 C8.7828947,4.52091566 9.42310123,5.19189087 9.42480865,6.0207505 C9.42605001,6.62898035 9.07817745,7.17804916 8.54352947,7.4117175 C8.0088815,7.64538585 7.39285477,7.51759002 6.98293665,7.08796977 C6.57301853,6.65834953 6.45001734,6.01159713 6.67133528,5.44953899 C6.89265321,4.88748084 7.41466124,4.52091566 7.99374865,4.52091566 Z M7.99374865,5.00358389 C7.45890046,5.00358389 7.02532033,5.45898489 7.02532033,6.0207505 C7.02532033,6.58251611 7.45890046,7.03791711 7.99374865,7.03791711 C8.52859685,7.03791711 8.96217698,6.58251611 8.96217698,6.0207505 C8.96217698,5.45898489 8.52859685,5.00358389 7.99374865,5.00358389 Z" id="icon-location"></path>
                </g>
            </g>
        </g>
    </g>
</svg>