<svg xmlns="http://www.w3.org/2000/svg" viewBox="0 0 28.92 43.49"><title>location</title><g id="Layer_2" data-name="Layer 2"><g id="Icons"><g id="location"><path d="M14.46,0C6.62,0,0,6.27,0,13.7c0,7,5.33,15.41,12.72,27l1.74,2.75,1.74-2.75c7.38-11.63,12.72-20,12.72-27C28.92,6.27,22.3,0,14.46,0Zm.74,38.43h0l-.74,1.17-.74-1.17C6.48,27,2.08,19.65,2.08,13.7c0-6.19,5.79-11.62,12.38-11.62S26.83,7.51,26.83,13.7C26.83,19.66,22.44,27,15.2,38.43Z"/><path d="M14.46,9.88A4.58,4.58,0,1,0,19,14.46,4.58,4.58,0,0,0,14.46,9.88Z"/></g></g></g></svg>