<?xml version="1.0" encoding="UTF-8"?>
<svg width="210px" height="34px" viewBox="0 0 210 34" version="1.1" xmlns="http://www.w3.org/2000/svg" xmlns:xlink="http://www.w3.org/1999/xlink">
    <title>left-stacked</title>
    <defs>
        <polygon id="path-1" points="0 41.6344086 207.131183 41.6344086 207.131183 0 0 0"></polygon>
        <polygon id="path-3" points="0 0 30.7053763 0 30.7053763 32.7870968 0 32.7870968"></polygon>
    </defs>
    <g id="Concept-8-8" stroke="none" stroke-width="1" fill="none" fill-rule="evenodd">
        <g id="Contact" transform="translate(-28.000000, -29.000000)">
            <g id="left-stacked" transform="translate(28.643011, 29.245161)">
                <g id="Group" transform="translate(-0.000000, 0.000000)">
                    <g id="Group-35" transform="translate(1.561290, 0.000000)">
                        <path d="M44.5384951,9.96106917 C45.0335836,11.4614581 46.7877174,12.5419965 50.219033,12.5419965 C53.7273006,12.5419965 55.2515056,11.8591627 55.2515056,10.5507054 C55.2515056,8.89990849 53.28784,8.72827728 50.0475136,8.3684054 C46.6542104,8.00668802 42.936411,7.4954854 42.936411,4.1376039 C42.936411,1.5188439 45.3756953,0 49.9900314,0 C54.888997,0 56.7766378,1.78459544 57.4441729,3.32097155 L55.0614436,4.17451384 C54.5468853,2.97955464 52.9828136,2.14446732 49.9714888,2.14446732 C46.883212,2.14446732 45.4535744,2.78946847 45.4535744,3.94751773 C45.4535744,5.48389385 47.2067811,5.65552505 50.2765152,6.01539693 C53.8218681,6.43247922 57.7677419,6.83110654 57.7677419,10.3227865 C57.7677419,12.6370396 55.9190407,14.572043 50.2765152,14.572043 C44.9575588,14.572043 42.8223738,12.7136277 42.1548387,10.5313277 L44.5384951,9.96106917 Z" id="Fill-1" fill="#39474F"></path>
                        <polygon id="Fill-3" fill="#39474F" points="65.5850319 2.81788775 59.3290323 2.81788775 59.3290323 0.520430108 74.4215054 0.520430108 74.4215054 2.81788775 68.1847493 2.81788775 68.1847493 14.572043 65.5850319 14.572043"></polygon>
                        <path d="M75.9827957,7.28602151 C75.9827957,2.42253772 79.7835438,0 84.5694326,0 C89.3360048,0 93.1569892,2.42253772 93.1569892,7.28602151 C93.1569892,12.1495053 89.3930345,14.572043 84.5694326,14.572043 C79.727434,14.572043 75.9827957,12.1495053 75.9827957,7.28602151 M90.6228506,7.28602151 C90.6228506,4.2762577 88.4088136,2.28907725 84.5694326,2.28907725 C80.710735,2.28907725 78.5169344,4.2762577 78.5169344,7.28602151 C78.5169344,10.2948649 80.710735,12.3391112 84.5694326,12.3391112 C88.4088136,12.3391112 90.6228506,10.2948649 90.6228506,7.28602151" id="Fill-5" fill="#39474F"></path>
                        <path d="M96.8,0.520430108 L106.300909,0.520430108 C109.766878,0.520430108 111.739713,1.83084275 111.739713,4.79335419 C111.739713,6.90072674 110.647109,8.2102159 108.502884,8.70427564 L111.892473,14.572043 L109.115786,14.572043 L105.935776,9.08382433 L99.3475476,9.08382433 L99.3475476,14.572043 L96.8,14.572043 L96.8,0.520430108 Z M106.222666,6.90072674 C108.253252,6.90072674 109.230356,6.2173544 109.230356,4.86815576 C109.230356,3.48294156 108.253252,2.76078322 106.222666,2.76078322 L99.3475476,2.76078322 L99.3475476,6.90072674 L106.222666,6.90072674 Z" id="Fill-7" fill="#39474F"></path>
                        <polygon id="Fill-9" fill="#39474F" points="120.483869 8.55282555 113.453763 0.520430108 116.423046 0.520430108 121.781102 6.50178505 127.19401 0.520430108 130.107527 0.520430108 123.021655 8.55282555 123.021655 14.572043 120.483869 14.572043"></polygon>
                        <path d="M133.230108,0.520430108 L142.261046,0.520430108 C144.937017,0.520430108 147.346313,1.05235236 147.346313,4.01394033 C147.346313,6.02711831 146.000023,6.93858926 144.747853,7.26088243 C146.170731,7.54623656 147.802151,8.30533394 147.802151,10.7737857 C147.802151,13.5663775 145.392854,14.572043 142.774094,14.572043 L133.230108,14.572043 L133.230108,0.520430108 Z M142.224136,6.38727401 C143.931221,6.38727401 144.898261,5.72329466 144.898261,4.54586259 C144.898261,3.25484295 144.006886,2.68505817 142.052505,2.68505817 L135.734447,2.68505817 L135.734447,6.38727401 L142.224136,6.38727401 Z M142.451132,12.4452775 C144.386136,12.4452775 145.316266,11.7240426 145.316266,10.4514925 C145.316266,9.12168685 144.292016,8.45770751 142.242591,8.45770751 L135.734447,8.45770751 L135.734447,12.4452775 L142.451132,12.4452775 Z" id="Fill-11" fill="#39474F"></path>
                        <path d="M150.404301,7.28602151 C150.404301,2.42253772 154.206889,0 158.990938,0 C163.75751,0 167.578495,2.42253772 167.578495,7.28602151 C167.578495,12.1495053 163.81454,14.572043 158.990938,14.572043 C154.148939,14.572043 150.404301,12.1495053 150.404301,7.28602151 M165.044356,7.28602151 C165.044356,4.2762577 162.831239,2.28907725 158.990938,2.28907725 C155.13224,2.28907725 152.93844,4.2762577 152.93844,7.28602151 C152.93844,10.2948649 155.13224,12.3391112 158.990938,12.3391112 C162.831239,12.3391112 165.044356,10.2948649 165.044356,7.28602151" id="Fill-13" fill="#39474F"></path>
                        <path d="M170.701075,7.28602151 C170.701075,2.42253772 174.503663,0 179.287712,0 C184.054284,0 187.875269,2.42253772 187.875269,7.28602151 C187.875269,12.1495053 184.111314,14.572043 179.287712,14.572043 C174.445714,14.572043 170.701075,12.1495053 170.701075,7.28602151 M185.34113,7.28602151 C185.34113,4.2762577 183.128013,2.28907725 179.287712,2.28907725 C175.429015,2.28907725 173.235214,4.2762577 173.235214,7.28602151 C173.235214,10.2948649 175.429015,12.3391112 179.287712,12.3391112 C183.128013,12.3391112 185.34113,10.2948649 185.34113,7.28602151" id="Fill-15" fill="#39474F"></path>
                        <polygon id="Fill-17" fill="#39474F" points="190.997849 0.520430108 193.55735 0.520430108 193.55735 7.46958804 203.0937 0.520430108 206.619467 0.520430108 200.647608 4.92541128 207.131183 14.572043 204.231461 14.572043 198.69479 6.40666701 193.55735 10.1661384 193.55735 14.572043 190.997849 14.572043"></polygon>
                        <polygon id="Fill-19" fill="#39474F" points="42.6752688 18.7354839 45.2318166 18.7354839 45.2318166 24.3178971 55.2121151 24.3178971 55.2121151 18.7354839 57.7677419 18.7354839 57.7677419 32.7870968 55.2121151 32.7870968 55.2121151 26.6155057 45.2318166 26.6155057 45.2318166 32.7870968 42.6752688 32.7870968"></polygon>
                        <path d="M61.4107527,26.0215054 C61.4107527,21.1580216 65.2133405,18.7354839 69.9973895,18.7354839 C74.7639618,18.7354839 78.5849462,21.1580216 78.5849462,26.0215054 C78.5849462,30.8849892 74.8209914,33.3075269 69.9973895,33.3075269 C65.155391,33.3075269 61.4107527,30.8849892 61.4107527,26.0215054 M76.0508076,26.0215054 C76.0508076,23.0117416 73.8376904,21.0245611 69.9973895,21.0245611 C66.138692,21.0245611 63.9448914,23.0117416 63.9448914,26.0215054 C63.9448914,29.0303488 66.138692,31.0745951 69.9973895,31.0745951 C73.8376904,31.0745951 76.0508076,29.0303488 76.0508076,26.0215054" id="Fill-21" fill="#39474F"></path>
                        <polygon id="Fill-23" fill="#39474F" points="82.227957 18.7354839 85.8614737 18.7354839 92.1437393 30.204134 98.5217208 18.7354839 102.004301 18.7354839 102.004301 32.7870968 99.467834 32.7870968 99.467834 21.5834843 93.2610365 32.7870968 90.8000376 32.7870968 84.6309742 21.4892897 84.6309742 32.7870968 82.227957 32.7870968"></polygon>
                        <polygon id="Fill-25" fill="#39474F" points="105.647312 18.7354839 118.908134 18.7354839 118.908134 21.0330925 108.25329 21.0330925 108.25329 24.4508777 117.093525 24.4508777 117.093525 26.6339753 108.25329 26.6339753 108.25329 30.5467437 119.178495 30.5467437 119.178495 32.7870968 105.647312 32.7870968"></polygon>
                        <path d="M123.643871,28.696553 C124.13896,30.196942 125.893094,31.2774804 129.324409,31.2774804 C132.832677,31.2774804 134.356882,30.5946465 134.356882,29.2861893 C134.356882,27.6353924 132.393216,27.4637612 129.15289,27.1038893 C125.759587,26.7421719 122.042714,26.2309693 122.042714,22.8730878 C122.042714,20.2543278 124.482926,18.7354839 129.095408,18.7354839 C133.994373,18.7354839 135.882014,20.5200793 136.549549,22.0564554 L134.16682,22.9099977 C133.652262,21.7150385 132.08819,20.8799512 129.076865,20.8799512 C125.988588,20.8799512 124.558951,21.5249523 124.558951,22.6830016 C124.558951,24.2193777 126.312157,24.3910089 129.381892,24.7508808 C132.927244,25.1679631 136.873118,25.5665904 136.873118,29.0582704 C136.873118,31.3725235 135.024417,33.3075269 129.381892,33.3075269 C124.062935,33.3075269 121.92775,31.4491116 121.260215,29.2668116 L123.643871,28.696553 Z" id="Fill-27" fill="#39474F"></path>
                        <mask id="mask-2" fill="white">
                            <use xlink:href="#path-1"></use>
                        </mask>
                        <g id="Clip-30"></g>
                    </g>
                    <g id="Group-5">
                        <polygon id="Fill-1" fill="#000000" points="3.32099209 1.33852006 2.69885527 2.80109003 0 13.5311828 6.7655914 13.5311828 6.7655914 0.520430108"></polygon>
                        <g id="Group-4" transform="translate(2.602151, 0.000000)">
                            <mask id="mask-4" fill="white">
                                <use xlink:href="#path-3"></use>
                            </mask>
                            <g id="Clip-3"></g>
                            <path d="M30.7055555,32.7870968 L17.2336602,27.6062641 L3.72593859,32.7870968 C3.72593859,32.7870968 3.8238639,5.54985343 3.8238639,4.67729213 C3.8238639,3.9647004 3.77967809,3.05517644 3.49247032,2.52982182 C2.81177,1.28702792 0.226900107,1.30399439 0,2.95398357 C0.459771269,0.14057932 2.74429708,0 4.6848901,0 L27.3462397,0 C29.3244504,0 30.7055555,1.61605624 30.7055555,3.70111418 L30.7055555,32.7870968 Z" id="Fill-2" fill="#7CBF92" mask="url(#mask-4)"></path>
                        </g>
                    </g>
                </g>
            </g>
        </g>
    </g>
</svg>