<?xml version="1.0" encoding="UTF-8"?>
<svg width="222px" height="36px" viewBox="0 0 222 36" version="1.1" xmlns="http://www.w3.org/2000/svg" xmlns:xlink="http://www.w3.org/1999/xlink">
    <title>left-stacked</title>
    <defs>
        <polygon id="path-1" points="0 44.1002278 219.398633 44.1002278 219.398633 0 0 0"></polygon>
        <polygon id="path-3" points="0 0 32.523918 0 32.523918 34.7289294 0 34.7289294"></polygon>
    </defs>
    <g id="Concept-8-8" stroke="none" stroke-width="1" fill="none" fill-rule="evenodd">
        <g id="Home" transform="translate(-28.000000, -29.000000)">
            <g id="left-stacked" transform="translate(28.858770, 29.615034)">
                <g id="Group" transform="translate(0.000000, -0.000000)">
                    <g id="Group-35" transform="translate(1.653759, 0.000000)">
                        <path d="M47.1763103,10.5510186 C47.7007207,12.1402688 49.558744,13.2848027 53.193281,13.2848027 C56.9093275,13.2848027 58.5238044,12.5615276 58.5238044,11.1755763 C58.5238044,9.42701013 56.4438396,9.24521398 53.0116032,8.8640285 C49.4173299,8.48088822 45.479342,7.93940936 45.479342,4.38265562 C45.479342,1.6087982 48.0630942,0 52.9507166,0 C58.139826,0 60.1392633,1.89028902 60.8463334,3.5176578 L58.3224858,4.42175156 C57.7774525,3.15602029 56.1207479,2.2714745 52.9310758,2.2714745 C49.6598943,2.2714745 48.1455857,2.95467617 48.1455857,4.18131149 C48.1455857,5.80868027 50.0026269,5.99047642 53.2541676,6.3716619 C57.0094958,6.8134461 61.1890661,7.23568232 61.1890661,10.9341589 C61.1890661,13.3854747 59.2308745,15.4350797 53.2541676,15.4350797 C47.6201933,15.4350797 45.3585508,13.4665988 44.6514806,11.155051 L47.1763103,10.5510186 Z" id="Fill-1" fill="#FFFFFF"></path>
                        <polygon id="Fill-3" fill="#FFFFFF" points="69.469339 2.98477859 62.8428246 2.98477859 62.8428246 0.551252847 78.8291572 0.551252847 78.8291572 2.98477859 72.2230261 2.98477859 72.2230261 15.4350797 69.469339 15.4350797"></polygon>
                        <path d="M80.4829157,7.71753986 C80.4829157,2.56601376 84.5087651,0 89.5781005,0 C94.6269755,0 98.6742597,2.56601376 98.6742597,7.71753986 C98.6742597,12.869066 94.6873827,15.4350797 89.5781005,15.4350797 C84.4493322,15.4350797 80.4829157,12.869066 80.4829157,7.71753986 M95.9900353,7.71753986 C95.9900353,4.52952125 93.6448709,2.42464902 89.5781005,2.42464902 C85.4908697,2.42464902 83.1671401,4.52952125 83.1671401,7.71753986 C83.1671401,10.9045835 85.4908697,13.0699014 89.5781005,13.0699014 C93.6448709,13.0699014 95.9900353,10.9045835 95.9900353,7.71753986" id="Fill-5" fill="#FFFFFF"></path>
                        <path d="M102.53303,0.551252847 L112.596635,0.551252847 C116.267877,0.551252847 118.357555,1.93927535 118.357555,5.07724305 C118.357555,7.30942582 117.200241,8.69647015 114.929023,9.21979082 L118.519362,15.4350797 L115.578224,15.4350797 L112.209876,9.62181848 L105.231457,9.62181848 L105.231457,15.4350797 L102.53303,15.4350797 L102.53303,0.551252847 Z M112.513758,7.30942582 C114.664607,7.30942582 115.69958,6.5855804 115.69958,5.15647478 C115.69958,3.68922055 114.664607,2.92429202 112.513758,2.92429202 L105.231457,2.92429202 L105.231457,7.30942582 L112.513758,7.30942582 Z" id="Fill-7" fill="#FFFFFF"></path>
                        <polygon id="Fill-9" fill="#FFFFFF" points="127.619588 9.05937103 120.173121 0.551252847 123.318261 0.551252847 128.99365 6.8868566 134.72714 0.551252847 137.813212 0.551252847 130.307676 9.05937103 130.307676 15.4350797 127.619588 15.4350797"></polygon>
                        <path d="M141.120729,0.551252847 L150.68653,0.551252847 C153.520986,0.551252847 156.072974,1.11467847 156.072974,4.25166801 C156.072974,6.38407748 154.646949,7.34953077 153.320619,7.69091192 C154.827768,7.99316629 156.555809,8.7972216 156.555809,11.4118686 C156.555809,14.3698532 154.003821,15.4350797 151.229963,15.4350797 L141.120729,15.4350797 L141.120729,0.551252847 Z M150.647434,6.76556358 C152.455621,6.76556358 153.479935,6.06225972 153.479935,4.81509363 C153.479935,3.44761269 152.535768,2.84408212 150.465638,2.84408212 L143.773389,2.84408212 L143.773389,6.76556358 L150.647434,6.76556358 Z M150.887874,13.1823554 C152.937479,13.1823554 153.922697,12.418405 153.922697,11.0704875 C153.922697,9.66192343 152.837784,8.95861957 150.666982,8.95861957 L143.773389,8.95861957 L143.773389,13.1823554 L150.887874,13.1823554 Z" id="Fill-11" fill="#FFFFFF"></path>
                        <path d="M159.312073,7.71753986 C159.312073,2.56601376 163.339871,0 168.407258,0 C173.456133,0 177.503417,2.56601376 177.503417,7.71753986 C177.503417,12.869066 173.51654,15.4350797 168.407258,15.4350797 C163.278489,15.4350797 159.312073,12.869066 159.312073,7.71753986 M174.819193,7.71753986 C174.819193,4.52952125 172.475002,2.42464902 168.407258,2.42464902 C164.320027,2.42464902 161.996297,4.52952125 161.996297,7.71753986 C161.996297,10.9045835 164.320027,13.0699014 168.407258,13.0699014 C172.475002,13.0699014 174.819193,10.9045835 174.819193,7.71753986" id="Fill-13" fill="#FFFFFF"></path>
                        <path d="M180.810934,7.71753986 C180.810934,2.56601376 184.838732,0 189.906119,0 C194.954994,0 199.002278,2.56601376 199.002278,7.71753986 C199.002278,12.869066 195.015401,15.4350797 189.906119,15.4350797 C184.77735,15.4350797 180.810934,12.869066 180.810934,7.71753986 M196.318054,7.71753986 C196.318054,4.52952125 193.973863,2.42464902 189.906119,2.42464902 C185.818888,2.42464902 183.495158,4.52952125 183.495158,7.71753986 C183.495158,10.9045835 185.818888,13.0699014 189.906119,13.0699014 C193.973863,13.0699014 196.318054,10.9045835 196.318054,7.71753986" id="Fill-15" fill="#FFFFFF"></path>
                        <polygon id="Fill-17" fill="#FFFFFF" points="202.309795 0.551252847 205.020883 0.551252847 205.020883 7.91197822 215.122029 0.551252847 218.856611 0.551252847 212.531065 5.21712129 219.398633 15.4350797 216.327174 15.4350797 210.462591 6.78610514 205.020883 10.7682331 205.020883 15.4350797 202.309795 15.4350797"></polygon>
                        <polygon id="Fill-19" fill="#FFFFFF" points="45.2027335 19.8451025 47.9106941 19.8451025 47.9106941 25.758137 58.4820809 25.758137 58.4820809 19.8451025 61.1890661 19.8451025 61.1890661 34.7289294 58.4820809 34.7289294 58.4820809 28.1918227 47.9106941 28.1918227 47.9106941 34.7289294 45.2027335 34.7289294"></polygon>
                        <path d="M65.047836,27.5626424 C65.047836,22.4111163 69.075634,19.8451025 74.1430208,19.8451025 C79.1918958,19.8451025 83.23918,22.4111163 83.23918,27.5626424 C83.23918,32.7141685 79.252303,35.2801822 74.1430208,35.2801822 C69.0142524,35.2801822 65.047836,32.7141685 65.047836,27.5626424 M80.5549556,27.5626424 C80.5549556,24.3746238 78.2107655,22.2697515 74.1430208,22.2697515 C70.0557899,22.2697515 67.7320603,24.3746238 67.7320603,27.5626424 C67.7320603,30.7496861 70.0557899,32.9150039 74.1430208,32.9150039 C78.2107655,32.9150039 80.5549556,30.7496861 80.5549556,27.5626424" id="Fill-21" fill="#FFFFFF"></path>
                        <polygon id="Fill-23" fill="#FFFFFF" points="87.0979499 19.8451025 90.9466635 19.8451025 97.6009995 31.9929893 104.35672 19.8451025 108.045558 19.8451025 108.045558 34.7289294 105.358867 34.7289294 105.358867 22.8617772 98.7844692 34.7289294 96.1777164 34.7289294 89.6432871 22.7620039 89.6432871 34.7289294 87.0979499 34.7289294"></polygon>
                        <polygon id="Fill-25" fill="#FFFFFF" points="111.904328 19.8451025 125.950529 19.8451025 125.950529 22.2787882 114.664646 22.2787882 114.664646 25.8989934 124.028449 25.8989934 124.028449 28.2113861 114.664646 28.2113861 114.664646 32.3558902 126.236902 32.3558902 126.236902 34.7289294 111.904328 34.7289294"></polygon>
                        <path d="M128.441913,31.0001535 L130.966743,30.3961211 C131.491154,31.9853713 133.349177,33.1299052 136.983714,33.1299052 C140.69976,33.1299052 142.314237,32.4066302 142.314237,31.0206788 C142.314237,29.2721126 140.234272,29.0903165 136.802036,28.709131 C133.207763,28.3259907 129.270757,27.7845119 129.270757,24.2277581 C129.270757,21.4539007 131.855491,19.8451025 136.741149,19.8451025 C141.930259,19.8451025 143.929696,21.7353915 144.636766,23.3627603 L142.112919,24.2668541 C141.567885,23.0011228 139.911181,22.116577 136.721509,22.116577 C133.450327,22.116577 131.936018,22.7997787 131.936018,24.026414 C131.936018,25.6537828 133.79306,25.8355789 137.0446,26.2167644 C140.799929,26.6585486 144.979499,27.0807848 144.979499,30.7792614 C144.979499,33.2305772 143.021307,35.2801822 137.0446,35.2801822 C131.410626,35.2801822 129.148984,33.3117013 128.441913,31.0001535" id="Fill-27" fill="#FFFFFF"></path>
                        <mask id="mask-2" fill="white">
                            <use xlink:href="#path-1"></use>
                        </mask>
                        <g id="Clip-30"></g>
                    </g>
                    <g id="Group-5">
                        <polygon id="Fill-1" fill="#FFFFFF" points="3.51767955 1.41779459 2.85869636 2.96698602 0 14.332574 7.16628702 14.332574 7.16628702 0.551252847"></polygon>
                        <g id="Group-4" transform="translate(2.756264, 0.000000)">
                            <mask id="mask-4" fill="white">
                                <use xlink:href="#path-3"></use>
                            </mask>
                            <g id="Clip-3"></g>
                            <path d="M32.5241077,34.7289294 L18.2543326,29.2412592 L3.94660922,34.7289294 C3.94660922,34.7289294 4.0503342,5.87854635 4.0503342,4.95430716 C4.0503342,4.19951182 4.00353146,3.23612083 3.69931367,2.67965182 C2.97829852,1.3632528 0.240338382,1.38122412 0,3.12893476 C0.487001458,0.148905203 2.90682948,0 4.96235511,0 L28.9658347,0 C31.061206,0 32.5241077,1.711768 32.5241077,3.92031456 L32.5241077,34.7289294 Z" id="Fill-2" fill="#7CBF92" mask="url(#mask-4)"></path>
                        </g>
                    </g>
                </g>
            </g>
        </g>
    </g>
</svg>