<?xml version="1.0" encoding="UTF-8"?>
<svg width="53px" height="33px" viewBox="0 0 53 33" version="1.1" xmlns="http://www.w3.org/2000/svg" xmlns:xlink="http://www.w3.org/1999/xlink">
    <!-- Generator: Sketch 63.1 (92452) - https://sketch.com -->
    <title>map</title>
    <desc>Created with Sketch.</desc>
    <defs>
        <polygon id="path-1" points="0 0 69 0 69 43 0 43"></polygon>
    </defs>
    <g id="Toll-Brothers-Dot-Com-Library" stroke="none" stroke-width="1" fill="none" fill-rule="evenodd">
        <g id="Home3" transform="translate(-224.000000, -1408.000000)">
            <g id="map" transform="translate(216.000000, 1403.000000)">
                <mask id="mask-2" fill="white">
                    <use xlink:href="#path-1"></use>
                </mask>
                <g id="Clip-2"></g>
                <path d="M59.1644246,8.7158032 C59.1288145,8.84822868 58.8555271,9.04190095 58.5731302,9.25378172 L58.5375201,9.25378172 C57.8741771,9.69161346 57.3938539,10.3562238 57.1876462,11.123464 L57.1363013,11.123464 C57.1378541,11.7812462 56.932164,12.3420888 56.6984205,12.9069662 C56.8821648,12.9186569 56.8120832,12.9371758 56.7992469,12.9666611 C56.6856878,13.2743435 56.548216,13.5723008 56.3887983,13.8580502 C56.2749286,14.5518355 55.9726562,15.1068845 55.5710067,15.6936949 C55.272668,16.1297679 55.0091113,16.5779454 54.6769223,16.990637 C54.6366538,17.0408138 54.594522,17.0904734 54.551355,17.1394087 C54.4638824,17.4781283 54.4146079,17.8265728 54.4085003,18.1784315 L54.3322076,18.1784315 C54.3480458,18.2545761 54.3565343,18.3323761 54.3563273,18.4104864 C54.6302357,18.870665 54.8174996,19.3903315 54.8992788,19.9413457 L54.9284709,19.9413457 C55.1696676,20.3339666 55.374012,20.6093702 55.5177985,20.8386318 C55.5482327,20.8791871 55.5749404,20.9235703 55.5970932,20.9718849 C55.7365318,21.2235968 55.7836325,21.4297874 55.6961599,21.7050876 L55.6258712,21.7050876 C55.5130366,22.1549204 55.1966858,22.516504 54.8199841,22.8020465 C54.6153291,23.303608 54.3124357,23.7692698 53.9633732,24.1181281 C53.8618221,24.2195164 53.7563373,24.3125246 53.6473329,24.3982908 C53.4558248,24.743942 53.208831,25.0599009 52.9210511,25.3353045 C52.7344083,26.0151231 52.3983891,26.6193144 51.9519163,27.1255315 C51.8288334,27.6615443 51.7640312,28.209972 51.7616503,28.7600551 L51.6534741,28.7600551 C51.7810081,29.3430376 51.9020206,29.9268477 51.9551253,30.523797 L51.9728269,30.523797 C52.3786172,32.1112474 53.0841954,32.7286812 53.2696995,33.5836532 C53.3492013,33.980102 53.2084169,34.3947593 52.9964122,34.4568337 C52.7670164,34.536289 52.3257195,34.2275721 51.9024347,33.7160787 C51.3312227,32.9980843 50.8345437,32.2252575 50.4185051,31.4094958 C50.2931449,31.3634573 50.1776189,31.2906233 50.0846598,31.1824068 C49.8255544,30.880725 49.5893265,30.3829914 49.2306369,30.1882846 C48.937267,30.0290636 48.5240234,29.9657477 48.1379016,29.9219852 C47.0280858,30.0653772 45.8496377,29.9306756 44.728435,29.9834389 C44.6447925,30.0573075 44.5454152,30.116899 44.4290611,30.1554886 C44.2636394,30.3082952 44.0832077,30.4512733 43.8755507,30.5850437 C43.6720345,30.7163312 43.446883,30.8179264 43.2122078,30.8971747 C42.7703933,31.2639312 42.3569426,31.6636907 41.9763072,32.0929354 C41.6765193,32.1724942 39.6823498,30.9028649 36.9204914,32.2867112 L36.7519642,32.2867112 C36.7317782,32.304092 36.7121098,32.3214729 36.6917168,32.3386468 C36.6337467,32.3995832 36.5679093,32.4534845 36.4951362,32.4990058 C36.4468969,32.5371815 36.398554,32.5754608 36.3492795,32.6130158 C35.9475264,32.9187325 35.5326265,33.1973433 35.1596514,33.5181647 C35.1381197,33.6541077 35.1243518,33.7940856 35.0832552,33.920614 C34.9628638,34.2917157 34.7180439,34.5703265 34.4135977,34.7365826 C34.1220912,35.2329712 33.8142288,35.7195314 33.4878368,36.1940905 C33.07656,35.614729 32.7201478,34.9988471 32.4228443,34.3545144 C32.1363067,34.1247355 31.8696445,33.8623675 31.6114707,33.6184149 C31.1223485,33.1559603 30.6017568,32.7267155 30.0914134,32.2867112 L30.0560103,32.2867112 C29.4440123,32.1144546 28.7972322,32.1144546 28.1852342,32.2867112 L27.6999422,32.2867112 C27.3895954,31.9698211 27.3348344,31.6435165 26.9243858,31.1441276 C26.7451963,31.0211167 26.5708721,30.8862082 26.4009992,30.7400229 C25.8172615,30.2378407 25.2523642,29.7155877 24.7126217,29.1670565 C24.6932638,29.1616767 24.6735954,29.1576419 24.6543411,29.1519517 C24.3006203,29.0449768 23.9564232,28.9069646 23.6156422,28.7600551 L19.8292668,28.7600551 C18.7508169,28.3693999 17.6990748,27.9109801 16.6790091,27.3887271 C15.460396,26.9589651 14.4185915,26.1862417 13.4211962,25.3755495 C12.5231782,24.6456575 11.6291973,23.8194466 11.0708216,22.7929422 C10.8034348,22.3014161 10.6063366,21.7871293 10.4638959,21.2585654 C10.3151407,20.8569437 10.1973373,20.4443556 10.1129701,20.0240082 C9.98440087,19.6833229 9.89920561,19.3214289 9.86173212,18.9473269 C9.81225055,18.6579566 9.80169172,18.3704484 9.82767472,18.0890443 C9.70086526,15.6444492 9.84351297,13.1932329 10.2551003,10.7791577 C10.4141038,9.56249862 10.3437116,7.91297372 10.7495019,7.46355474 C10.8339725,7.39237605 10.929209,7.33609522 11.0318988,7.29636757 C11.9229812,6.87426135 12.9291755,6.76252735 13.89065,6.97854642 C18.1225666,8.16592708 22.4671107,8.90916509 26.8518198,9.20122535 C27.1995365,9.16253228 27.5503588,9.15011739 27.8969368,9.15911819 C28.4907157,9.17442988 29.0814925,9.24147028 29.670199,9.32578807 C33.9140201,9.44083271 38.0671595,9.44197074 41.862334,10.9231704 C41.9992882,10.968071 42.1338615,11.017834 42.2672961,11.0704938 C42.3240239,11.0844605 42.3685367,11.0953236 42.3497999,11.1038071 C43.2778382,11.4839096 44.1045324,12.060995 44.7015203,12.8872059 L44.7025555,12.8872059 C44.7030731,12.8883439 44.7034871,12.8894819 44.7039012,12.8906199 C44.8087649,13.0360811 44.9081421,13.1876462 44.9980992,13.3488328 C45.4495409,14.1578697 45.6745889,15.0106691 45.7960154,15.9137488 C45.8188928,16.0839363 45.8303833,16.2499854 45.8370085,16.4146896 L47.7468108,16.4146896 C48.3764069,15.5935482 49.3534091,15.0665361 50.2824826,14.5418002 C50.8962404,14.0196506 51.4847398,13.4678088 52.0432191,12.8872059 L52.2307936,12.8872059 C52.6644302,12.4004388 53.1754982,11.9824708 53.6720737,11.5605715 C53.8578884,11.4025921 54.0449453,11.2534065 54.2442173,11.123464 L54.1963921,11.123464 C55.3077606,10.4447834 56.6849631,9.60636456 56.9052493,8.16044384 C56.9317499,7.89642053 56.9317499,7.63074191 56.9052493,7.36671861 C56.8870301,7.22601654 56.8870301,7.08365914 56.9052493,6.94378473 C57.0427211,6.80970393 57.2431318,6.76252735 57.4261515,6.8204635 C57.873349,7.01413577 58.2650609,7.31705905 58.5640206,7.70192061 C59.1197049,8.28376507 59.1992067,8.58337772 59.1644246,8.7158032 M59.9304573,6.45049981 C59.3921641,5.81237453 58.681617,5.34143641 57.884943,5.09148331 L57.8850465,5.09148331 C56.8091847,4.77117918 55.6663467,5.31577897 55.2381965,6.35283602 C55.125569,6.85356987 55.0991719,7.36920159 55.1586947,7.87821203 C55.061802,8.50392243 54.1177184,9.08659455 53.2796372,9.59808797 C52.4382435,10.0466793 51.6846329,10.6442493 51.0560721,11.3618298 C50.2595016,12.2283891 49.3981289,13.0328739 48.4797178,13.7694906 C47.597745,14.4481712 47.3236295,14.4837606 47.1298439,14.3074691 C46.2479747,13.426012 47.465242,11.3535532 42.8243261,9.44000505 C37.530005,7.26160588 31.6269984,7.83517375 26.1836115,7.44700156 C22.174569,7.08779744 18.2077619,6.35862964 14.3337068,5.26860239 C12.9821767,4.94250465 11.5610825,5.09148331 10.3081014,5.69153627 C8.39343377,6.54650829 8.75533247,8.59248197 8.49943614,10.5507238 C8.05803568,13.9631629 7.61746336,17.6056913 8.55243732,21.0007495 C9.70852558,25.1365628 12.6641696,27.3679322 16.4935049,29.2285102 C17.9088021,29.9883014 19.4276172,30.5345565 21.0019179,30.8507224 C23.0316975,31.1329542 24.8486443,30.8507224 25.8987302,32.6674344 C26.1860959,33.2567278 26.6697317,33.7276659 27.265995,33.9991382 C27.3082303,34.0223126 27.3521219,34.0396935 27.398498,34.0521084 C27.7438338,34.1364261 28.103248,34.1364261 28.4485839,34.0521084 L29.8423493,34.0521084 C30.1992791,34.1729466 30.5090048,34.4046912 30.7243221,34.7134081 C31.1922231,35.4367823 31.8713008,37.843512 33.4240697,37.9934217 C34.9768387,38.1432281 35.8066385,35.6917013 36.3714323,34.9947088 C37.4604409,33.6316575 39.2807003,33.083747 40.941956,33.6191391 C41.8785863,34.133219 43.0537218,33.8551255 43.6600264,32.9753237 C44.1808251,32.3669941 45.2045139,31.3878732 46.1750981,31.5823731 C46.8101806,31.7056944 47.6747623,32.3760984 48.821741,31.9879262 C49.3310492,32.9983947 49.9496724,33.9510305 50.6660165,34.8276251 C51.6366006,36.0095225 52.7131871,36.4680457 53.7102718,36.1153594 C54.8232966,35.6254886 55.4087941,34.3947593 55.0866463,33.2227938 C54.8555942,32.4380694 54.5201961,31.6874859 54.0896651,30.9914244 C53.1140086,28.8510976 53.6151389,26.3275645 55.333433,24.7218021 C56.268407,23.8404485 57.6895012,22.9581637 57.6099994,21.3533324 C57.5478886,20.1010839 56.5956272,19.3603289 56.3396273,18.6369547 C56.0042292,17.6843189 56.8075284,16.52063 57.3541031,15.7442856 C58.1400112,14.8007541 58.6418661,13.654446 58.8008697,12.4377869 C59.0128744,11.2029193 59.1272617,11.1325682 59.7449532,10.674045 C60.3304506,10.3098749 60.7677104,9.75120493 60.9805432,9.0956988 C61.094827,8.0942311 60.7006308,7.10103999 59.9304573,6.45049981" id="Fill-1" fill-opacity="0.563155594" fill="#696057" mask="url(#mask-2)"></path>
            </g>
        </g>
    </g>
</svg>