<?xml version="1.0" encoding="UTF-8"?>
<svg width="33px" height="31px" viewBox="0 0 33 31" version="1.1" xmlns="http://www.w3.org/2000/svg" xmlns:xlink="http://www.w3.org/1999/xlink">
    <title>Group 3</title>
    <defs>
        <polygon id="path-1" points="0 0 18 0 18 22 0 22"></polygon>
    </defs>
    <g id="Concept-8-8" stroke="none" stroke-width="1" fill="none" fill-rule="evenodd">
        <g id="Home" transform="translate(-1133.000000, -1003.000000)">
            <g id="Group-3" transform="translate(1134.141846, 1003.000000)">
                <g id="Group-9" transform="translate(5.858154, 0.000000)">
                    <path d="M11,7.99988832 C11,6.90290882 10.0969183,6 9,6 C7.90308173,6 7,6.90313214 7,7.99988832 C7,9.09647699 7.90308173,10 9,10 C10.1612885,10.0002233 11,9.09664449 11,7.99988832" id="Fill-4" fill="#7EC093"></path>
                    <g id="Group-8">
                        <mask id="mask-2" fill="white">
                            <use xlink:href="#path-1"></use>
                        </mask>
                        <g id="Clip-7"></g>
                        <path d="M9.18530273,1.62371826 C12.9628894,1.62371826 16.2224121,5.1464291 16.2224121,8.81225586 C16.2224121,11.6159633 11.4010796,17.4199901 8.95678711,20.1157227 C6.51211001,17.5274983 1.75439453,11.8891784 1.75439453,9.0859375 C1.64324662,5.41936416 4.98462036,1.62719727 8.76220703,1.62719727 L9.18530273,1.62371826 Z M9.77736232,21.6766353 C10.6663533,20.8137694 18,13.264393 18,8.7355137 C18,3.88233647 14.0000214,0 9,0 C3.99988248,0 0,3.8824298 0,8.7355137 C0,13.2645796 7.33287752,20.8133961 8.22186849,21.6766353 C8.33378559,21.8921184 8.66694087,22 9.00009615,22 C9.33305913,22 9.55497035,21.8921184 9.77736232,21.6766353 Z" id="Fill-6" fill="#7EC093" mask="url(#mask-2)"></path>
                    </g>
                </g>
                <polyline id="Path-2" stroke="#7EC093" points="7.30288302 16.8981252 3.87657005 17.7587328 8.35038402e-13 29.6689453 8.22938784 25.9720678 15.0461999 28.6689453 22.9549768 26.2184869 30 29.6689453 25.2721343 17.2983449 22.0041186 16.6689453"></polyline>
            </g>
        </g>
    </g>
</svg>