<?xml version="1.0" encoding="utf-8"?>
<!-- Generator: Adobe Illustrator 25.0.0, SVG Export Plug-In . SVG Version: 6.00 Build 0)  -->
<svg version="1.1" id="Layer_1" xmlns="http://www.w3.org/2000/svg" xmlns:xlink="http://www.w3.org/1999/xlink" x="0px" y="0px"
	 viewBox="0 0 53 33" style="enable-background:new 0 0 53 33;" xml:space="preserve">
<style type="text/css">
	.st0{filter:url(#Adobe_OpacityMaskFilter);}
	.st1{fill-rule:evenodd;clip-rule:evenodd;fill:#FFFFFF;}
	.st2{mask:url(#mask-2_1_);fill-rule:evenodd;clip-rule:evenodd;fill-opacity:0.5632;}
</style>
<defs>
	<filter id="Adobe_OpacityMaskFilter" filterUnits="userSpaceOnUse" x="0" y="0" width="53" height="33">
		<feColorMatrix  type="matrix" values="1 0 0 0 0  0 1 0 0 0  0 0 1 0 0  0 0 0 1 0"/>
	</filter>
</defs>
<mask maskUnits="userSpaceOnUse" x="0" y="0" width="53" height="33" id="mask-2_1_">
	<g class="st0">
		<polygon id="path-1_1_" class="st1" points="-8,-5 61,-5 61,38 -8,38 		"/>
	</g>
</mask>
<path id="Fill-1" class="st2" d="M51.2,3.7c0,0.1-0.3,0.3-0.6,0.5h0c-0.7,0.4-1.1,1.1-1.3,1.9h-0.1c0,0.7-0.2,1.2-0.4,1.8
	c0.2,0,0.1,0,0.1,0.1c-0.1,0.3-0.3,0.6-0.4,0.9c-0.1,0.7-0.4,1.2-0.8,1.8c-0.3,0.4-0.6,0.9-0.9,1.3c0,0.1-0.1,0.1-0.1,0.1
	c-0.1,0.3-0.1,0.7-0.1,1h-0.1c0,0.1,0,0.2,0,0.2c0.3,0.5,0.5,1,0.5,1.5h0c0.2,0.4,0.4,0.7,0.6,0.9c0,0,0.1,0.1,0.1,0.1
	c0.1,0.3,0.2,0.5,0.1,0.7h-0.1c-0.1,0.4-0.4,0.8-0.8,1.1c-0.2,0.5-0.5,1-0.9,1.3c-0.1,0.1-0.2,0.2-0.3,0.3c-0.2,0.3-0.4,0.7-0.7,0.9
	c-0.2,0.7-0.5,1.3-1,1.8c-0.1,0.5-0.2,1.1-0.2,1.6h-0.1c0.1,0.6,0.2,1.2,0.3,1.8h0c0.4,1.6,1.1,2.2,1.3,3.1c0.1,0.4-0.1,0.8-0.3,0.9
	c-0.2,0.1-0.7-0.2-1.1-0.7c-0.6-0.7-1.1-1.5-1.5-2.3c-0.1,0-0.2-0.1-0.3-0.2c-0.3-0.3-0.5-0.8-0.9-1c-0.3-0.2-0.7-0.2-1.1-0.3
	c-1.1,0.1-2.3,0-3.4,0.1c-0.1,0.1-0.2,0.1-0.3,0.2c-0.2,0.2-0.3,0.3-0.6,0.4c-0.2,0.1-0.4,0.2-0.7,0.3c-0.4,0.4-0.9,0.8-1.2,1.2
	c-0.3,0.1-2.3-1.2-5.1,0.2h-0.2c0,0,0,0-0.1,0.1c-0.1,0.1-0.1,0.1-0.2,0.2c0,0-0.1,0.1-0.1,0.1c-0.4,0.3-0.8,0.6-1.2,0.9
	c0,0.1,0,0.3-0.1,0.4c-0.1,0.4-0.4,0.6-0.7,0.8c-0.3,0.5-0.6,1-0.9,1.5c-0.4-0.6-0.8-1.2-1.1-1.8c-0.3-0.2-0.6-0.5-0.8-0.7
	c-0.5-0.5-1-0.9-1.5-1.3h0c-0.6-0.2-1.3-0.2-1.9,0h-0.5c-0.3-0.3-0.4-0.6-0.8-1.1c-0.2-0.1-0.4-0.3-0.5-0.4c-0.6-0.5-1.1-1-1.7-1.6
	c0,0,0,0-0.1,0c-0.4-0.1-0.7-0.2-1-0.4h-3.8c-1.1-0.4-2.1-0.8-3.2-1.4c-1.2-0.4-2.3-1.2-3.3-2c-0.9-0.7-1.8-1.6-2.4-2.6
	c-0.3-0.5-0.5-1-0.6-1.5c-0.1-0.4-0.3-0.8-0.4-1.2c-0.1-0.3-0.2-0.7-0.3-1.1c0-0.3-0.1-0.6,0-0.9c-0.1-2.4,0-4.9,0.4-7.3
	c0.2-1.2,0.1-2.9,0.5-3.3C2.8,2.4,2.9,2.3,3,2.3C3.9,1.9,4.9,1.8,5.9,2c4.2,1.2,8.6,1.9,13,2.2c0.3,0,0.7-0.1,1,0
	c0.6,0,1.2,0.1,1.8,0.2c4.2,0.1,8.4,0.1,12.2,1.6C34,6,34.1,6,34.3,6.1c0.1,0,0.1,0,0.1,0c0.9,0.4,1.8,1,2.4,1.8h0c0,0,0,0,0,0
	C36.8,8,36.9,8.2,37,8.3c0.5,0.8,0.7,1.7,0.8,2.6c0,0.2,0,0.3,0,0.5h1.9c0.6-0.8,1.6-1.3,2.5-1.9C42.9,9,43.5,8.5,44,7.9h0.2
	c0.4-0.5,0.9-0.9,1.4-1.3c0.2-0.2,0.4-0.3,0.6-0.4h0c1.1-0.7,2.5-1.5,2.7-3c0-0.3,0-0.5,0-0.8c0-0.1,0-0.3,0-0.4
	c0.1-0.1,0.3-0.2,0.5-0.1c0.4,0.2,0.8,0.5,1.1,0.9C51.1,3.3,51.2,3.6,51.2,3.7 M51.9,1.5c-0.5-0.6-1.2-1.1-2-1.4h0
	c-1.1-0.3-2.2,0.2-2.6,1.3c-0.1,0.5-0.1,1-0.1,1.5c-0.1,0.6-1,1.2-1.9,1.7c-0.8,0.4-1.6,1-2.2,1.8c-0.8,0.9-1.7,1.7-2.6,2.4
	c-0.9,0.7-1.2,0.7-1.3,0.5c-0.9-0.9,0.3-3-4.3-4.9c-5.3-2.2-11.2-1.6-16.6-2c-4-0.4-8-1.1-11.8-2.2C5-0.1,3.6,0.1,2.3,0.7
	C0.4,1.5,0.8,3.6,0.5,5.6C0.1,9-0.4,12.6,0.6,16c1.2,4.1,4.1,6.4,7.9,8.2c1.4,0.8,2.9,1.3,4.5,1.6c2,0.3,3.8,0,4.9,1.8
	c0.3,0.6,0.8,1.1,1.4,1.3c0,0,0.1,0,0.1,0.1c0.3,0.1,0.7,0.1,1.1,0h1.4c0.4,0.1,0.7,0.4,0.9,0.7c0.5,0.7,1.1,3.1,2.7,3.3
	c1.6,0.1,2.4-2.3,2.9-3c1.1-1.4,2.9-1.9,4.6-1.4c0.9,0.5,2.1,0.2,2.7-0.6c0.5-0.6,1.5-1.6,2.5-1.4c0.6,0.1,1.5,0.8,2.6,0.4
	c0.5,1,1.1,2,1.8,2.8c1,1.2,2,1.6,3,1.3c1.1-0.5,1.7-1.7,1.4-2.9c-0.2-0.8-0.6-1.5-1-2.2c-1-2.1-0.5-4.7,1.2-6.3
	c0.9-0.9,2.4-1.8,2.3-3.4c-0.1-1.3-1-2-1.3-2.7c-0.3-1,0.5-2.1,1-2.9c0.8-0.9,1.3-2.1,1.4-3.3c0.2-1.2,0.3-1.3,0.9-1.8
	c0.6-0.4,1-0.9,1.2-1.6C53.1,3.1,52.7,2.1,51.9,1.5"/>
</svg>
