<?xml version="1.0" encoding="UTF-8"?>
<svg width="32px" height="36px" viewBox="0 0 32 36" version="1.1" xmlns="http://www.w3.org/2000/svg" xmlns:xlink="http://www.w3.org/1999/xlink">
    <title>icon</title>
    <g id="Concept-8-8" stroke="none" stroke-width="1" fill="none" fill-rule="evenodd">
        <g id="Community" transform="translate(-60.000000, -790.000000)">
            <g id="icon" transform="translate(60.000000, 790.000000)">
                <g id="osc-icon-bg" fill="#FFFFFF">
                    <path d="M16,0 C24.836556,0 32,6.93958638 32,15.5 C32,22.8595221 26.7054189,29.0210728 19.6049534,30.6049772 L16.3333333,35.5454545 L13.1631174,30.7571071 C5.67979971,29.4599691 0,23.1225508 0,15.5 C0,6.93958638 7.163444,0 16,0 Z"></path>
                </g>
                <path d="M12.6523597,16.0105994 C12.8170061,15.9762501 12.998136,16.0277576 13.1298783,16.1308053 C13.8214625,16.6631696 14.6447575,16.9379308 15.5010195,16.9379308 C16.3572816,16.9379308 17.1805766,16.6631696 17.8721607,16.1308053 C18.003903,16.0277576 18.185033,15.9934412 18.3496794,16.0105994 C19.6669765,16.1995039 20.8360478,16.97228 21.5935031,18.1400563 C21.7416975,18.36331 21.8734083,18.603722 21.972215,18.861325 C22.0216026,18.9643399 22.0051506,19.0845788 21.9228589,19.1876265 C21.7911481,19.4280385 21.6429223,19.6512923 21.4782759,19.874546 C21.2477268,20.2008147 20.9842737,20.492767 20.7208206,20.7675282 C20.4902715,21.0079401 20.2268184,21.2483849 19.9633652,21.4544476 C18.6625516,22.4676358 17.0982534,23 15.4845675,23 C13.8708816,23 12.3065834,22.4676686 11.0057698,21.4544476 C10.7422851,21.2311939 10.478832,21.0079401 10.2483144,20.7675282 C9.96837777,20.492767 9.72137668,20.2008476 9.49085913,19.874546 C9.34266477,19.6684833 9.17801839,19.4280385 9.04627607,19.1876265 C8.99688845,19.0845788 8.98043642,18.9643728 9.02982403,18.861325 C9.12859926,18.6209131 9.26034158,18.36331 9.40853594,18.1400563 C10.1495077,16.97228 11.3350625,16.1995039 12.6523597,16.0105994 Z M16,8 C18.2008843,8 20,9.79911569 20,12 C20,14.2008843 18.2008843,16 16,16 C13.7991157,16 12,14.2008843 12,12 C12,9.79911569 13.7991157,8 16,8 Z" id="osc-icon" fill="#39474F" fill-rule="nonzero"></path>
            </g>
        </g>
    </g>
</svg>