<svg xmlns="http://www.w3.org/2000/svg" viewBox="0 0 100.58 61.69"><title>parks-rec</title><g id="Layer_2" data-name="Layer 2"><g id="Icons"><path id="parks-rec" d="M80.34,59.69V57.38h3.77V51.47H70.81V48.88h5.55V43.26H70.81V42.2h5.55V36.58H70.81v-2.2h-2v2.2H47.11v-2.2h-2v2.2h-5.5V42.2h5.5v1.06h-5.5v5.62h5.5v2.59H31.87v5.91H35.6v2.31h-18V39.93a11.67,11.67,0,0,0,9.83-7.36,11.63,11.63,0,0,0,.73-19.68,11,11,0,0,0,.07-1.25A11.64,11.64,0,1,0,5,11.64a11,11,0,0,0,.08,1.25,11.62,11.62,0,0,0,.73,19.68,11.66,11.66,0,0,0,9.83,7.36V59.69H.78v2h99.8v-2ZM7.57,31.54l-.13-.36L7.1,31a9.62,9.62,0,0,1-.42-16.75l.58-.35-.11-.67A10.37,10.37,0,0,1,7,11.64a9.64,9.64,0,1,1,19.27,0,9.23,9.23,0,0,1-.14,1.58l-.11.67.58.35A9.63,9.63,0,0,1,26.2,31l-.34.19-.13.36a9.67,9.67,0,0,1-8.08,6.38V27.6L22,23.21,20.63,21.8l-3,3V19.35h-2V28L13,25.32l-1.41,1.42,4.08,4.07v7.11A9.66,9.66,0,0,1,7.57,31.54Zm34,7H74.36V40.2H41.61Zm5.5,3.62h21.7v1.06H47.11Zm-5.5,3.06H74.36v1.62H41.61Zm5.5,3.62h21.7v2.59H47.11Zm-13,4.88H81.82v1.33H34.16Zm3.44,3.62H78.34v2.31H37.6Z"/></g></g></svg>