<svg xmlns="http://www.w3.org/2000/svg" viewBox="0 0 34.81 44.31"><title>party-generic</title><g id="Layer_2" data-name="Layer 2"><g id="Icons"><g id="party-generic"><path d="M7.12,26.9A7.12,7.12,0,0,1,0,19.78V.79A.79.79,0,0,1,.79,0H13.45a.79.79,0,0,1,.79.79v19A7.12,7.12,0,0,1,7.12,26.9ZM1.58,1.58v18.2a5.54,5.54,0,0,0,11.08,0V1.58Z"/><path d="M7.12,41.78A.79.79,0,0,1,6.33,41V26.11a.79.79,0,0,1,1.58,0V41A.79.79,0,0,1,7.12,41.78Z"/><path d="M11.87,44.31H2.37a.79.79,0,0,1-.44-1.45l3-2a3.94,3.94,0,0,1,4.39,0l3,2a.79.79,0,0,1-.44,1.45ZM5,42.73H9.26l-.82-.55a2.39,2.39,0,0,0-2.64,0Z"/><path d="M13.45,11.08H.79a.8.8,0,0,1,0-1.59H13.45a.8.8,0,0,1,0,1.59Z"/><circle cx="3.96" cy="13.45" r="0.79"/><circle cx="5.54" cy="15.03" r="0.79"/><path d="M27.69,26.9a7.13,7.13,0,0,1-7.12-7.12V.79A.79.79,0,0,1,21.36,0H34a.79.79,0,0,1,.79.79v19A7.12,7.12,0,0,1,27.69,26.9ZM22.15,1.58v18.2a5.54,5.54,0,1,0,11.08,0V1.58Z"/><path d="M27.69,41.78A.79.79,0,0,1,26.9,41V26.11a.79.79,0,0,1,1.58,0V41A.79.79,0,0,1,27.69,41.78Z"/><path d="M32.44,44.31H23a.79.79,0,0,1-.44-1.45l3-2a3.94,3.94,0,0,1,4.39,0l3,2a.79.79,0,0,1-.44,1.45Zm-6.88-1.58h4.27L29,42.18a2.37,2.37,0,0,0-2.63,0Z"/><path d="M34,11.08H21.36a.8.8,0,0,1,0-1.59H34a.8.8,0,0,1,0,1.59Z"/><circle cx="24.53" cy="13.45" r="0.79"/><circle cx="24.53" cy="18.2" r="0.79"/><circle cx="30.86" cy="20.57" r="0.79"/></g></g></g></svg>