<svg xmlns="http://www.w3.org/2000/svg" viewBox="0 0 46 46"><title>Pinterest</title><g id="Layer_2" data-name="Layer 2"><g id="Icons"><path id="Pinterest" d="M23,0a23,23,0,0,0-8.38,44.42,22.19,22.19,0,0,1,.08-6.6c.42-1.79,2.7-11.43,2.7-11.43A8.31,8.31,0,0,1,16.71,23c0-3.19,1.85-5.58,4.16-5.58,2,0,2.91,1.47,2.91,3.24,0,2-1.26,4.92-1.91,7.65a3.34,3.34,0,0,0,3.41,4.16c4.09,0,7.23-4.31,7.23-10.53,0-5.51-4-9.36-9.61-9.36a10,10,0,0,0-10.38,10,8.94,8.94,0,0,0,1.71,5.25.7.7,0,0,1,.16.66l-.64,2.61c-.1.42-.33.51-.77.31C10.11,30,8.31,25.82,8.31,22.45c0-7.26,5.27-13.92,15.2-13.92,8,0,14.18,5.68,14.18,13.28,0,7.93-5,14.31-11.94,14.31-2.33,0-4.52-1.21-5.27-2.64l-1.43,5.46a25.46,25.46,0,0,1-2.86,6A23,23,0,1,0,23,0Z"/></g></g></svg>