<?xml version="1.0" encoding="UTF-8"?>
<svg width="34px" height="34px" viewBox="0 0 34 34" version="1.1" xmlns="http://www.w3.org/2000/svg" xmlns:xlink="http://www.w3.org/1999/xlink">
    <title>play icon</title>
    <g id="Desktop" stroke="none" stroke-width="1" fill="none" fill-rule="evenodd">
        <g id="Master-Community" transform="translate(-535.000000, -13825.000000)" fill="#FFFFFF">
            <g id="gallery" transform="translate(41.000000, 13463.000000)">
                <g id="3d-walkthroughts" transform="translate(0.000000, 173.000000)">
                    <g id="walkthrough" transform="translate(355.000000, 0.000000)">
                        <g id="play-icon" transform="translate(136.000000, 186.000000)">
                            <path d="M20,6.11111111 C27.6583333,6.11111111 33.8888889,12.3416667 33.8888889,20 C33.8888889,27.6583333 27.6583333,33.8888889 20,33.8888889 C12.3416667,33.8888889 6.11111111,27.6583333 6.11111111,20 C6.11111111,12.3416667 12.3416667,6.11111111 20,6.11111111 Z M20,3.33333333 C10.7958333,3.33333333 3.33333333,10.7958333 3.33333333,20 C3.33333333,29.2041667 10.7958333,36.6666667 20,36.6666667 C29.2041667,36.6666667 36.6666667,29.2041667 36.6666667,20 C36.6666667,10.7958333 29.2041667,3.33333333 20,3.33333333 Z M16.6666667,24.7222222 L16.6666667,14.7222222 L25.8333333,19.8682222 L16.6666667,24.7222222 Z" id="icon-play"></path>
                        </g>
                    </g>
                </g>
            </g>
        </g>
    </g>
</svg>