<svg xmlns="http://www.w3.org/2000/svg" viewBox="0 0 55.99 53.12"><title>pool-2</title><g id="Layer_2" data-name="Layer 2"><g id="Icons"><g id="pool"><path d="M51.79,50.3A4.39,4.39,0,0,1,48.66,49a7.19,7.19,0,0,0-9.72,0,4.35,4.35,0,0,1-3.11,1.27A4.41,4.41,0,0,1,32.7,49,7.19,7.19,0,0,0,23,49L23,49a4.31,4.31,0,0,1-3.1,1.27A4.39,4.39,0,0,1,16.73,49a7.06,7.06,0,0,0-4.85-1.88,1.41,1.41,0,1,0,0,2.82A4.37,4.37,0,0,1,15,51.24a7.22,7.22,0,0,0,9.74,0A4.31,4.31,0,0,1,27.85,50,4.37,4.37,0,0,1,31,51.24a7.2,7.2,0,0,0,9.68,0l.05,0a4.43,4.43,0,0,1,6.23,0,7.08,7.08,0,0,0,4.85,1.88,1.41,1.41,0,1,0,0-2.82Z"/><path d="M51.79,44.72a4.39,4.39,0,0,1-3.13-1.29,7.19,7.19,0,0,0-9.72,0,4.35,4.35,0,0,1-3.11,1.27,4.41,4.41,0,0,1-3.13-1.29,7.19,7.19,0,0,0-9.67,0l-.06,0a4.31,4.31,0,0,1-3.1,1.27,4.39,4.39,0,0,1-3.14-1.29,7.06,7.06,0,0,0-4.85-1.88,1.41,1.41,0,0,0,0,2.82A4.41,4.41,0,0,1,15,45.66a7.19,7.19,0,0,0,9.72,0,4.44,4.44,0,0,1,6.24,0,7.2,7.2,0,0,0,9.68,0l.05,0h0a4.33,4.33,0,0,1,3.1-1.27,4.39,4.39,0,0,1,3.13,1.29,7.08,7.08,0,0,0,4.85,1.88,1.41,1.41,0,1,0,0-2.82Z"/><polygon points="15.87 19.75 0 19.75 0 21.58 15.92 21.58 15.87 19.75"/><path d="M22.88,38.9V33.11H37V38.9h2.83V21.58H56v-1.8l-16.18,0V6.08a3.26,3.26,0,0,1,3.26-3.26h0a3.28,3.28,0,0,1,3.27,3.26V11h2.82V6.08A6.09,6.09,0,0,0,43.07,0h0A6.09,6.09,0,0,0,37,6.08V19.75H22.88V6.08a3.27,3.27,0,0,1,3.27-3.26h0a3.27,3.27,0,0,1,3.26,3.26v5.09h2.82V6.08A6.09,6.09,0,0,0,26.14,0h0a6.09,6.09,0,0,0-6.08,6.08V38.9ZM37,27.34v3.95H22.86V27.34ZM22.88,25.52V21.58H37l0,3.94Z"/></g></g></g></svg>