<?xml version="1.0" encoding="UTF-8"?>
<svg width="28px" height="26px" viewBox="0 0 28 26" version="1.1" xmlns="http://www.w3.org/2000/svg" xmlns:xlink="http://www.w3.org/1999/xlink">
    <title>icon</title>
    <g id="Desktop" stroke="none" stroke-width="1" fill="none" fill-rule="evenodd">
        <g id="Amenities---No-Imagery" transform="translate(-102.000000, -1107.000000)" fill="#8195A2">
            <g id="amenities---no-imagery" transform="translate(0.000000, 74.000000)">
                <g id="listings" transform="translate(60.000000, 901.000000)">
                    <g id="icon" transform="translate(40.000000, 129.000000)">
                        <path d="M20.3958042,23.7851221 C19.9611358,23.7851221 19.6070011,23.4263919 19.6070011,22.9848778 C19.6070011,22.5428226 19.9611358,22.1840924 20.3958042,22.1840924 C20.831006,22.1840924 21.1851407,22.5428226 21.1851407,22.9848778 C21.1851407,23.4263919 20.831006,23.7851221 20.3958042,23.7851221 L20.3958042,23.7851221 Z M20.3958042,21.5899962 C19.6379346,21.5899962 19.0213988,22.2160156 19.0213988,22.9848778 C19.0213988,23.7531989 19.6379346,24.3792183 20.3958042,24.3792183 C21.1542073,24.3792183 21.7707431,23.7531989 21.7707431,22.9848778 C21.7707431,22.2160156 21.1542073,21.5899962 20.3958042,21.5899962 L20.3958042,21.5899962 Z M16.0000533,27.4790153 C8.83202466,27.4790153 3.83733802,25.3055322 3.83733802,23.3549705 C3.83733802,21.7523175 7.21121818,20.0003289 12.3899056,19.4257113 L12.3899056,21.6987515 C11.3312347,21.8123764 10.5365648,22.2890602 10.5365648,22.8598903 C10.5365648,23.5162097 11.584569,24.0475417 12.8779075,24.0475417 C14.171246,24.0475417 15.2192502,23.5162097 15.2192502,22.8598903 C15.2192502,22.2890602 14.4251137,21.8123764 13.3653761,21.6987515 L13.3653761,19.332647 C14.2048462,19.2666363 15.0843163,19.2309256 16.0000533,19.2309256 C23.1675487,19.2309256 28.1627687,21.4049498 28.1627687,23.3549705 C28.1627687,25.3055322 23.1675487,27.4790153 16.0000533,27.4790153 L16.0000533,27.4790153 Z M13.4309764,4.65284372 L18.5739303,6.84039467 L13.4309764,9.02794562 L13.4309764,4.65284372 Z M12.8779075,3.33317101 C12.6085731,3.33317101 12.3899056,3.55446914 12.3899056,3.82825118 L12.3899056,18.2180403 C6.05014687,18.8586686 2.66666667,21.1647142 2.66666667,23.3549705 C2.66666667,25.9299284 7.33975203,28.6666667 16.0000533,28.6666667 C24.6603546,28.6666667 29.33344,25.9299284 29.33344,23.3549705 C29.33344,20.7800125 24.6603546,18.0432743 16.0000533,18.0432743 C15.0752496,18.0432743 14.1989795,18.0762797 13.3653761,18.1352564 L13.3653761,10.1284845 L20.0240694,7.29651771 C20.2054035,7.21968559 20.3227373,7.04004995 20.3227373,6.84039467 C20.3227373,6.64073939 20.2054035,6.46110374 20.0240694,6.38427163 L12.8779075,3.33317101 Z" id="icon-putting-green"></path>
                    </g>
                </g>
            </g>
        </g>
    </g>
</svg>