<?xml version="1.0" encoding="UTF-8"?>
<svg width="171px" height="72px" viewBox="0 0 171 72" version="1.1" xmlns="http://www.w3.org/2000/svg" xmlns:xlink="http://www.w3.org/1999/xlink">
    <title>Group 48</title>
    <defs>
        <polygon id="path-1" points="0 0 6 0 6 6 0 6"></polygon>
    </defs>
    <g id="Concept-8-8" stroke="none" stroke-width="1" fill="none" fill-rule="evenodd">
        <g id="About" transform="translate(-406.000000, -2139.000000)">
            <g id="Group-48" transform="translate(406.000000, 2139.000000)">
                <path d="M57.0315315,16.2874889 C58.2927928,16.0958296 59.5540541,16 60.8468468,16 C62.1396396,16 63.4324324,16.0958296 64.7252252,16.2874889 L64.7252252,30.1827862 L77.3063063,30.1827862 L77.3063063,16.2874889 C78.5675676,16.0958296 79.8288288,16 81.1216216,16 C82.4144144,16 83.7072072,16.0958296 85,16.2874889 L85,51.7125111 C83.7387387,51.9041704 82.4774775,52 81.1846847,52 C79.8918919,52 78.5990991,51.9041704 77.3063063,51.7125111 L77.3063063,36.3797693 L64.6936937,36.3797693 L64.6936937,51.7125111 C63.4324324,51.9041704 62.1711712,52 60.8783784,52 C59.5855856,52 58.2927928,51.9041704 57,51.7125111 L57,16.2874889 L57.0315315,16.2874889 Z" id="Fill-1" fill="#002664"></path>
                <path d="M89,17 L110.30659,17 C110.527221,17.9783589 110.621777,18.9567178 110.621777,19.9666366 C110.621777,21.0081154 110.527221,22.0180343 110.30659,23.0279531 L96.6275072,23.0279531 L96.6275072,30.6339044 L107.501433,30.6339044 C107.690544,31.6122633 107.816619,32.6537421 107.816619,33.663661 C107.816619,34.7051398 107.722063,35.7150586 107.501433,36.7249775 L96.6275072,36.7249775 L96.6275072,45.9720469 L110.684814,45.9720469 C110.905444,46.9504058 111,47.9287647 111,48.9386835 C111,49.9801623 110.905444,50.9900812 110.684814,52 L89,52 L89,17 Z" id="Fill-3" fill="#002664"></path>
                <path d="M114,16.5709251 C115.577011,16.4123348 117.025287,16.2854626 118.409195,16.1585903 C119.76092,16.0317181 121.305747,16 122.97931,16 C124.910345,16 126.841379,16.1585903 128.772414,16.4757709 C130.574713,16.7612335 132.312644,17.3638767 133.921839,18.2202643 C135.434483,19.0132159 136.689655,20.1867841 137.622989,21.5823789 C138.62069,23.2 139.103448,25.1030837 139.03908,26.9744493 C139.071264,28.1480176 138.878161,29.3215859 138.491954,30.4317181 C138.170115,31.3515419 137.71954,32.2396476 137.14023,33.0643172 C136.625287,33.7621145 136.013793,34.4281938 135.370115,34.9991189 C134.790805,35.4748899 134.211494,35.9189427 133.567816,36.2995595 L132.666667,36.8387665 L142,51.7145374 C141.291954,51.7779736 140.551724,51.8414097 139.747126,51.9048458 C138.974713,51.9682819 138.170115,52 137.365517,52 C136.013793,52 134.694253,51.9048458 133.374713,51.7145374 L123.365517,35.3797357 L124.652874,34.7770925 C125.135632,34.5550661 125.747126,34.2696035 126.455172,33.8889868 C127.195402,33.50837 127.871264,33.0643172 128.514943,32.5568282 C129.190805,32.0176211 129.737931,31.3515419 130.188506,30.5903084 C130.671264,29.7656388 130.896552,28.8140969 130.896552,27.8625551 C130.896552,25.8008811 130.252874,24.3101322 128.965517,23.3268722 C127.517241,22.3118943 125.77931,21.8044053 124.009195,21.8995595 C123.301149,21.8995595 122.593103,21.9312775 121.885057,22.0581498 L121.885057,51.7462555 C121.241379,51.8096916 120.597701,51.8731278 119.954023,51.9048458 C119.310345,51.9682819 118.698851,51.9682819 118.087356,51.9682819 C117.475862,51.9682819 116.832184,51.9365639 116.156322,51.9048458 C115.48046,51.8731278 114.772414,51.8096916 114.064368,51.7145374 L114,16.5709251 Z" id="Fill-5" fill="#002664"></path>
                <path d="M149.106046,35.3758211 C147.978221,35.0312785 146.882618,34.5927698 145.819239,34.091617 C144.884755,33.6531083 144.046942,33.0579893 143.305799,32.3689042 C142.59688,31.679819 142.016855,30.8341236 141.662395,29.9257841 C140.727911,27.388698 140.792358,24.6010354 141.79129,22.0952712 C142.371314,20.8423892 143.241352,19.7147953 144.336954,18.8690999 C145.529227,17.9294384 146.914842,17.2403532 148.397127,16.8331666 C150.137202,16.3320137 151.941723,16.0501153 153.778468,16.0187932 C155.486319,15.9561491 157.19417,16.0501153 158.90202,16.3006917 C160.609871,16.5825902 162.285498,16.9584548 163.928901,17.4282856 C163.767783,19.3389307 163.219982,21.2182538 162.382169,22.9722887 C161.834368,22.7843564 161.286566,22.6277461 160.738765,22.4398138 C160.158741,22.2518815 159.578716,22.0952712 158.966467,22.0013051 C158.257548,21.8760169 157.548629,21.7820507 156.83971,21.7507287 C155.937449,21.6880846 155.067412,21.6880846 154.165151,21.7194066 C153.552903,21.7507287 152.940655,21.8133728 152.328406,21.9073389 C151.748381,22.0013051 151.168357,22.1892374 150.652779,22.4711359 C150.169425,22.7530343 149.750518,23.160221 149.460506,23.6300518 C149.13827,24.2251707 148.977152,24.9142559 149.041599,25.603341 C149.041599,26.1671379 149.170494,26.7309349 149.460506,27.2007657 C149.718295,27.6392744 150.072754,28.015139 150.491661,28.2970375 C150.942792,28.610258 151.426145,28.8608344 151.941723,29.0174446 C152.489524,29.205377 153.005102,29.3933093 153.552903,29.5812416 L156.775263,30.6148693 C158.128654,31.053378 159.385374,31.5232088 160.5132,32.0243616 C161.576579,32.4628703 162.543287,33.0893113 163.3811,33.8410406 C164.18669,34.5927698 164.831162,35.5324314 165.250069,36.534737 C165.733423,37.7876191 165.991212,39.1344673 165.991212,40.5126376 C166.055659,42.0474181 165.765647,43.6135207 165.121175,45.023013 C164.508926,46.4011833 163.542218,47.6227433 162.382169,48.5624048 C161.028778,49.6273546 159.482045,50.4417279 157.838641,50.9742028 C155.808555,51.6006438 153.681797,51.9451864 151.55504,51.9765085 C150.39499,52.0078305 149.331612,52.0078305 148.397127,51.9765085 C147.494867,51.9451864 146.624829,51.8512203 145.754792,51.725932 C144.916979,51.6006438 144.079165,51.4440336 143.241352,51.2247792 C142.854668,51.1308131 142.467985,51.0368469 142.049079,50.9115587 C141.887961,50.8802367 141.275712,49.8152869 141.404607,47.8419977 C141.469054,46.6830817 141.694619,45.5554879 142.081302,44.427894 C143.466917,44.8977248 144.884755,45.2735894 146.334817,45.5554879 C147.720432,45.8060643 149.13827,45.9000305 150.556108,45.8373863 C152.392853,45.8687084 154.197375,45.4301997 155.808555,44.5531822 C157.033052,43.801453 157.741971,42.4546048 157.6453,41.0451125 C157.6453,40.3873494 157.484182,39.6982642 157.129722,39.1344673 C156.807486,38.6333145 156.420803,38.1948058 155.905226,37.8502632 C155.389648,37.5057206 154.841847,37.2238222 154.261822,37.0045678 C153.649574,36.7853134 153.037325,36.5660591 152.36063,36.3468047 L149.106046,35.3758211 Z" id="Fill-7" fill="#002664"></path>
                <path d="M167.917647,19.5288687 L168.341176,19.5288687 C168.552941,19.5288687 168.764706,19.5579408 168.941176,19.6160851 C169.047059,19.6742293 169.117647,19.7905179 169.082353,19.9068064 C169.082353,20.0230949 169.047059,20.1103113 168.941176,20.1684556 C168.764706,20.2265999 168.552941,20.2847441 168.341176,20.255672 L167.917647,20.255672 L167.917647,19.5288687 Z M169.752941,20.4010327 C169.894118,20.255672 170,20.0521671 169.964706,19.8486621 C169.964706,19.5870129 169.823529,19.3544359 169.541176,19.2090752 C169.188235,19.0637145 168.8,18.9764981 168.411765,19.0055703 L167,19.0055703 L167,22 L167.882353,22 L167.882353,20.8080425 L168.341176,20.8080425 L169.047059,22 L170,22 L169.223529,20.691754 C169.435294,20.6336097 169.611765,20.5463933 169.752941,20.4010327 L169.752941,20.4010327 Z" id="Fill-9" fill="#002664"></path>
                <g id="Group-13" transform="translate(165.000000, 17.000000)">
                    <mask id="mask-2" fill="white">
                        <use xlink:href="#path-1"></use>
                    </mask>
                    <g id="Clip-12"></g>
                    <path d="M5.45008322,3.06645496 C5.45008322,3.37056619 5.38238032,3.67467743 5.28082598,3.97878866 C5.14542018,4.24910976 4.97616294,4.51943086 4.77305425,4.72217168 C4.53609411,4.95870264 4.26528252,5.12765333 3.96061948,5.22902374 C3.04663037,5.60071525 2.03108691,5.39797443 1.35405794,4.68838154 C1.1170978,4.45185058 0.94784056,4.21531962 0.846286214,3.91120839 C0.71088042,3.64088729 0.677028971,3.33677605 0.677028971,3.03266482 C0.677028971,2.72855358 0.744731868,2.39065221 0.880137663,2.12033111 C1.01554346,1.81621988 1.1848007,1.54589878 1.42176084,1.30936782 C1.62486953,1.106627 1.89568112,0.903886172 2.16649271,0.80251576 C2.47115574,0.701145348 2.77581878,0.633565074 3.08048182,0.633565074 C3.72365934,0.633565074 4.33298542,0.903886172 4.8069057,1.34315796 C5.01001439,1.54589878 5.21312308,1.81621988 5.31467742,2.12033111 C5.38238032,2.42444235 5.45008322,2.72855358 5.45008322,3.06645496 M5.7885977,1.88380015 C5.65319191,1.51210864 5.41623177,1.20799741 5.14542018,0.903886172 C4.87460859,0.633565074 4.53609411,0.397034113 4.16372817,0.228083427 C3.4189963,-0.0760278088 2.60656154,-0.0760278088 1.86182967,0.228083427 C1.52331519,0.363243976 1.1848007,0.599774936 0.913989111,0.870096034 C0.609326074,1.14041713 0.406217383,1.47831851 0.23696014,1.85001001 C0.0677028971,2.22170152 0,2.59339303 0,2.99887468 C0,3.37056619 0.0677028971,3.77604784 0.23696014,4.11394921 C0.406217383,4.48564072 0.609326074,4.78975196 0.880137663,5.09386319 C1.72642388,5.97240676 3.01277892,6.24272786 4.12987672,5.76966594 C4.50224266,5.60071525 4.84075714,5.39797443 5.11156873,5.12765333 C5.38238032,4.85733223 5.61934046,4.51943086 5.75474626,4.18152949 C5.89015205,3.80983798 5.9917064,3.43814647 5.9917064,3.03266482 C6.02555784,2.62718317 5.95785495,2.25549166 5.7885977,1.88380015" id="Fill-11" fill="#002664" mask="url(#mask-2)"></path>
                </g>
                <polygon id="Fill-14" fill="#002664" points="11.02 42 11.02 42 10.98 42"></polygon>
                <path d="M45.0587248,0 L17.0050336,0 C14.2634228,0 12.0318792,2.20888889 12.0318792,4.92266667 L12.0318792,16.5982222 C12.2231544,16.5982222 12.3825503,16.5982222 12.5738255,16.6297778 L12.6375839,16.6297778 C14.9647651,16.8191111 17.1963087,17.5764444 19.1409396,18.8702222 C19.3322148,18.9964444 19.4916107,19.1226667 19.6828859,19.2488889 C19.9060403,19.4066667 20.0973154,19.5328889 20.2885906,19.6906667 C20.5436242,19.88 20.7986577,20.1008889 21.1174497,20.3533333 C21.6275168,20.7951111 22.1057047,21.2368889 22.647651,21.7102222 C23.4446309,22.436 24.2416107,23.1617778 25.1661074,23.9191111 L25.1661074,8.48844444 C25.2298658,5.26977778 27.9077181,2.71377778 31.1275168,2.77688889 C34.283557,2.84 36.8657718,5.36444444 36.897651,8.48844444 L36.9295302,8.48844444 L36.897651,62.4484444 L36.8657718,62.4484444 C36.8338926,65.6671111 34.1879195,68.2231111 30.9362416,68.1915556 C27.7483221,68.16 25.1342282,65.604 25.1342282,62.4484444 L25.1342282,36.1626667 C24.1778523,36.92 23.3808725,37.6773333 22.6157718,38.3715556 C22.1057047,38.8448889 21.5956376,39.2866667 21.0855705,39.7284444 C20.7667785,39.9808889 20.511745,40.2017778 20.2567114,40.3911111 C20.0654362,40.5488889 19.8741611,40.6751111 19.6828859,40.8328889 C19.5234899,40.9591111 19.3322148,41.0853333 19.1409396,41.2115556 C17.1963087,42.5053333 14.9647651,43.2942222 12.6375839,43.452 L12.6057047,43.452 L12.5738255,43.452 L12.5419463,43.452 L12.4781879,43.452 C12.3187919,43.452 12.159396,43.4835556 12,43.4835556 L12,66.0773333 C12,68.7911111 14.2315436,71 16.9731544,71 L45.0268456,71 C47.7684564,71 50,68.7911111 50,66.0773333 L50,4.92266667 C50,2.20888889 47.8003356,0 45.0587248,0" id="Fill-16" fill="#002664"></path>
                <path d="M32.2808989,29 L32.2808989,10.6315068 L34,10.6315068 L31.0337079,6 L31,6.03150685 L30.9662921,6 L28,10.6315068 L29.7191011,10.6315068 L29.7191011,27.6452055 C30.258427,27.960274 30.6966292,28.1808219 31,28.369863 L32.2808989,29 Z" id="Fill-18" fill="#002664"></path>
                <path d="M29.7191011,33.3587361 L29.7191011,61.3550186 L28,61.3550186 L30.9662921,66 L31,65.9684015 L31.0337079,66 L34,61.3550186 L32.2134831,61.3550186 L32.2134831,32 L30.9662921,32.6319703 C30.6966292,32.7899628 30.258427,33.0427509 29.7191011,33.3587361" id="Fill-20" fill="#002664"></path>
                <path d="M24.3963519,26.8838527 C24.2397652,26.7592068 24.0518612,26.6345609 23.8952746,26.509915 C21.7656959,24.8583569 20.3250985,23.3937677 18.9158185,22.1784703 C18.6652798,21.9603399 18.4147411,21.7733711 18.1955198,21.5552408 C18.0389331,21.4305949 17.8510291,21.305949 17.6944424,21.1813031 C17.5378558,21.0878187 17.3812691,20.9631728 17.2559998,20.8696884 C15.6588157,19.8101983 13.8424104,19.1558074 11.932053,19.0311615 L11.9007357,19.0311615 L11.838101,19.0311615 C11.7128317,19.0311615 11.6188797,19 11.5249277,19 L11.3370237,19 L10.992533,19 C4.88565287,19.0311615 -0.0311685564,23.9858357 0,30.0311615 C0.0314661115,35.733711 4.4472102,40.470255 10.146965,40.9376771 C10.428821,40.9688385 10.6793596,41 10.9612157,41 L11.1178023,41 L11.180437,41 L11.5249277,41 L11.838101,41 L11.9007357,41 L11.932053,41 C13.8424104,40.8441926 15.6901331,40.2209632 17.2559998,39.1614731 C17.4125864,39.0679887 17.5691731,38.9745042 17.6944424,38.8498584 C17.8510291,38.7252125 18.0389331,38.6005666 18.1955198,38.4759207 C18.4460585,38.2889518 18.6965971,38.0708215 18.9158185,37.8526912 C20.3250985,36.6373938 21.7656959,35.1728045 23.8952746,33.5212465 C24.0831786,33.3966006 24.2397652,33.2719547 24.3963519,33.1473088 C25.8682666,32.0254958 27.402816,30.9971671 29,30.0623229 L29,29.9688385 C27.402816,29.0339943 25.8682666,28.0056657 24.3963519,26.8838527" id="Fill-22" fill="#002664"></path>
                <path d="M29.01,30 C29,30 29,29.99 28.99,29.99 L28.99,30.01 C28.99,30.01 29,30.01 29.01,30" id="Fill-24" fill="#002664"></path>
                <path d="M62.3285199,7.68613139 C62.6534296,7.52798054 62.9458484,7.33819951 63.2057762,7.14841849 C63.8555957,6.67396594 64.3429603,6.04136253 64.6353791,5.31386861 C64.7978339,4.9026764 64.8628159,4.45985401 64.8628159,4.01703163 C64.8953069,3.35279805 64.732852,2.65693431 64.4079422,2.05596107 C64.1155235,1.54987835 63.7256318,1.13868613 63.2382671,0.822384428 C62.7509025,0.506082725 62.198556,0.284671533 61.6462094,0.189781022 C61.0613718,0.0632603406 60.4765343,0 59.8592058,0 C59.599278,0 59.3393502,0 59.1119134,0.0316301703 C58.8844765,0.0316301703 57,0.221411192 57,0.221411192 L57,13 L59.1444043,13 L59.1444043,1.92944039 C59.2743682,1.92944039 59.4043321,1.89781022 59.534296,1.89781022 L60.0541516,1.89781022 C60.7364621,1.86618005 61.3862816,2.05596107 61.9061372,2.46715328 C62.3935018,2.90997567 62.6209386,3.54257908 62.5884477,4.17518248 C62.5884477,4.55474453 62.5234657,4.9026764 62.3285199,5.2189781 C62.133574,5.50364964 61.9061372,5.756691 61.6462094,5.97810219 C61.3537906,6.19951338 61.0613718,6.35766423 60.7364621,6.48418491 C60.4115523,6.6107056 60.1191336,6.70559611 59.7942238,6.80048662 L59.5018051,6.86374696 L59.5018051,7.14841849 L63.5631769,13 L66,13 L62.3285199,7.68613139 Z" id="Fill-26" fill="#002664"></path>
                <polygon id="Fill-28" fill="#002664" points="90.9677419 0 90.9677419 8.97772277 86 0 84 0 84 13 86 13 86 4.11881188 91.0967742 13 93 13 93 0"></polygon>
                <polygon id="Fill-30" fill="#002664" points="102 11.0693069 97.0533333 11.0693069 97.0533333 7.11138614 100.911111 7.11138614 100.911111 5.18069307 97.0533333 5.18069307 97.0533333 1.96287129 101.875556 1.96287129 101.875556 0 95 0 95 13 102 13"></polygon>
                <polygon id="Fill-32" fill="#002664" points="74 11.0693069 69.0442478 11.0693069 69.0442478 7.11138614 72.8849558 7.11138614 72.8849558 5.18069307 69.0442478 5.18069307 69.0442478 1.96287129 73.8451327 1.96287129 73.8451327 0 67 0 67 13 74 13"></polygon>
                <polygon id="Fill-34" fill="#002664" points="111 0 103 0 103 1.95802469 105.980989 1.95802469 105.980989 13 107.988593 13 107.988593 1.95802469 111 1.95802469"></polygon>
                <path d="M82.801841,7.7247204 C82.6708284,7.35281812 82.4415563,7.01190769 82.179531,6.73298097 C81.8847526,6.45405426 81.5572211,6.2061194 81.1969364,5.9891764 C80.8038985,5.7722334 80.3781075,5.58628226 79.9523165,5.40033111 L78.9697218,5.02842883 C78.7404497,4.93545326 78.5111776,4.84247768 78.2819055,4.71851026 C78.0853866,4.62553468 77.9216208,4.50156726 77.757855,4.37759983 C77.6268424,4.2536324 77.4958298,4.09867311 77.3975703,3.94371383 C77.2993109,3.75776268 77.2665577,3.57181154 77.2665577,3.3858604 C77.2338045,2.9519744 77.4303235,2.5180884 77.7906082,2.23916168 C78.2491524,1.96023497 78.805956,1.80527568 79.3627597,1.83626754 C79.8213038,1.83626754 80.279848,1.8672594 80.705639,1.96023497 C81.0986769,2.05321054 81.4917148,2.14618611 81.8847526,2.27015354 L81.9830121,2.3011454 L81.9830121,0.379650251 C81.6882337,0.286674679 81.2624427,0.224690965 80.9349111,0.16270725 C80.4108606,0.0697316787 79.854057,0.0077479643 79.2972533,0.0077479643 C78.1508929,-0.0542357501 77.0372856,0.255682822 76.1529504,0.93750368 C75.3668747,1.58833268 74.9410837,2.5180884 75.00659,3.47883597 C75.00659,3.88173011 75.0720963,4.28462426 75.2031089,4.65652654 C75.3341215,4.96644511 75.4978873,5.27636369 75.7271594,5.52429854 C75.9564315,5.7722334 76.2184567,5.9891764 76.5132351,6.17512754 C76.8080135,6.36107869 77.1355451,6.51603797 77.4630766,6.6400054 L78.4456713,7.04289954 C78.8387092,7.19785883 79.1989939,7.35281812 79.4610191,7.47678555 C79.7230444,7.60075297 79.9523165,7.7247204 80.1488354,7.91067155 C80.3126012,8.06563083 80.4436138,8.22059012 80.5418732,8.43753312 C80.6401327,8.68546798 80.6728859,8.93340283 80.6728859,9.18133769 C80.705639,9.70819926 80.4763669,10.2350608 80.0505759,10.5759713 C79.4610191,10.9788654 78.7404497,11.1648166 78.0526334,11.1028328 C77.5613361,11.1028328 77.0700388,11.071841 76.5787414,10.9478736 C76.283963,10.8858898 75.9564315,10.7929143 75.6616531,10.6999387 L75.6616531,12.7144094 C75.858172,12.7763931 76.0874441,12.807385 76.283963,12.8693687 C76.5459883,12.9313524 76.8407667,12.9623443 77.1027919,12.9623443 C77.3975703,12.9933361 77.7251019,12.9933361 78.0853866,12.9933361 C79.3627597,13.0553198 80.6401327,12.6834176 81.6882337,11.939613 C82.5725689,11.2268003 83.0311131,10.1420853 82.9983599,9.05737026 C82.9983599,8.5924924 82.9328536,8.12761455 82.801841,7.7247204" id="Fill-36" fill="#002664"></path>
                <path d="M57,55.1307692 C57.6486486,55.0326923 58.2972973,55 58.981982,55 C59.6666667,55 60.3153153,55.0326923 61,55.1307692 L61,71.8692308 C60.3513514,71.9673077 59.7027027,72 59.018018,72 C58.3333333,72 57.6846847,71.9673077 57,71.8692308 L57,55.1307692 Z" id="Fill-38" fill="#002664"></path>
                <path d="M64,55.1307692 C64.4911839,55.0326923 64.9496222,55 65.440806,55 C65.9647355,55 66.4559194,55.0326923 66.9798489,55.1307692 L73.8236776,65.7884615 L73.8236776,55.1307692 C74.3803526,55.0326923 74.9370277,55 75.5264484,55 C76.0176322,55 76.5088161,55.0326923 77,55.1307692 L77,71.8692308 C76.5415617,71.9673077 76.0503778,72 75.559194,72 C75.0680101,72 74.5440806,71.9346154 74.0528967,71.8692308 L67.1763224,61.2442308 L67.1763224,71.8692308 C66.6523929,71.9673077 66.1284635,72 65.5717884,72 C65.0478589,72 64.5239295,71.9673077 64,71.8692308 L64,55.1307692 Z" id="Fill-40" fill="#002664"></path>
                <path d="M83.556582,69.0434783 C83.7182448,69.0434783 83.8799076,69.0756144 84.1062356,69.0756144 C84.3325635,69.0756144 84.6235566,69.1077505 84.9468822,69.1077505 C85.6581986,69.1077505 86.3371824,69.0434783 87.0161663,68.8827977 C87.630485,68.7221172 88.2124711,68.4328922 88.665127,68.0151229 C89.182448,67.5330813 89.5381062,66.9546314 89.7967667,66.3119093 C90.3464203,64.5122873 90.3464203,62.584121 89.7967667,60.7844991 C89.5704388,60.1096408 89.182448,59.5311909 88.665127,59.0491493 C88.2124711,58.63138 87.6628176,58.3100189 87.0484988,58.1493384 C86.4341801,57.9565217 85.7551963,57.8922495 85.108545,57.8922495 L84.3325635,57.8922495 C84.073903,57.8922495 83.8152425,57.9243856 83.556582,57.9565217 L83.556582,69.0434783 Z M80,55.2570888 C80.6789838,55.1928166 81.3903002,55.1285444 82.1339492,55.0642722 C82.8775982,55 83.6859122,55 84.6235566,55 C87.6951501,55 90.0230947,55.7069943 91.6073903,57.1531191 C93.1916859,58.5671078 94,60.7202268 94,63.6124764 C94,66.5047259 93.1916859,68.6257089 91.5750577,69.9754253 C89.9584296,71.3251418 87.5658199,72 84.3648961,72 C83.5242494,72 82.7806005,71.9678639 82.0692841,71.9357278 C81.3579677,71.8714556 80.6789838,71.8071834 80,71.7429112 L80,55.2570888 Z" id="Fill-42" fill="#002664"></path>
                <path d="M97.0315457,56 L106.684543,56 C106.77918,56.4366472 106.842271,56.9044834 106.842271,57.3723197 C106.842271,57.8401559 106.810726,58.3079922 106.684543,58.7758285 L100.470032,58.7758285 L100.470032,62.2378168 L105.391167,62.2378168 C105.485804,62.705653 105.51735,63.1423002 105.548896,63.6101365 C105.548896,64.0779727 105.485804,64.545809 105.391167,65.0136452 L100.470032,65.0136452 L100.470032,69.2241715 L106.842271,69.2241715 C106.936909,69.6608187 107,70.128655 107,70.5964912 C107,71.0643275 106.968454,71.5321637 106.842271,72 L97,72 L97.0315457,56 Z" id="Fill-44" fill="#002664"></path>
                <path d="M118.414254,71.8458574 L115.01559,66.265896 L111.585746,71.8458574 C111.180401,71.9075145 110.868597,71.938343 110.587973,71.9691715 C110.30735,72 110.057906,72 109.777283,72 C109.496659,72 109.216036,72 108.935412,71.9691715 C108.654788,71.938343 108.342984,71.9075145 108,71.8766859 L113.331849,63.6146435 L108.685969,56.1233141 C108.997773,56.0924855 109.309577,56.061657 109.621381,56.0308285 C109.933185,56.0308285 110.213808,56 110.525612,56 C111.11804,56 111.710468,56.0308285 112.271715,56.1233141 L115.01559,60.9325626 L117.728285,56.1233141 C118.320713,56.0308285 118.88196,56 119.474388,56 C119.786192,56 120.066815,56 120.378619,56.0308285 C120.690423,56.061657 121.002227,56.061657 121.314031,56.1233141 L116.699332,63.6146435 L122,71.8766859 C121.625835,71.9075145 121.314031,71.938343 121.064588,71.9691715 C120.783964,72 120.503341,72 120.222717,72 C119.942094,72 119.69265,72 119.412027,71.9691715 C119.131403,71.938343 118.788419,71.9075145 118.414254,71.8458574" id="Fill-46" fill="#002664"></path>
            </g>
        </g>
    </g>
</svg>