<?xml version="1.0" encoding="UTF-8"?>
<svg width="34px" height="33px" viewBox="0 0 34 33" version="1.1" xmlns="http://www.w3.org/2000/svg" xmlns:xlink="http://www.w3.org/1999/xlink">
    <title>logo mark</title>
    <defs>
        <polygon id="path-1" points="0 0 31 0 31 33 0 33 0 9.42773438"></polygon>
    </defs>
    <g id="Concept-8-8" stroke="none" stroke-width="1" fill="none" fill-rule="evenodd">
        <g id="Home" transform="translate(-678.000000, -776.000000)">
            <g id="Group-5" transform="translate(678.000000, 776.000000)">
                <polygon id="Fill-1" fill="#00828A" points="3.43605507 0.817413843 2.79236298 2.27877508 0 13 7 13 7 0"></polygon>
                <g id="Group-4" transform="translate(3.000000, 0.000000)">
                    <mask id="mask-2" fill="white">
                        <use xlink:href="#path-1"></use>
                    </mask>
                    <g id="Clip-3"></g>
                    <path d="M31.0001809,33 L17.3990203,27.7855255 L3.76168965,33 C3.76168965,33 3.86055457,5.58589144 3.86055457,4.70766416 C3.86055457,3.99044521 3.81594479,3.07501525 3.52598121,2.54624924 C2.83874945,1.29538524 0.229077254,1.31246188 0,2.97316528 C0.464182857,0.141492173 2.77062911,0 4.72984247,0 L27.6086318,0 C29.6058238,0 31.0001809,1.62655011 31.0001809,3.72514739 L31.0001809,33 Z" id="Fill-2" fill="#7CBF92" mask="url(#mask-2)"></path>
                </g>
            </g>
        </g>
    </g>
</svg>