<?xml version="1.0" encoding="UTF-8"?>
<svg width="32px" height="36px" viewBox="0 0 32 36" version="1.1" xmlns="http://www.w3.org/2000/svg" xmlns:xlink="http://www.w3.org/1999/xlink">
    <title>Group</title>
    <g id="Concept-8-8" stroke="none" stroke-width="1" fill="none" fill-rule="evenodd">
        <g id="Community" transform="translate(-777.000000, -790.000000)">
            <g id="Group" transform="translate(777.000000, 790.000000)">
                <g id="sales-icon-bg" fill="#FFFFFF">
                    <path d="M16,3.90798505e-14 C24.836556,3.90798505e-14 32,6.93958638 32,15.5 C32,22.8595221 26.7054189,29.0210728 19.6049534,30.6049772 L16.3333333,35.5454545 L13.1641157,30.7572801 C5.68030484,29.4605327 0,23.1228897 0,15.5 C0,6.93958638 7.163444,3.90798505e-14 16,3.90798505e-14 Z"></path>
                </g>
                <g id="sales-center-icon" transform="translate(9.000000, 9.000000)" fill="#39474F">
                    <polygon points="0 7.08508015 1.625 7.08508015 1.625 13 4.875 13 4.875 9.45745993 8.125 9.45745993 8.125 13 11.375 13 11.375 7.08508015 13 7.08508015 6.5 0"></polygon>
                </g>
            </g>
        </g>
    </g>
</svg>