<?xml version="1.0" encoding="UTF-8"?>
<svg width="32px" height="20px" viewBox="0 0 21 13" version="1.1" xmlns="http://www.w3.org/2000/svg" xmlns:xlink="http://www.w3.org/1999/xlink">
    <!-- Generator: Sketch 63.1 (92452) - https://sketch.com -->
    <title>map</title>
    <desc>Created with Sketch.</desc>
    <defs>
        <polygon id="path-1" points="0 0 27 0 27 17 0 17"></polygon>
    </defs>
    <g id="Toll-Brothers-Dot-Com-Library" stroke="none" stroke-width="1" fill="none" fill-rule="evenodd">
        <g id="Home" transform="translate(-409.000000, -521.000000)">
            <g id="map" transform="translate(406.000000, 519.000000)">
                <mask id="mask-2" fill="white">
                    <use xlink:href="#path-1"></use>
                </mask>
                <g id="Clip-2"></g>
                <path d="M23.2726966,3.46380126 C23.2585869,3.51596887 23.1503032,3.59226401 23.0384101,3.67573219 L23.0243004,3.67573219 C22.7614664,3.84821136 22.5711497,4.11002758 22.4894447,4.41227369 L22.4691005,4.41227369 C22.4697158,4.67140001 22.3882159,4.892338 22.2956006,5.11486548 C22.3684049,5.1194709 22.3406367,5.12676622 22.3355507,5.13838166 C22.2905555,5.25958985 22.2360856,5.37696698 22.1729201,5.48953491 C22.1278019,5.7628443 22.0080336,5.98149996 21.8488894,6.2126677 C21.7306798,6.38445402 21.6262517,6.56100879 21.4946296,6.72358427 C21.4786742,6.7433509 21.4619804,6.76291376 21.4448765,6.78219132 C21.4102176,6.9156263 21.3906937,7.05289233 21.3882737,7.19150331 L21.3580445,7.19150331 C21.36432,7.22149969 21.3676834,7.25214816 21.3676014,7.2829189 C21.4761311,7.46420136 21.55033,7.66891849 21.5827331,7.88598467 L21.5942998,7.88598467 C21.6898683,8.04065349 21.770835,8.14914583 21.8278069,8.23946101 C21.8398658,8.25543734 21.8504481,8.27292164 21.8592256,8.29195467 C21.9144749,8.39111389 21.9331374,8.4723405 21.8984784,8.58079207 L21.8706282,8.58079207 C21.8259202,8.75799894 21.7005736,8.90044098 21.5513144,9.01292739 C21.4702247,9.21051223 21.3502104,9.39395475 21.2119026,9.53138381 C21.1716654,9.57132464 21.1298695,9.60796424 21.0866791,9.64175092 C21.0107985,9.77791654 20.912933,9.90238521 20.7989071,10.0108775 C20.7249542,10.2786849 20.5918145,10.5166996 20.4149102,10.7161185 C20.3661415,10.927275 20.3404652,11.1433223 20.3395218,11.3600217 L20.2966595,11.3600217 C20.3471919,11.5896815 20.3951402,11.8196673 20.4161817,12.0548291 L20.4231956,12.0548291 C20.5839804,12.6801884 20.8635491,12.9234199 20.9370508,13.260227 C20.9685515,13.4164038 20.912769,13.5797537 20.8287671,13.6042072 C20.7378744,13.6355078 20.5630209,13.513892 20.3953043,13.3123946 C20.168975,13.0295484 19.9721777,12.7251014 19.8073322,12.4037408 C19.7576612,12.3856044 19.7118867,12.3569122 19.6750539,12.3142815 C19.5723895,12.1954371 19.4787897,11.9993603 19.3366674,11.9226576 C19.2204266,11.8599342 19.0566885,11.8349915 18.9036968,11.8177518 C18.4639585,11.8742395 17.9970262,11.8211753 17.5527761,11.8419608 C17.5196347,11.8710605 17.4802589,11.894536 17.4341563,11.9097379 C17.3686119,11.9699345 17.29712,12.0262592 17.2148408,12.0789566 C17.1342023,12.1306759 17.0449914,12.1706983 16.9520069,12.2019173 C16.7769483,12.3463972 16.6131282,12.5038781 16.4623104,12.6729746 C16.3435265,12.7043159 15.5533839,12.2041589 14.4590626,12.7493105 L14.3922877,12.7493105 C14.3842895,12.7561575 14.3764963,12.7630045 14.3684161,12.7697699 C14.3454468,12.7937752 14.3193603,12.815009 14.2905257,12.8329417 C14.271412,12.8479806 14.2522572,12.8630603 14.2327334,12.8778547 C14.0735482,12.9982885 13.9091539,13.1080443 13.7613713,13.2344285 C13.7528399,13.2879818 13.7473847,13.3431246 13.7311011,13.3929692 C13.6833989,13.5391607 13.5863947,13.6489165 13.4657651,13.7144113 C13.3502625,13.9099584 13.2282793,14.1016336 13.0989542,14.2885811 C12.9359955,14.0603478 12.7947755,13.8177276 12.676976,13.5638996 C12.5634423,13.4733806 12.4577837,13.3700236 12.3554884,13.273921 C12.1616853,13.0917419 11.9554131,12.9226455 11.7532016,12.7493105 L11.7391739,12.7493105 C11.4966841,12.6814518 11.2404128,12.6814518 10.997923,12.7493105 L10.8056375,12.7493105 C10.6826699,12.624475 10.6609721,12.4959307 10.4983416,12.2992018 C10.4273419,12.2507429 10.3582701,12.1975972 10.2909619,12.140009 C10.0596697,11.9421797 9.83584241,11.7364436 9.62198218,11.5203556 C9.61431209,11.5182363 9.60651894,11.5166468 9.59888987,11.5144052 C9.45873635,11.4722636 9.32235636,11.4178951 9.18732991,11.3600217 L7.68706796,11.3600217 C7.25975766,11.2061272 6.84302962,11.0255376 6.43885264,10.8198016 C5.95600595,10.6505014 5.5432155,10.3460952 5.14802114,10.0267316 C4.79220267,9.73919839 4.43798383,9.41372139 4.21674062,9.00934087 C4.1107949,8.81570936 4.03269941,8.61311154 3.97626065,8.4048894 C3.91731989,8.24667481 3.87064306,8.08414009 3.83721459,7.91854867 C3.78627204,7.78433933 3.75251543,7.64177503 3.73766744,7.49440152 C3.71806154,7.38040713 3.71387785,7.26714635 3.724173,7.15629017 C3.67392774,6.19326787 3.73044853,5.22763719 3.89353029,4.27663789 C3.9565317,3.79734794 3.92864045,3.1475351 4.08942528,2.97049126 C4.12289478,2.94245117 4.16063,2.92027993 4.2013184,2.90462965 C4.55438877,2.73834538 4.95306953,2.69432896 5.33403115,2.77942738 C7.01082828,3.2471834 8.73225141,3.53997413 10.469589,3.65502817 C10.6073635,3.63978544 10.7463686,3.63489473 10.8836919,3.6384405 C11.1189628,3.64447238 11.3530442,3.67088223 11.5863053,3.70409833 C13.2678193,3.74941895 14.9134028,3.74986726 16.4171512,4.33337017 C16.4714161,4.35105825 16.5247376,4.37066186 16.5776079,4.39140664 C16.600085,4.39690869 16.6177221,4.40118807 16.6102981,4.40453006 C16.9780114,4.55426741 17.3055694,4.78160409 17.5421118,5.10708109 L17.542522,5.10708109 C17.5427271,5.10752941 17.5428911,5.10797772 17.5430552,5.10842604 C17.5846049,5.1657289 17.6239808,5.22543637 17.6596242,5.28893413 C17.8384973,5.60764565 17.9276673,5.94359693 17.9757797,6.2993556 C17.9848443,6.36639914 17.9893972,6.43181243 17.9920222,6.4966959 L18.7487364,6.4966959 C18.998199,6.17321594 19.385313,5.96560514 19.7534365,5.75889097 C19.9966235,5.5531957 20.2298026,5.33580347 20.4510868,5.10708109 L20.5254088,5.10708109 C20.6972271,4.91532436 20.8997257,4.75067033 21.096482,4.58446757 C21.1701067,4.52223324 21.2442236,4.46346316 21.3231805,4.41227369 L21.3042308,4.41227369 C21.7445844,4.14491467 22.2902684,3.81462846 22.3775516,3.24502333 C22.3880518,3.14101415 22.3880518,3.03635287 22.3775516,2.93234369 C22.3703327,2.87691561 22.3703327,2.82083542 22.3775516,2.76573338 C22.4320216,2.71291367 22.5114296,2.69432896 22.5839468,2.71715229 C22.7611383,2.79344742 22.9163449,2.91278084 23.0348006,3.06439297 C23.2549774,3.29360442 23.2864781,3.41163365 23.2726966,3.46380126 M23.5762189,2.57140902 C23.3629329,2.32002633 23.0813954,2.13450525 22.7657321,2.03603888 L22.7657732,2.03603888 C22.3394883,1.90985847 21.8866657,2.12439778 21.7170213,2.5329354 C21.6723953,2.73019419 21.6619361,2.93332184 21.6855206,3.1338411 C21.6471291,3.38033308 21.2730582,3.60987058 20.9409883,3.81136799 C20.6076059,3.98808578 20.3090055,4.22349214 20.0599531,4.50617539 C19.7443308,4.84754721 19.4030322,5.16446547 19.0391335,5.45464782 C18.6896725,5.72200684 18.5810607,5.73602689 18.5042778,5.66657875 C18.1548579,5.31933807 18.6371714,4.50291492 16.7983179,3.7490929 C14.700568,2.89093565 12.3616409,3.11688663 10.2048272,2.96397031 C8.61633867,2.82246566 7.04458489,2.53521774 5.50958193,2.10581306 C4.97407,1.97735032 4.41099495,2.03603888 3.91453076,2.27242338 C3.15588885,2.60923054 3.29928267,3.41522017 3.19788979,4.18664876 C3.02299527,5.53094295 2.84842888,6.96587838 3.21889026,8.30332558 C3.67696297,9.93258536 4.84806719,10.8116097 6.36535101,11.5445646 C6.92612913,11.8438763 7.52792379,12.0590677 8.15170332,12.1836179 C8.95595562,12.2948001 9.67587791,12.1836179 10.0919497,12.8992923 C10.2058116,13.1314382 10.3974409,13.3169593 10.6336961,13.4239029 C10.6504309,13.4330322 10.6678219,13.4398792 10.6861973,13.44477 C10.8230285,13.4779861 10.9654379,13.4779861 11.1022691,13.44477 L11.6545158,13.44477 C11.7959408,13.4923729 11.9186623,13.5836662 12.0039767,13.705282 C12.1893714,13.9902476 12.4584399,14.9383532 13.073688,14.9974086 C13.6889361,15.0564232 14.0177247,14.0906702 14.2415109,13.8160974 C14.6730049,13.2791378 15.3942397,13.0632943 16.0524731,13.2742063 C16.4235908,13.4767226 16.8892105,13.3671706 17.1294444,13.0205821 C17.3357986,12.7809371 17.7414112,12.3952228 18.1259822,12.471844 C18.3776187,12.5204251 18.7201888,12.7845236 19.1746521,12.6316073 C19.3764535,13.0296706 19.6215683,13.4049514 19.9054028,13.7502765 C20.2899738,14.2158725 20.7165458,14.3965029 21.1116171,14.2575658 C21.552627,14.0645864 21.7846165,13.5797537 21.656973,13.1180703 C21.5654241,12.8089364 21.4325305,12.513252 21.2619428,12.239046 C20.8753619,11.3958869 21.0739229,10.4017678 21.7547565,9.76919477 C22.1252179,9.42199485 22.6882929,9.07442812 22.6567922,8.44222185 C22.6321823,7.94891185 22.2548711,7.65709926 22.1534372,7.37213367 C22.0205437,6.9968529 22.338832,6.53843 22.5553993,6.23259736 C22.8667969,5.86090311 23.0656451,5.40932721 23.1286465,4.93003725 C23.2126483,4.44357426 23.2579716,4.41586021 23.5027173,4.23522985 C23.7347069,4.09176891 23.9079607,3.87168679 23.9922907,3.6134571 C24.037573,3.21893952 23.881382,2.82768242 23.5762189,2.57140902" id="Fill-1" fill="#0070CD" mask="url(#mask-2)"></path>
            </g>
        </g>
    </g>
</svg>