<?xml version="1.0" encoding="UTF-8"?>
<svg width="39px" height="30px" viewBox="0 0 39 30" version="1.1" xmlns="http://www.w3.org/2000/svg" xmlns:xlink="http://www.w3.org/1999/xlink">
    <!-- Generator: Sketch 63.1 (92452) - https://sketch.com -->
    <title>Fill 54</title>
    <desc>Created with Sketch.</desc>
    <g id="Toll-Brothers-Dot-Com-Library" stroke="none" stroke-width="1" fill="none" fill-rule="evenodd">
        <g id="Home3" transform="translate(-1555.000000, -1409.000000)" fill="#AAA5A0">
            <path d="M1558.81811,1434.95 L1590.17916,1434.95 L1591,1434.05 L1558,1434.05 L1558.81811,1434.95 Z M1574.5,1417 C1582.65789,1417 1589.73079,1423.98182 1590,1433 L1561.7193,1433 C1561.99395,1425.72727 1567.70175,1419.90909 1574.5,1419.90909 L1574.5,1418.45455 C1566.88596,1418.45455 1560.6343,1424.85455 1560.35965,1433 L1559,1433 C1559.54386,1423.98182 1566.34211,1417 1574.5,1417 L1574.5,1417 Z M1575.0985,1414 L1575.0985,1417 L1574.4985,1417 L1573.9015,1417 L1573.9015,1414 L1575.0985,1414 Z M1593.61144,1433.85714 L1592.78405,1433.85714 L1591.67811,1433.85714 C1591.67811,1425 1585.05901,1417.57143 1576.50933,1416.42857 L1576.50933,1413.57143 L1578.16411,1413.57143 C1579.54309,1413.57143 1580.37323,1412.42857 1580.37323,1411.28571 C1580.37323,1410.14286 1579.26729,1409 1578.16411,1409 L1570.99341,1409 C1569.61443,1409 1568.7898,1410.14286 1568.7898,1411.28571 C1568.7898,1412.42857 1569.89023,1413.57143 1570.99341,1413.57143 L1572.64819,1413.57143 L1572.64819,1416.42857 C1564.09851,1417.57143 1557.75796,1425 1557.47941,1433.85714 L1556.37898,1433.85714 L1555.55159,1433.85714 C1555.27304,1433.85714 1555,1434.14286 1555,1434.42857 L1555,1438.42857 C1555,1438.71429 1555.27304,1439 1555.55159,1439 L1593.33289,1439 C1593.61144,1439 1593.88448,1438.71429 1593.88448,1438.42857 L1593.88448,1434.42857 C1594.16303,1434.14286 1593.88448,1433.85714 1593.61144,1433.85714 L1593.61144,1433.85714 Z" id="Fill-54"></path>
        </g>
    </g>
</svg>