<svg xmlns="http://www.w3.org/2000/svg" viewBox="0 0 46.69 46.69"><title>Shopping</title><g id="Layer_2" data-name="Layer 2"><g id="Icons"><path id="Shopping" d="M46.37.32a1.09,1.09,0,0,0-1.55,0L37.07,8.07,33.84,4.85a1.08,1.08,0,0,0-1.54,0,5.11,5.11,0,0,1-7.23,0,1.09,1.09,0,0,0-1.54,0L.32,28.06a1.1,1.1,0,0,0-.32.77,1.14,1.14,0,0,0,.32.78L17.08,46.37a1.09,1.09,0,0,0,.77.32,1.13,1.13,0,0,0,.78-.32l23.2-23.21a1.07,1.07,0,0,0,.32-.77,1.1,1.1,0,0,0-.32-.78,5.12,5.12,0,0,1,0-7.22,1.07,1.07,0,0,0,.32-.77,1.1,1.1,0,0,0-.32-.78L38.61,9.62l7.76-7.75A1.11,1.11,0,0,0,46.37.32Zm-6.8,13.35a7.31,7.31,0,0,0,0,8.66L17.85,44,2.64,28.83,24.36,7.12a7.3,7.3,0,0,0,8.65,0l2.51,2.5L33.4,11.74a3.72,3.72,0,1,0,2,3.28A3.75,3.75,0,0,0,35,13.29l2.12-2.12ZM31.49,15.2a1.11,1.11,0,0,0,1.55,0l.14-.15a1.47,1.47,0,0,1-.44,1A1.52,1.52,0,0,1,30.15,15,1.47,1.47,0,0,1,30.6,14a1.5,1.5,0,0,1,1-.45l-.15.15A1.09,1.09,0,0,0,31.49,15.2Z"/></g></g></svg>