<svg xmlns="http://www.w3.org/2000/svg" viewBox="0 0 54.55 53.83"><g id="Layer_2single-family" data-name="Layer 2"><g id="Icons"><g id="single-family"><path d="M54.55,27.28l-9.36-9.36V9.71H40v3L31.53,4.26h0L27.28,0h0L23,4.26h0l-23,23,4.26,4.26,3.49-3.49V53.83H46.81V28.05l3.49,3.49ZM42.06,11.8h1v3.5l-1-1ZM3,27.28,24.5,5.74,26,4.27,27.26,3l0,0V3l1.3,1.3h0l1.46,1.47L51.6,27.28l-1.3,1.3L28.76,7,27.28,5.56,25.8,7,4.26,28.58ZM37.87,51.73H29.5V36h8.37Zm6.84,0H38.92V34.94H28.45V51.73H9.84V26L27.28,8.52,44.71,26Z"/><path d="M14.5,43.42H25V34.94H14.5Zm1.05-1V38.66h8.37v3.72ZM23.92,36v1.63H15.55V36Z"/><path d="M14.5,32.26H25V23.78H14.5Zm1.05-1V27.5h8.37v3.72Zm8.37-6.4v1.63H15.55V24.82Z"/><path d="M38.92,23.78H28.45v8.48H38.92Zm-1.05,1v1.63H29.5V24.82Zm-8.37,6.4V27.5h8.37v3.72Z"/></g></g></g></svg>