<svg xmlns="http://www.w3.org/2000/svg" viewBox="0 0 45.58 45.58"><title>soccer</title><g id="Layer_2" data-name="Layer 2"><g id="Icons"><path id="soccer" d="M22.79,0A22.79,22.79,0,1,0,45.58,22.79,22.79,22.79,0,0,0,22.79,0ZM42.56,22.79A19.8,19.8,0,0,1,42,27.44l-2.5-4.34,2.6-4.51c.06.24.1.49.15.74A19.79,19.79,0,0,1,42.56,22.79Zm-5.05-13A19.9,19.9,0,0,1,41.64,17L38.45,22.5H31.14l-3.66-6.33,3.66-6.34ZM19.14,29.44,15.48,23.1l3.66-6.34h7.3L30.1,23.1l-3.66,6.34Zm12-20.8-2.6-4.51a19.73,19.73,0,0,1,7.81,4.51ZM26.91,3.72,30.1,9.23l-3.66,6.34h-7.3L15.47,9.23l3.18-5.51A19.82,19.82,0,0,1,26.91,3.72ZM14.43,8.64H9.24A19.7,19.7,0,0,1,17,4.14Zm0,1.19,3.66,6.34L14.43,22.5H7.13L4,17.09,3.94,17A19.9,19.9,0,0,1,8.07,9.83ZM3.59,27.44A19.8,19.8,0,0,1,3,22.79a19.59,19.59,0,0,1,.32-3.45q.06-.37.15-.75l2.6,4.51L3.75,27.16ZM4,29,7.13,23.7h7.3L18.09,30l-3.66,6.34h-6A19.69,19.69,0,0,1,4,29Zm10.39,8.52,2.23,3.85.12.22a19.78,19.78,0,0,1-7.1-4.07Zm4,4.5L15.47,37l3.67-6.34h7.3L30.1,37l-3,5.09a19.35,19.35,0,0,1-8.74,0Zm17.49-4.5a19.49,19.49,0,0,1-7.12,4.07l2.35-4.07Zm-4.76-1.19L27.48,30l3.66-6.33h7.31L41.54,29a19.69,19.69,0,0,1-4.4,7.33Z"/></g></g></svg>