<svg xmlns="http://www.w3.org/2000/svg" viewBox="0 0 43 41"><title>Square-Feet</title><g id="Layer_2" data-name="Layer 2"><g id="Icons"><g id="Square-Feet"><path d="M42.27,27.31,26.67,11.73,11.06,27.32l1.41,1.41L15,26.21V40.92H38.33V26.2l2.53,2.52ZM36.33,38.92H17V24.21l9.67-9.65,9.66,9.65Z"/><polygon points="43 8 38.68 5.51 38.68 7 9 7 9 4.32 10.49 4.32 8 0 5.51 4.32 7 4.32 7 7 4.32 7 4.32 5.51 0 8 4.32 10.49 4.32 9 7 9 7 36.68 5.51 36.68 8 41 10.49 36.68 9 36.68 9 9 38.68 9 38.68 10.49 43 8"/></g></g></g></svg>