<?xml version="1.0" encoding="UTF-8"?>
<svg width="18px" height="18px" viewBox="0 0 18 18" version="1.1" xmlns="http://www.w3.org/2000/svg" xmlns:xlink="http://www.w3.org/1999/xlink">
    <title>icon</title>
    <g id="Concept-8-8" stroke="none" stroke-width="1" fill="none" fill-rule="evenodd">
        <g id="Community" transform="translate(-846.000000, -2294.000000)" fill="#8195A2">
            <g id="additional-content" transform="translate(843.000000, 2125.000000)">
                <g id="feature-item" transform="translate(2.000000, 164.000000)">
                    <g id="icon" transform="translate(1.666667, 5.666667)">
                        <path d="M7.88620624,0.344253748 C7.96592895,0.0895635628 8.22327369,-0.0539441194 8.46955003,0.0189534705 C8.60167296,0.0626848685 8.70878729,0.163182736 8.76521521,0.293878993 L8.78394961,0.344253748 L10.5074654,5.98543662 L16.1893854,5.98543662 C16.3149648,5.98438026 16.4358011,6.03561468 16.5253096,6.12786801 C16.6148181,6.22012134 16.665666,6.34583602 16.6666667,6.47735411 C16.6648272,6.61644886 16.6082199,6.74772768 16.5115723,6.84094744 L16.4734814,6.87406177 L11.8787021,10.357155 L13.6400973,16.0023049 C13.6803984,16.1264143 13.6709044,16.2623363 13.613787,16.3789823 C13.5566696,16.4956284 13.4568147,16.5830201 13.3370615,16.6211689 C13.2898984,16.6399768 13.2397962,16.6493947 13.1893316,16.6489384 C13.091557,16.6474275 12.9968565,16.6152474 12.9172247,16.5571472 L12.87872,16.525959 L8.33318395,13.054767 L3.76870819,16.5695969 C3.66482872,16.6482695 3.53558923,16.6810387 3.40885326,16.6608396 C3.27726155,16.6387243 3.16083569,16.5591045 3.0885836,16.4418178 C3.02536301,16.3391919 3.00117156,16.2161824 3.01956036,16.0968098 L3.03005859,16.0459428 L3.00733091,16.0459428 L3.06036216,15.8674243 L4.7914538,10.3611221 L0.196674465,6.88199592 C0.0946983956,6.80430263 0.0265281131,6.68721644 0.00727713075,6.55669564 C-0.0152350491,6.42817723 0.0150197981,6.29567388 0.0906119579,6.1917246 C0.176218422,6.0620966 0.31676573,5.98619059 0.465168167,5.9864613 L0.514861987,5.98940369 L6.14375077,5.98940369 L7.88620624,0.344253748 Z M9.73652007,7.02710328 L8.33229167,2.43055556 L6.91238516,7.03107036 L2.11909722,7.03090278 L6.00522094,9.97358425 L4.52847222,14.6694444 L8.33054228,11.7420867 L12.1229167,14.6381944 L10.6663987,9.96901239 L14.5472222,7.02708333 L9.73652007,7.02710328 Z" id="icon-star"></path>
                    </g>
                </g>
            </g>
        </g>
    </g>
</svg>