<svg xmlns="http://www.w3.org/2000/svg" viewBox="0 0 65.9 59.66"><title>tennis</title><g id="Layer_2" data-name="Layer 2"><g id="Icons"><g id="tennis"><rect x="30.77" y="23.61" width="26.21" height="1.61" transform="translate(-4.41 38.18) rotate(-45)" style="stroke:#000;stroke-miterlimit:10"/><rect x="24.48" y="19.28" width="30.18" height="1.61" transform="translate(-2.61 33.86) rotate(-45)" style="stroke:#000;stroke-miterlimit:10"/><rect x="22.4" y="14.86" width="25.9" height="1.61" transform="translate(-0.72 29.58) rotate(-45)" style="stroke:#000;stroke-miterlimit:10"/><rect x="35.79" y="10.75" width="1.61" height="24.6" transform="translate(-5.58 32.63) rotate(-45)" style="stroke:#000;stroke-miterlimit:10"/><rect x="41.37" y="6.58" width="1.61" height="21.39" transform="translate(0.13 34.88) rotate(-45)" style="stroke:#000;stroke-miterlimit:10"/><path d="M4.27,59.16h0a3.64,3.64,0,0,1-2.59-1.07L1.57,58a3.65,3.65,0,0,1,0-5.17L12.1,42.28a.79.79,0,0,1,1.13,0l4.15,4.14a.82.82,0,0,1,0,1.14L6.85,58.09A3.63,3.63,0,0,1,4.27,59.16ZM12.66,44l-9.95,10a2,2,0,0,0,0,2.89l.11.12a2.07,2.07,0,0,0,1.45.6h0A2,2,0,0,0,5.71,57l10-10Z" style="stroke:#000;stroke-miterlimit:10"/><path d="M35.74,39.68h0a15.81,15.81,0,0,1-11.32-4.46,16,16,0,0,1-4.35-13.3A23.84,23.84,0,0,1,27.13,7.66,23.41,23.41,0,0,1,43.37.5,15.78,15.78,0,0,1,54.69,5a16,16,0,0,1,4.36,13.3A23.84,23.84,0,0,1,52,32.52,23.41,23.41,0,0,1,35.74,39.68ZM43.37,2.11A21.78,21.78,0,0,0,28.27,8.8a22.18,22.18,0,0,0-6.6,13.28,14.54,14.54,0,0,0,3.89,12,14.22,14.22,0,0,0,10.18,4,21.81,21.81,0,0,0,15.11-6.69,22.29,22.29,0,0,0,6.6-13.28,14.54,14.54,0,0,0-3.89-12A14.23,14.23,0,0,0,43.37,2.11ZM36.76,34.67a11.8,11.8,0,0,1-8.45-3.33,12,12,0,0,1-3.25-9.93,17.73,17.73,0,0,1,5.23-10.59A17.41,17.41,0,0,1,42.35,5.51a11.81,11.81,0,0,1,8.46,3.33c5.11,5.11,4.22,14.31-2,20.52A17.39,17.39,0,0,1,36.76,34.67ZM42.35,7.12A15.8,15.8,0,0,0,31.43,12a16.07,16.07,0,0,0-4.77,9.61,10.41,10.41,0,0,0,2.79,8.63,10.08,10.08,0,0,0,7.31,2.86,15.8,15.8,0,0,0,10.93-4.84c5.57-5.58,6.46-13.76,2-18.24A10.08,10.08,0,0,0,42.35,7.12Z" style="stroke:#000;stroke-miterlimit:10"/><path d="M16.8,47.79a.81.81,0,0,1-.57-.24L12.1,43.41a.79.79,0,0,1,0-1.13,31.37,31.37,0,0,0,8.43-14.36.78.78,0,0,1,.77-.61.8.8,0,0,1,.79.6,13.17,13.17,0,0,0,9.66,9.66.82.82,0,0,1,.6.79.8.8,0,0,1-.61.77,31.45,31.45,0,0,0-14.37,8.43A.8.8,0,0,1,16.8,47.79Zm-3-5,3,3A33.76,33.76,0,0,1,28.9,38.29a14.72,14.72,0,0,1-7.54-7.55A33.71,33.71,0,0,1,13.79,42.83Z" style="stroke:#000;stroke-miterlimit:10"/><path d="M58.81,50a6.59,6.59,0,1,1,4.66-1.93A6.53,6.53,0,0,1,58.81,50Zm0-11.57a5,5,0,1,0,3.52,1.46A4.95,4.95,0,0,0,58.81,38.41Z" style="stroke:#000;stroke-miterlimit:10"/></g></g></g></svg>