<svg xmlns="http://www.w3.org/2000/svg" viewBox="0 0 110.11 41.21"><title>totlot</title><g id="Layer_2" data-name="Layer 2"><g id="Icons"><g id="totlot"><rect x="53.69" y="-33.77" width="2.73" height="106.42" transform="translate(24.56 69.22) rotate(-77.95)" style="fill:none"/><path d="M55.1,34.56a6.32,6.32,0,0,1-6.28-5.68H47.23L44.68,40.21H65.51L63,28.88H61.37A6.31,6.31,0,0,1,55.1,34.56Z" style="fill:none"/><circle cx="55.1" cy="28.25" r="4.3" style="fill:#fff"/><path d="M109.91,26.56a1.23,1.23,0,0,0-.79-.54L99.6,24l1-4.5a.93.93,0,0,0-1.82-.39l-1,4.5-84.25-18,1-4.5A.93.93,0,0,0,12.68.73l-1,4.5L2.6,3.29a1.24,1.24,0,0,0-1.48,1L0,9.36a1.27,1.27,0,0,0,.17,1,1.3,1.3,0,0,0,.79.54L52,21.74A6.37,6.37,0,0,0,49,25.88H46.43a1,1,0,0,0-1,.78L42.46,40a1,1,0,0,0,.19.85,1,1,0,0,0,.78.37H66.76a1,1,0,0,0,.79-.37,1,1,0,0,0,.19-.85l-3-13.33a1,1,0,0,0-1-.78H61.25a6.12,6.12,0,0,0-1.15-2.41l47.41,10.11a1.09,1.09,0,0,0,.26,0,1.25,1.25,0,0,0,1.22-1l1.09-5.12A1.25,1.25,0,0,0,109.91,26.56ZM55.1,23a4.31,4.31,0,1,1-4.31,4.3A4.31,4.31,0,0,1,55.1,23Zm6.27,4.93H63l2.55,11.33H44.68l2.55-11.33h1.59a6.31,6.31,0,0,0,12.55,0Zm45.44,3L2.73,8.66,3.3,6,107.38,28.2Z"/></g></g></g></svg>