<svg xmlns="http://www.w3.org/2000/svg" viewBox="0 0 61.18 45.5"><g id="Layer_2townhome" data-name="Layer 2"><g id="Icons"><g id="townhome"><path d="M5,30.58H8.88V20.13H5Zm1-9.46H7.89v8.47H6Z"/><path d="M16.73,20.13h-3.9V30.58h3.9Zm-1,9.46H13.81V21.12h1.94Z"/><path d="M5,39.07H8.88V33.23H5Zm1-4.85H7.89v3.87H6Z"/><path d="M57.56,4.5V0h-2V3.31L50.28.11l-9.83,6L37.83,4.5V0h-2V3.31L30.55.11l-9.83,6L18.09,4.5V0h-2V3.31L10.81.11,0,6.69V45.5H61.18V6.69Zm-41.81,39H12.5V34.28h3.25Zm4,0h-3V33.29H11.51V43.53H2V7.8l8.85-5.38L19.74,7.8Zm15.74,0H32.23V34.28h3.25Zm4,0h-3V33.29H31.25V43.53H21.71V7.8l8.84-5.38L39.47,7.8Zm15.75,0H52V34.28h3.25Zm4,0h-3V33.29H51V43.53H41.44V7.8l8.85-5.38L59.21,7.8Z"/><path d="M5,18H8.88V12.18H5Zm1-4.85H7.89V17H6Z"/><path d="M16.77,12.18h-3.9V18h3.9Zm-1,4.86H13.86V13.17h1.93Z"/><path d="M24.71,30.58h3.91V20.13H24.71Zm1-9.46h1.93v8.47H25.7Z"/><path d="M36.47,20.13H32.56V30.58h3.91Zm-1,9.46H33.55V21.12h1.93Z"/><path d="M24.71,39.07h3.91V33.23H24.71Zm1-4.85h1.93v3.87H25.7Z"/><path d="M24.71,18h3.91V12.18H24.71Zm1-4.85h1.93V17H25.7Z"/><path d="M36.51,12.18H32.6V18h3.91Zm-1,4.86H33.59V13.17h1.93Z"/><path d="M44.44,30.58h3.91V20.13H44.44Zm1-9.46h1.93v8.47H45.43Z"/><path d="M56.2,20.13H52.3V30.58h3.9Zm-1,9.46H53.28V21.12h1.94Z"/><path d="M44.44,39.07h3.91V33.23H44.44Zm1-4.85h1.93v3.87H45.43Z"/><path d="M44.44,18h3.91V12.18H44.44Zm1-4.85h1.93V17H45.43Z"/><path d="M56.24,12.18h-3.9V18h3.9Zm-1,4.86H53.33V13.17h1.93Z"/></g></g></g></svg>