<svg xmlns="http://www.w3.org/2000/svg" viewBox="0 0 60.99 64.37"><title>trail</title><g id="Layer_2" data-name="Layer 2"><g id="Icons"><path id="trail" d="M60.63,13.5,55.51,8.4A1.25,1.25,0,0,0,54.63,8H38.55V1.25A1.25,1.25,0,0,0,37.3,0H23.86a1.25,1.25,0,0,0-1.25,1.25V8H18.25A1.25,1.25,0,0,0,17,9.29V19.35a1.25,1.25,0,0,0,1.25,1.25h4.36V25H6.37a1.26,1.26,0,0,0-.87.35l-5.12,5a1.23,1.23,0,0,0-.38.88,1.26,1.26,0,0,0,.37.9l5.11,5.1a1.27,1.27,0,0,0,.89.36H22.61V63.12a1.25,1.25,0,0,0,1.25,1.25H37.3a1.25,1.25,0,0,0,1.25-1.25V37.6h4.19A1.25,1.25,0,0,0,44,36.35V26.29A1.25,1.25,0,0,0,42.74,25H38.55V20.6H54.63a1.25,1.25,0,0,0,.87-.35l5.11-5A1.27,1.27,0,0,0,61,14.4,1.25,1.25,0,0,0,60.63,13.5ZM25.11,2.5H36.05V8H25.11ZM36.05,61.87H25.11V37.6H36.05Zm5.44-34.33V35.1H6.88L3,31.26l3.84-3.72H41.49ZM25.11,25V20.6H36.05V25Zm0-14.5H36.05M19.5,18.1V10.54H54.11L58,14.38,54.12,18.1Zm16.55,0H25.11"/></g></g></svg>