<svg xmlns="http://www.w3.org/2000/svg" viewBox="0 0 44.96 36.54"><title>Twitter</title><g id="Layer_2" data-name="Layer 2"><g id="Icons"><path id="Twitter" d="M45,4.33a18.82,18.82,0,0,1-5.3,1.45A9.23,9.23,0,0,0,43.72.67a18.32,18.32,0,0,1-5.86,2.24,9.23,9.23,0,0,0-15.72,8.41,26.17,26.17,0,0,1-19-9.63A9.23,9.23,0,0,0,6,14a9.18,9.18,0,0,1-4.17-1.15A9.23,9.23,0,0,0,9.21,22,9.4,9.4,0,0,1,5,22.17a9.23,9.23,0,0,0,8.62,6.4A18.55,18.55,0,0,1,0,32.39a26.08,26.08,0,0,0,14.14,4.15c17.13,0,26.8-14.47,26.22-27.44A19,19,0,0,0,45,4.33Z"/></g></g></svg>