<svg xmlns="http://www.w3.org/2000/svg" viewBox="0 0 55.78 40.76"><title>views</title><g id="Layer_2" data-name="Layer 2"><g id="Icons"><g id="views"><path d="M38.38,27.69H35.87A7.12,7.12,0,0,0,43,34.8V32.3A4.62,4.62,0,0,1,38.38,27.69Z"/><path d="M8.47,27.69H6a7.12,7.12,0,0,0,7.12,7.11V32.3A4.62,4.62,0,0,1,8.47,27.69Z"/><path d="M53,19.85h0L45,8.44a8.74,8.74,0,0,0-4.81-3.91L38.67,2.4A4.68,4.68,0,0,0,29.9,4.69v4a5.79,5.79,0,0,0-4,0v-4a4.68,4.68,0,0,0-8.76-2.31L15.61,4.53a8.73,8.73,0,0,0-4.8,3.89l-8,11.43h0a12.93,12.93,0,1,0,23.11,8V19.72a5.79,5.79,0,0,0,4,0v8.11h0a12.94,12.94,0,1,0,23.11-8ZM32.4,4.69a2.18,2.18,0,0,1,2.18-2.18c.72,0,1.28.21,2,1.31l.33.48A8,8,0,0,0,32.4,6.45ZM12.94,38.26A10.44,10.44,0,1,1,23.38,27.82,10.45,10.45,0,0,1,12.94,38.26ZM23.38,20.2A12.84,12.84,0,0,0,8.85,15.56l4-5.72c1.51-2.24,2.9-3.1,5-3.1a5.54,5.54,0,0,1,5.3,4A5.87,5.87,0,0,0,23.38,18Zm0-13.75A8,8,0,0,0,18.84,4.3l.35-.5c.73-1.08,1.29-1.29,2-1.29a2.18,2.18,0,0,1,2.19,2.18Zm4.51,11.12a3.39,3.39,0,1,1,3.38-3.39A3.39,3.39,0,0,1,27.89,17.57ZM32.4,18a5.85,5.85,0,0,0,.23-7.26,5.53,5.53,0,0,1,5.3-4c2.07,0,3.47.86,5,3.12l4,5.7A12.83,12.83,0,0,0,32.4,20.21Zm10.44,20.3a10.44,10.44,0,1,1,8.08-17l0,.06h0a10.34,10.34,0,0,1,2.32,6.53A10.45,10.45,0,0,1,42.84,38.26Z"/></g></g></g></svg>