<svg xmlns="http://www.w3.org/2000/svg" viewBox="0 0 45.58 45.58"><title>volleyball</title><g id="Layer_2" data-name="Layer 2"><g id="Icons"><path id="volleyball" d="M22.79,0A22.79,22.79,0,1,0,45.58,22.79,22.79,22.79,0,0,0,22.79,0Zm4.34,3.51A19.59,19.59,0,0,1,31.3,5L16.58,20l-5.85-1.86L25.53,3.26C26.07,3.33,26.61,3.41,27.13,3.51Zm-4,18.54L18,20.41,32.53,5.59a20.27,20.27,0,0,1,4.64,3.65ZM24,23l4-3.65,5.55,20a19.58,19.58,0,0,1-5.42,2.46ZM9.32,17.67,4.79,16.23A19.67,19.67,0,0,1,23.3,3.13l.49,0ZM22.74,23.3l1.16,5.29L3.67,23.37c0-.2,0-.39,0-.58a19.41,19.41,0,0,1,.75-5.31Zm-19,1.44L24.22,30l1.32,6L5.27,30.62A19.39,19.39,0,0,1,3.74,24.74ZM25.85,37.46l1,4.65a20.2,20.2,0,0,1-3.58.34A19.67,19.67,0,0,1,6,32.18Zm8.86,1.08L29.1,18.38l4.54-4.14L39,34.11A20.21,20.21,0,0,1,34.71,38.54Zm0-25.3,3.33-3A19.75,19.75,0,0,1,39.94,32.6Z"/></g></g></svg>