<?xml version="1.0" encoding="UTF-8"?>
<svg width="16px" height="16px" viewBox="0 0 16 16" version="1.1" xmlns="http://www.w3.org/2000/svg" xmlns:xlink="http://www.w3.org/1999/xlink">
    <title>Combined Shape</title>
    <g id="Final-For-Review" stroke="none" stroke-width="1" fill="none" fill-rule="evenodd">
        <g id="Community/Collection---Large-Viewport-Copy" transform="translate(-1093.000000, -131.000000)" fill="#000000">
            <g id="Group-6" transform="translate(1073.000000, 119.000000)">
                <g id="Group-4" transform="translate(20.000000, 12.000000)">
                    <path d="M1.90432541,1.9047486 C4.3548684,-0.546338964 8.29678555,-0.644075236 10.8657352,1.68255855 C13.4346848,4.00919233 13.7275885,7.94230044 11.5316116,10.6239422 L11.5316116,10.6239422 L16,15.0933236 L15.0899702,16 L10.6215818,11.5341742 C7.94053585,13.7306391 4.00830158,13.4376703 1.68218472,10.8681498 C-0.643932139,8.2986293 -0.546217581,4.35583616 1.90432541,1.9047486 Z M8.49750122,1.68441246 C6.54983369,0.876704603 4.30748066,1.32243801 2.81658983,2.81366015 C1.325699,4.30488229 0.880064625,6.54773363 1.68759303,8.49583398 C2.49512143,10.4439343 4.39668144,11.7133919 6.50511898,11.7119551 C9.37967691,11.7080367 11.7089903,9.37820571 11.7129078,6.50300898 C11.7143443,4.39410289 10.4451687,2.49212031 8.49750122,1.68441246 Z M7,3 L7,6 L10,6 L10,7 L7,7 L7,10 L6,10 L6,7 L3,7 L3,6 L6,6 L6,3 L7,3 Z" id="Combined-Shape"></path>
                </g>
            </g>
        </g>
    </g>
</svg>